<svg width="67" height="52" viewBox="0 0 67 52" fill="none" xmlns="http://www.w3.org/2000/svg">
<circle cx="33.4307" cy="26" r="26" fill="#2D4C9F"/>
<path d="M20.1025 36.6552L12.0842 39.6848C11.8738 39.7644 11.6522 39.7359 11.4726 39.6308L0.516837 33.1396C0.17736 32.9378 0.062337 32.4917 0.261529 32.1477C0.348499 31.9972 0.480365 31.892 0.629059 31.8352L11.8175 27.6062C12.1879 27.4669 12.6003 27.6574 12.7377 28.0326C12.7995 28.2002 12.7967 28.3764 12.7405 28.5328C12.965 28.4731 13.2147 28.5242 13.3998 28.6891C18.7305 33.4863 24.0641 38.2752 29.4026 43.0728L40.9811 41.1772C41.3711 41.1146 41.7385 41.3846 41.8004 41.7795C41.862 42.1746 41.5955 42.5469 41.2055 42.6094L29.3124 44.559C29.1048 44.5988 28.8803 44.5421 28.7092 44.3886L23.8444 40.0175L11.9205 44.5222C11.7101 44.6017 11.4884 44.5732 11.3089 44.4682L0.353086 37.977C0.0136098 37.7753 -0.101414 37.329 0.0977784 36.9851C0.296971 36.6412 0.737443 36.5248 1.07693 36.7265L11.7382 43.0415L22.6322 38.9263L22.2928 38.6221L11.8477 42.5668C11.7439 42.6066 11.6316 42.5924 11.5419 42.5412L0.58607 36.0473C0.414931 35.9478 0.358818 35.7233 0.457013 35.5528C0.555208 35.3794 0.776845 35.3227 0.945182 35.422L11.7552 41.828L21.6839 38.0765L21.0415 37.4996L11.8984 40.9526C11.7946 40.9924 11.6824 40.9782 11.5926 40.9271L0.636842 34.4359C0.465703 34.3365 0.409588 34.1119 0.507783 33.9415C0.60598 33.7681 0.827615 33.7112 0.995952 33.8107L11.8059 40.2137L20.4332 36.9568L20.0966 36.6526L20.1025 36.6552ZM27.0126 22.5844H47.0418C47.4373 22.5844 47.7599 22.9111 47.7599 23.3118C47.7599 23.7126 47.4373 24.0394 47.0418 24.0394H28.6344L29.7791 25.0683H47.0444C47.44 25.0683 47.7626 25.3952 47.7626 25.7958C47.7626 26.1965 47.44 26.5234 47.0444 26.5234H31.398L43.0575 37.0044C43.1782 37.1124 43.2623 37.2603 43.2905 37.4336C43.3521 37.8286 43.0856 38.201 42.6956 38.2634L30.8026 40.213C30.595 40.2528 30.3706 40.1961 30.1994 40.0426L13.9438 25.429C13.8231 25.321 13.739 25.1732 13.7109 24.9998C13.6492 24.6048 13.9157 24.2324 14.3057 24.17L26.1989 22.2231C26.4065 22.1834 26.6309 22.2403 26.8021 22.3937L27.0152 22.5841L27.0126 22.5844ZM23.9938 20.4727C23.5982 20.4727 23.2756 20.1459 23.2756 19.7452C23.2756 19.3445 23.5982 19.0176 23.9938 19.0176H47.0833C47.4788 19.0176 47.8015 19.3445 47.8015 19.7452C47.8015 20.1459 47.4788 20.4727 47.0833 20.4727H23.9938ZM23.9938 18.0286C23.5982 18.0286 23.2756 17.7018 23.2756 17.3011C23.2756 16.9003 23.5982 16.5735 23.9938 16.5735H47.0833C47.4788 16.5735 47.8015 16.9003 47.8015 17.3011C47.8015 17.7018 47.4788 18.0286 47.0833 18.0286H23.9938ZM23.9938 15.5845C23.5982 15.5845 23.2756 15.2576 23.2756 14.8569C23.2756 14.4562 23.5982 14.1294 23.9938 14.1294H47.0833C47.4788 14.1294 47.8015 14.4562 47.8015 14.8569C47.8015 15.2576 47.4788 15.5845 47.0833 15.5845H23.9938ZM23.9938 13.1403C23.5982 13.1403 23.2756 12.8135 23.2756 12.4128C23.2756 12.0121 23.5982 11.6852 23.9938 11.6852H34.0324C34.428 11.6852 34.7506 12.0121 34.7506 12.4128C34.7506 12.8135 34.428 13.1403 34.0324 13.1403H23.9938ZM17.7375 12.4128C17.7375 12.0121 18.0601 11.6852 18.4556 11.6852C18.8512 11.6852 19.1738 12.0121 19.1738 12.4128V12.8874C19.4236 12.9869 19.6509 13.1403 19.8388 13.3308C20.1923 13.6888 20.4111 14.1862 20.4111 14.7319C20.4111 15.1326 20.0885 15.4594 19.6929 15.4594C19.2973 15.4594 18.9747 15.1326 18.9747 14.7319C18.9747 14.5869 18.9158 14.4534 18.8232 14.3596C18.7251 14.2601 18.5932 14.2061 18.4556 14.2061C18.3182 14.2061 18.1864 14.2601 18.0882 14.3596C17.9956 14.4534 17.9366 14.5869 17.9366 14.7319C17.9366 14.8825 17.9984 15.0274 18.1021 15.1582C18.2565 15.3713 18.5314 15.5447 18.7643 15.6584C19.2244 15.9028 19.6003 16.1472 19.9286 16.5678C20.2288 16.9486 20.4112 17.3976 20.4112 17.8978C20.4112 18.4435 20.1923 18.9409 19.8388 19.299C19.6509 19.4894 19.4236 19.64 19.174 19.7423V20.2169C19.174 20.6176 18.8512 20.9445 18.4556 20.9445C18.0601 20.9445 17.7375 20.6176 17.7375 20.2169V19.7395C17.4878 19.64 17.2606 19.4865 17.0725 19.299C16.7191 18.9409 16.5002 18.4435 16.5002 17.8978C16.5002 17.4971 16.8228 17.1703 17.2184 17.1703C17.614 17.1703 17.9367 17.4971 17.9367 17.8978C17.9367 18.0428 17.9956 18.1763 18.0882 18.2701C18.1864 18.3696 18.3182 18.4236 18.4556 18.4236C18.5932 18.4236 18.7251 18.3696 18.8232 18.2701C18.9158 18.1763 18.9747 18.0428 18.9747 17.8978C18.9747 17.7472 18.9101 17.6023 18.8092 17.4715C18.6632 17.2811 18.4416 17.1191 18.1864 16.9912C17.7684 16.8122 17.3139 16.4683 17.0221 16.1131C16.6965 15.7351 16.5002 15.2378 16.5002 14.7347C16.5002 14.1891 16.7191 13.6917 17.0725 13.3336C17.2606 13.1432 17.4849 12.9926 17.7375 12.8931V12.4128ZM41.186 33.0061C41.3347 33.3785 41.1551 33.8019 40.7905 33.9525C40.4229 34.1032 40.0049 33.9213 39.8562 33.5519C39.5336 32.7504 39.4943 31.8807 39.7103 31.0793C39.9207 30.2779 40.3892 29.5475 41.0766 29.0161C41.7639 28.4846 42.5831 28.2174 43.3968 28.2174C44.2132 28.2174 45.0295 28.4817 45.7169 29.0161C46.1688 29.3656 46.5082 29.8061 46.7355 30.2751C47.3695 30.4683 47.9307 30.8264 48.3711 31.2982C48.5955 31.5398 48.7891 31.8068 48.9433 32.0996C49.1342 32.0314 49.3333 31.9945 49.5382 31.9945C49.858 31.9945 50.1722 32.0854 50.4443 32.2503L50.5117 32.2929L50.5902 32.2531L49.7598 29.8629C49.7093 29.7293 49.6981 29.5758 49.7346 29.4253L50.1526 27.7598C49.6055 27.0408 49.1202 26.0006 48.8704 24.952C48.6124 23.8748 48.5955 22.7579 48.9911 21.8996L50.4921 17.972C50.6211 17.5599 50.8708 17.2643 51.1513 16.9518C51.4627 16.6363 51.8499 16.3635 52.1614 16.227L53.2133 15.5876L53.2274 15.5336C53.3733 14.968 53.7324 14.5105 54.1896 14.2348C54.6413 13.9619 55.1912 13.8625 55.7382 13.9932L55.8505 14.0216L56.1647 13.7573L56.3667 13.5584L55.8253 12.99C55.4941 12.6148 55.3315 12.1402 55.3399 11.6713C55.3484 11.1796 55.5391 10.6908 55.9095 10.3213L56.2714 9.96607C56.6501 9.5966 57.1438 9.41472 57.632 9.42325C58.1202 9.43177 58.6055 9.62787 58.9703 10.0087L65.8411 17.2018C66.1722 17.5769 66.3321 18.0516 66.3265 18.5205C66.318 19.015 66.1245 19.5038 65.757 19.8705L65.3389 20.2797C64.9686 20.6122 64.5028 20.7742 64.0399 20.7685C63.5518 20.76 63.0692 20.5667 62.7073 20.1916L62.4183 19.8903L62.1321 20.1717C61.8067 20.49 61.8123 20.5582 61.8208 20.7089C61.8347 21.01 61.8375 21.2716 61.801 21.5727C61.5093 23.98 60.2215 24.7985 58.6505 25.796C57.9042 26.2309 57.0597 26.8448 56.4425 27.4501C56.1367 27.7484 55.7579 27.9588 55.3567 28.0725L54.6946 30.707C54.661 30.8406 54.588 30.9684 54.4786 31.0679L52.0462 33.2875C51.9424 33.4154 51.7038 33.5064 51.5327 33.5064C51.4149 33.5064 51.2831 33.532 51.1736 33.583C51.0221 33.6683 51.0025 33.8133 50.8033 33.9213C50.4554 34.1117 50.0206 33.9781 49.8326 33.6258C49.8045 33.5718 49.7597 33.5263 49.7091 33.495C49.6614 33.4666 49.6025 33.4496 49.538 33.4496C49.4734 33.4496 49.4145 33.4666 49.3669 33.495C49.3164 33.5263 49.2743 33.5718 49.2434 33.6258C49.1452 33.8076 48.9741 33.9469 48.758 33.9924C48.3709 34.0719 47.9893 33.8218 47.9108 33.4297C47.821 32.9976 47.6134 32.6083 47.3272 32.2986L47.1168 32.0996C47.0972 32.5145 47.0017 32.9011 46.8474 33.225C46.6707 33.5974 46.4098 33.8986 46.0787 34.0947C45.4083 34.4556 44.7742 34.3902 44.1092 34.0407C43.4695 33.7053 43.1245 33.1198 43.0628 32.4946C43.0291 32.1536 43.0852 31.804 43.2227 31.4801C43.3573 31.1646 43.579 30.869 43.8764 30.6331C44.1373 30.4256 44.4627 30.2607 44.8443 30.1727C44.4179 29.843 43.9073 29.6781 43.3939 29.6781C42.8806 29.6781 42.3671 29.843 41.9435 30.1727C41.517 30.5023 41.2252 30.96 41.0905 31.4573C40.9531 31.9575 40.9783 32.5031 41.1831 33.0091L41.186 33.0061ZM45.689 32.0314C45.6973 31.875 45.6862 31.7102 45.658 31.5454C45.2541 31.5227 44.9539 31.6192 44.7575 31.7756C44.6565 31.8552 44.5808 31.9546 44.5386 32.057C44.4965 32.1536 44.4797 32.2558 44.4882 32.3496C44.4965 32.4463 44.5386 32.5429 44.6032 32.6225C44.6817 32.722 44.7939 32.8016 44.9174 32.8385C45.0521 32.884 45.2036 32.8812 45.3326 32.813C45.4225 32.7646 45.5066 32.6822 45.5682 32.56C45.6328 32.4321 45.6777 32.2588 45.689 32.0314ZM52.7169 17.5684C52.5766 17.628 52.3662 17.7844 52.1699 17.9833C52.0632 18.0856 51.9004 18.2675 51.8584 18.4096C51.4067 19.6913 50.8315 21.2715 50.2928 22.5077C50.0432 23.042 50.0741 23.8264 50.262 24.6137C50.3574 25.0143 50.4921 25.4095 50.652 25.776L52.7141 17.5685L52.7169 17.5684ZM55.4691 21.7262L56.7934 16.4571C56.8383 16.2781 56.8074 16.0962 56.7204 15.9484C56.6363 15.8034 56.4932 15.6869 56.3165 15.6443L55.4046 15.4084C55.2335 15.3714 55.0624 15.4027 54.9221 15.488C54.7762 15.5761 54.6612 15.721 54.6162 15.8944L51.1823 29.576L51.8528 31.5085L53.3538 30.1359L53.8784 28.0441C53.553 27.9361 53.2499 27.7515 52.9975 27.4899L52.9329 27.4189C52.5065 26.9386 52.3297 26.3077 52.3718 25.691C52.4139 25.0686 52.6777 24.4462 53.1238 24.0028L55.4663 21.7236L55.4691 21.7262ZM58.1849 16.8124L56.9841 21.5869C57.1075 21.8598 57.0514 22.1922 56.8298 22.4111C56.1621 23.0619 54.7872 24.5625 54.1309 25.0343C53.9344 25.2247 53.8194 25.5033 53.8026 25.7817C53.7885 26.0261 53.8475 26.2648 53.9905 26.4354L54.0214 26.4666C54.2235 26.677 54.4928 26.7253 54.7705 26.7082C55.0202 26.6855 55.2643 26.5803 55.4439 26.4041C56.2378 25.6254 56.9897 25.1707 57.8875 24.5625C59.1388 23.7667 60.1657 23.1131 60.3759 21.3937C60.4068 21.1294 60.3985 20.9446 60.39 20.7996C60.3226 19.9727 60.5443 19.7027 61.1335 19.1257L61.4253 18.8415L57.9688 15.2236C58.2325 15.6869 58.3308 16.2525 58.1905 16.8095L58.1849 16.8124ZM63.7258 19.1684C63.8184 19.265 63.939 19.3162 64.0597 19.3162C64.1691 19.3162 64.2841 19.2792 64.371 19.2053C64.4412 19.1286 64.6909 18.87 64.7499 18.833C64.8453 18.7392 64.8957 18.617 64.8957 18.4977C64.8986 18.384 64.8621 18.2703 64.7864 18.1794C62.4913 15.9598 60.1711 13.348 57.9436 11.0147C57.851 10.918 57.7304 10.8697 57.6097 10.8669C57.4891 10.864 57.3628 10.9095 57.2702 11.0004C57.2001 11.0686 56.9784 11.3102 56.9167 11.3472C56.8213 11.4409 56.7737 11.566 56.7708 11.6854C56.768 11.7962 56.8073 11.9099 56.8802 12.0008C58.0165 13.1859 62.9038 18.2958 63.723 19.1655L63.7258 19.1684ZM11.5196 26.3899C11.5196 26.7907 11.1969 27.1175 10.8013 27.1175C10.4058 27.1175 10.0831 26.7907 10.0831 26.3899V8.15602C10.0831 7.7553 10.4058 7.42847 10.8013 7.42847H55.8613C56.2569 7.42847 56.5795 7.7553 56.5795 8.15602C56.5795 8.55674 56.2569 8.88357 55.8613 8.88357H11.5196V26.3899ZM55.143 31.3094C55.143 30.9088 55.4656 30.5819 55.8613 30.5819C56.2569 30.5819 56.5795 30.9088 56.5795 31.3094V39.3066C56.5795 39.7074 56.2569 40.0342 55.8613 40.0342H44.1398C43.7443 40.0342 43.4216 39.7074 43.4216 39.3066C43.4216 38.906 43.7443 38.5792 44.1398 38.5792H55.143V31.3094ZM12.2514 28.9818L2.53889 32.6509L11.9038 38.1984L18.8925 35.5582L18.6372 35.3281L13.5675 37.2436C13.3599 37.3231 13.1383 37.2947 12.9615 37.1924C12.6754 37.0247 12.3078 36.9053 11.9459 36.8541C11.612 36.8031 11.3062 36.8088 11.1183 36.8797C10.9079 36.9593 10.6862 36.9309 10.5067 36.8257L6.07106 34.197C5.73159 33.9952 5.61656 33.5489 5.81576 33.205C5.85222 33.1425 5.89431 33.0885 5.94481 33.0402L5.85785 32.9862C5.51837 32.7845 5.40335 32.3382 5.60254 31.9944C5.68951 31.8437 5.82137 31.7385 5.97007 31.6817L12.218 29.32C12.204 29.2063 12.2152 29.0898 12.2545 28.9818H12.2514ZM17.4249 34.2395L17.2061 34.0406C16.6729 34.0492 16.1343 34.0065 15.6377 33.9071C15.0401 33.7905 14.4875 33.6002 14.0441 33.3387C13.6121 33.0828 13.3091 32.7703 13.1295 32.4349C13.0005 32.1877 12.9388 31.9262 12.9444 31.6618C12.9528 31.372 13.0398 31.1048 13.1913 30.8603C13.2474 30.7722 13.3091 30.6871 13.3821 30.6046L13.2418 30.4767L7.4623 32.6594C7.52121 32.8044 7.54927 32.9521 7.55208 33.1027C7.55208 33.1965 7.54366 33.2875 7.52121 33.3756L10.9693 35.419C11.3284 35.3508 11.7408 35.3508 12.1504 35.4105C12.56 35.4702 12.9865 35.5951 13.3624 35.7714L17.422 34.2366L17.4249 34.2395ZM13.1857 28.0469C13.037 27.9133 13.023 27.6859 13.1548 27.5352C13.2867 27.3847 13.5111 27.3705 13.6598 27.5041L29.789 42.0041L41.5333 40.0801C41.727 40.0488 41.9122 40.1853 41.943 40.3814C41.9739 40.5774 41.8392 40.765 41.6456 40.7963L29.7418 42.7459C29.6379 42.7658 29.5257 42.7374 29.4416 42.6606L13.1857 28.0469ZM13.6823 26.6003C13.5335 26.4667 13.5196 26.2394 13.6515 26.0887C13.7833 25.9381 14.0078 25.9239 14.1565 26.0575L30.2855 40.5546L42.03 38.6306C42.2235 38.5993 42.4087 38.7358 42.4396 38.9319C42.4704 39.1279 42.3357 39.3155 42.1422 39.3468L30.2412 41.2964C30.1375 41.3163 30.0253 41.2879 29.941 41.2111L13.6884 26.6004L13.6823 26.6003ZM30.3028 31.3436C29.823 30.9229 29.1637 30.5734 28.4818 30.3488C27.7973 30.1215 27.1099 30.0249 26.5881 30.11C26.5123 30.1215 26.4282 30.1356 26.3525 30.1585C26.2767 30.1811 26.2121 30.2125 26.1814 30.2635C26.1505 30.309 26.1477 30.3716 26.1842 30.454C26.2599 30.6274 26.4197 30.8292 26.661 31.048C27.1436 31.4827 27.8198 31.8438 28.5155 32.074C29.2 32.3013 29.8874 32.3979 30.4093 32.3128C30.5271 32.2929 30.6393 32.2785 30.7206 32.2416C30.7767 32.216 30.8189 32.1763 30.8301 32.1223C30.8386 32.0797 30.8329 32.02 30.8021 31.9461C30.6871 31.7073 30.4906 31.5282 30.3026 31.3493L30.3028 31.3436ZM28.9252 28.9676C29.2787 29.0841 29.6322 29.232 29.9688 29.4025L26.5768 26.353C26.184 26.3757 25.7688 26.3359 25.3873 26.2478C25.003 26.1598 24.6354 26.0177 24.3409 25.8358L20.632 26.4439C20.6207 26.5235 20.5983 26.6003 20.5701 26.677L20.5394 26.7481C20.4916 26.8476 20.4327 26.9384 20.3597 27.0237L24.9103 31.1134L24.8767 31.0423C24.7112 30.6672 24.6719 30.2977 24.7477 29.9567C24.8262 29.6099 25.0254 29.3087 25.334 29.0813C25.6314 28.854 26.0018 28.7346 26.3636 28.6778C27.1155 28.5556 28.0414 28.6721 28.9252 28.9676ZM32.0842 31.3038L32.1179 31.3777C32.2749 31.7329 32.3199 32.0853 32.2581 32.4121C32.1768 32.8213 31.9523 33.1397 31.6129 33.3728C31.3604 33.546 31.0293 33.6768 30.631 33.7422C29.8789 33.8644 28.9532 33.745 28.0694 33.4522C27.7131 33.3358 27.3596 33.188 27.0229 33.0146L30.4178 36.067C30.8106 36.0442 31.2258 36.084 31.6073 36.1692C31.9916 36.2573 32.3592 36.3994 32.6537 36.5842L36.3654 35.976C36.3767 35.8964 36.3991 35.8168 36.43 35.7401C36.4776 35.615 36.5506 35.4986 36.6404 35.3961L32.0871 31.3038H32.0842ZM27.2923 25.057L38.3688 35.0158C38.4893 35.1238 38.5736 35.2716 38.6016 35.445C38.6632 35.84 38.3967 36.2122 38.0069 36.2748L37.9591 36.2833L38.004 36.4453C38.0658 36.8403 37.7991 37.2127 37.4093 37.2752L32.6062 38.0623C32.3984 38.1021 32.174 38.0454 32.0029 37.8919C31.8626 37.7639 31.5989 37.6559 31.2959 37.5849C30.9676 37.511 30.6085 37.4882 30.3056 37.5337C30.098 37.5707 29.8791 37.5138 29.708 37.3633L18.6315 27.4044C18.5108 27.2965 18.4267 27.1487 18.3986 26.9753C18.3369 26.5803 18.6034 26.2081 18.9934 26.1454L19.0412 26.1369L18.9962 25.975C18.9345 25.5799 19.201 25.2076 19.591 25.1451L24.3941 24.3579C24.6017 24.3181 24.8262 24.3749 24.9973 24.5284C25.1377 24.6563 25.4014 24.7644 25.7043 24.8326C26.0325 24.9065 26.3918 24.9291 26.6975 24.8836C26.9051 24.8468 27.124 24.9035 27.2951 25.0542L27.2923 25.057ZM40.978 37.0704C36.0207 32.6141 31.0658 28.1521 26.1058 23.7016L16.0197 25.3528L30.892 38.7216L40.978 37.0704Z" fill="white"/>
</svg>
