<svg width="26" height="27" viewBox="0 0 26 27" fill="none" xmlns="http://www.w3.org/2000/svg">
<path d="M25.948 12.5702C21.1949 19.6685 12.4638 23.0089 5.4375 24.0006C11.2239 28.2283 19.2834 26.9756 23.5198 21.13C25.1214 18.8856 25.9997 16.2237 25.9997 13.4575C25.9997 13.1443 25.9997 12.8834 25.948 12.5702Z" fill="#F4F4F4"/>
<path d="M6.52286 11.735H8.33109C8.95105 11.735 9.41602 12.257 9.41602 12.8311V19.825C9.62268 19.7728 9.88099 19.7206 10.191 19.6163C10.6043 19.5119 10.9143 19.1465 10.9143 18.729V10.0648C10.9143 9.4385 11.4309 8.96875 11.9992 8.96875H13.8074C14.4274 8.96875 14.8924 9.49069 14.8924 10.0648V18.1026C14.8924 18.1026 15.3573 17.8939 15.8223 17.7373C16.184 17.5807 16.3906 17.2675 16.3906 16.9022V7.35075C16.3906 6.72442 16.9072 6.25468 17.4755 6.25468H19.2838C19.9037 6.25468 20.3687 6.77662 20.3687 7.35075V15.232C21.9703 14.0837 23.5719 12.6745 24.8634 11.0043C25.2251 10.5346 25.3284 9.85604 25.1218 9.28191C22.7969 2.44454 15.409 -1.15682 8.69273 1.24409C1.9248 3.59281 -1.63999 11.0565 0.736533 17.8417C0.994851 18.6246 1.3565 19.3553 1.71814 20.0338C2.02812 20.6079 2.64809 20.9211 3.26805 20.8689C3.6297 20.8167 4.04301 20.8167 4.55964 20.7123C5.02462 20.6601 5.38626 20.2426 5.38626 19.7728L5.43792 12.8311C5.43792 12.2048 5.95456 11.735 6.52286 11.735Z" fill="#F4F4F4"/>
</svg>
