<svg width="26" height="27" viewBox="0 0 26 27" fill="none" xmlns="http://www.w3.org/2000/svg">
<path d="M13 26.5C20.1797 26.5 26 20.6797 26 13.5C26 6.3203 20.1797 0.5 13 0.5C5.8203 0.5 0 6.3203 0 13.5C0 20.6797 5.8203 26.5 13 26.5Z" fill="#213875"/>
<path fill-rule="evenodd" clip-rule="evenodd" d="M5.8846 13.3627C9.67435 11.7116 12.2015 10.623 13.4659 10.0971C17.0761 8.59548 17.8263 8.33463 18.3153 8.32602C18.4228 8.32415 18.6633 8.3508 18.819 8.47718C18.9505 8.58391 18.9867 8.72804 19.004 8.82924C19.0213 8.9304 19.0429 9.1609 19.0258 9.34099C18.8301 11.3966 17.9836 16.385 17.5529 18.6873C17.3707 19.6615 17.0119 19.9882 16.6645 20.0201C15.9096 20.0896 15.3363 19.5213 14.6051 19.0419C13.461 18.2919 12.8146 17.825 11.704 17.0931C10.4204 16.2473 11.2525 15.7825 11.984 15.0227C12.1754 14.8239 15.5016 11.7984 15.566 11.5239C15.5741 11.4896 15.5815 11.3617 15.5055 11.2941C15.4295 11.2266 15.3173 11.2496 15.2364 11.268C15.1216 11.2941 13.2938 12.5022 9.75291 14.8924C9.23409 15.2487 8.76414 15.4222 8.3431 15.4132C7.87892 15.4031 6.98607 15.1507 6.3223 14.9349C5.50817 14.6703 4.86114 14.5304 4.91748 14.081C4.94681 13.8468 5.26917 13.6074 5.8846 13.3627Z" fill="white"/>
</svg>
