<svg width="34" height="36" viewBox="0 0 34 36" fill="none" xmlns="http://www.w3.org/2000/svg">
<path d="M29.7061 11.9113C29.6281 12.1176 29.3967 12.2207 29.1904 12.1426C28.984 12.0644 28.881 11.8331 28.959 11.6268C29.056 11.3736 29.0498 11.1016 28.9607 10.8641C28.87 10.6265 28.6949 10.4186 28.4557 10.2936C28.2166 10.1685 27.9462 10.142 27.6994 10.2029C27.4524 10.2654 27.2273 10.4139 27.0741 10.6374C26.9194 10.864 26.8647 11.1329 26.9241 11.4204C26.9867 11.7205 27.1758 12.0488 27.5024 12.3786L27.5227 12.4004C27.9494 12.8397 28.1995 13.296 28.2933 13.7368C28.3995 14.2448 28.301 14.7261 28.0213 15.1325C27.7541 15.5232 27.3602 15.7843 26.9288 15.8906C26.6271 15.9656 26.3067 15.9641 25.9972 15.8827L25.7455 16.3673C25.6455 16.5627 25.4033 16.6392 25.2078 16.5392C25.0125 16.4392 24.936 16.1969 25.036 16.0015L25.2876 15.517C25.0328 15.3076 24.8422 15.0372 24.7296 14.737C24.5733 14.3229 24.5639 13.8509 24.7312 13.4086C24.8093 13.2022 25.0407 13.0991 25.2469 13.1772C25.4533 13.2554 25.5565 13.4866 25.4783 13.693C25.3814 13.9478 25.3877 14.2181 25.4768 14.4542C25.5674 14.6934 25.7425 14.8996 25.9816 15.0247C26.2223 15.1497 26.4911 15.1763 26.7396 15.1138C26.9865 15.0528 27.21 14.9028 27.3633 14.6808C27.518 14.4542 27.5727 14.1854 27.5133 13.8978C27.4508 13.6024 27.2695 13.2804 26.9553 12.9568L26.9366 12.9397C26.4973 12.4958 26.2411 12.0316 26.1457 11.5814C26.0378 11.0735 26.1379 10.592 26.4176 10.1857C26.6849 9.79492 27.0788 9.5339 27.5086 9.42607C27.8118 9.35105 28.1323 9.35261 28.4418 9.43544L28.6934 8.95093C28.7934 8.75556 29.0357 8.67897 29.231 8.77901C29.4264 8.87904 29.503 9.1213 29.403 9.3167L29.1513 9.80121C29.4061 10.0107 29.5969 10.281 29.7093 10.5796C29.8656 10.9938 29.8766 11.4658 29.7078 11.9081L29.7061 11.9113ZM13.2166 10.167C13.2948 9.9622 13.526 9.85905 13.7308 9.93719C13.9356 10.0153 14.0387 10.2467 13.9607 10.4514L10.8112 18.6525C10.733 18.8572 10.5017 18.9604 10.2969 18.8822C10.0922 18.804 9.98902 18.5728 10.0672 18.3679L13.2166 10.167ZM7.27392 22.3816C7.0551 22.4097 6.85502 22.2565 6.8269 22.0377C6.79877 21.8189 6.95193 21.6188 7.17076 21.5908L18.5479 20.0966C18.7668 20.0684 18.9668 20.2216 18.995 20.4404C19.0232 20.6592 18.8699 20.8593 18.6511 20.8873L7.27392 22.3816ZM8.59154 32.4192C8.37272 32.4473 8.17264 32.2941 8.14451 32.0754C8.11638 31.8566 8.26955 31.6564 8.48837 31.6283L19.8656 30.1341C20.0844 30.1059 20.2845 30.2591 20.3126 30.478C20.3407 30.6968 20.1875 30.8968 19.9688 30.925L8.59154 32.4192ZM6.52681 30.1373C6.30799 30.1653 6.10791 30.0121 6.07978 29.7934C6.05165 29.5746 6.20482 29.3744 6.42365 29.3464L21.2703 27.3957C21.4892 27.3676 21.6892 27.5207 21.7174 27.7396C21.7454 27.9584 21.5924 28.1584 21.3735 28.1866L6.52681 30.1373ZM7.93193 27.4004C7.71311 27.4286 7.51303 27.2754 7.4849 27.0565C7.45678 26.8377 7.60994 26.6377 7.82877 26.6096L19.2059 25.1153C19.4248 25.0872 19.6248 25.2404 19.653 25.4592C19.6812 25.6779 19.528 25.8781 19.3091 25.9062L7.93193 27.4004ZM5.8672 25.1184C5.64838 25.1466 5.4483 24.9934 5.42017 24.7746C5.39205 24.5558 5.54521 24.3557 5.76404 24.3275L20.6095 22.377C20.8284 22.3488 21.0284 22.502 21.0566 22.7208C21.0846 22.9397 20.9316 23.1397 20.7127 23.1679L5.8672 25.1184ZM9.48709 10.445C9.98725 10.3825 10.4671 10.5279 10.8375 10.8108C11.2111 11.0984 11.4768 11.5298 11.544 12.0346C11.6096 12.5379 11.4658 13.024 11.1798 13.3975C10.8922 13.7711 10.4608 14.0368 9.95599 14.104L9.94347 14.1056C9.44488 14.1665 8.96505 14.0227 8.59306 13.7382C8.2195 13.4506 7.95377 13.0193 7.88659 12.516L7.88503 12.5003C7.82408 12.0018 7.96944 11.5219 8.25233 11.153C8.53993 10.7779 8.97132 10.5138 9.47459 10.4481L9.48553 10.4466L9.48709 10.445ZM10.353 11.4454C10.1483 11.2875 9.88255 11.2062 9.60746 11.2344L9.54963 11.2422C9.27767 11.2859 9.04323 11.4328 8.88534 11.6376C8.72748 11.8424 8.64619 12.1081 8.67433 12.3832L8.68215 12.441C8.72592 12.713 8.87284 12.9474 9.07759 13.1037C9.2839 13.2631 9.54806 13.3428 9.82314 13.3146L9.88097 13.3069C10.1545 13.2631 10.3874 13.1161 10.5453 12.9114C10.7078 12.6989 10.7906 12.4222 10.7531 12.1362C10.7156 11.8517 10.5656 11.6063 10.353 11.4438V11.4454ZM14.2027 15.5031L14.1448 15.5108C13.8713 15.5546 13.6385 15.7016 13.4806 15.9063C13.3165 16.1188 13.2351 16.394 13.2727 16.68C13.3101 16.9659 13.4603 17.2098 13.6728 17.3724C13.8854 17.5365 14.1621 17.6177 14.4465 17.5803C14.7325 17.5427 14.9763 17.3927 15.1389 17.1802C15.2967 16.9738 15.3781 16.7097 15.3499 16.4346L15.342 16.3767C15.2984 16.1048 15.1514 15.8704 14.9466 15.714C14.7404 15.5562 14.4762 15.4749 14.2011 15.5031H14.2027ZM14.0824 14.7137C14.5825 14.6512 15.0623 14.7966 15.4328 15.081C15.8063 15.3686 16.072 15.7999 16.1376 16.3032L16.1392 16.3143C16.2017 16.8144 16.0579 17.2942 15.7735 17.6662C15.4858 18.0398 15.0545 18.3054 14.5496 18.3727C14.0448 18.4383 13.5618 18.2945 13.1883 18.0069C12.8148 17.7194 12.549 17.288 12.4818 16.7832C12.4162 16.2799 12.56 15.7953 12.8476 15.4217C13.1352 15.0483 13.5665 14.7825 14.0713 14.7153L14.0839 14.7137H14.0824ZM3.63703 7.83194L10.7941 6.89256L13.3855 1.89579C13.8311 1.03615 14.5874 0.43752 15.4456 0.165553C16.302 -0.106408 17.2649 -0.0517029 18.123 0.392189L31.6051 7.38359C32.4648 7.82906 33.0635 8.58554 33.3355 9.4436C33.6074 10.3017 33.5526 11.2645 33.1088 12.1226L24.9342 27.8883L25.2109 29.9905C25.3391 30.9706 25.0545 31.9162 24.4935 32.6477C23.9323 33.3791 23.0914 33.8981 22.1098 34.0278L7.32402 35.969C6.34248 36.0987 5.39686 35.8142 4.66694 35.2532L4.64194 35.2313C3.92451 34.6686 3.41499 33.8371 3.28683 32.8681L0.528162 11.8598C0.403122 10.8814 0.687588 9.94045 1.24559 9.21366C1.80669 8.48219 2.64759 7.96326 3.62915 7.83354L3.63703 7.83194ZM11.7584 6.76596L18.4136 5.89225C19.3937 5.76407 20.3393 6.04854 21.0708 6.60967C21.8022 7.1708 22.3227 8.01167 22.4509 8.99323L24.75 26.5035L32.3961 11.7569C32.7399 11.0942 32.7805 10.3502 32.5696 9.68593C32.3585 9.02164 31.8975 8.43864 31.2363 8.09477L17.7541 1.10337C17.0929 0.759509 16.3473 0.718872 15.6831 0.929879C15.0189 1.14088 14.4359 1.60197 14.0919 2.2631L11.7569 6.76773L11.7584 6.76596ZM18.517 6.68312L3.70144 8.62905C2.95277 8.7369 2.31036 9.13702 1.87899 9.69815C1.44761 10.2608 1.22566 10.9845 1.31633 11.7363L4.07656 32.765C4.17502 33.5183 4.57048 34.1654 5.12845 34.6031L5.15033 34.6187C5.72083 35.0563 6.45698 35.2782 7.21975 35.1782L22.0056 33.2369C22.7684 33.1369 23.4217 32.7321 23.8593 32.1632C24.2985 31.5943 24.5189 30.8581 24.4188 30.0937L21.6618 9.09795C21.5618 8.33523 21.1569 7.68186 20.588 7.24424C20.019 6.80502 19.2829 6.58467 18.517 6.6847V6.68312Z" fill="white"/>
</svg>
