<svg width="26" height="31" viewBox="0 0 26 31" fill="none" xmlns="http://www.w3.org/2000/svg">
<path fill-rule="evenodd" clip-rule="evenodd" d="M10.1961 7.32318C11.3843 7.50885 12.2948 7.97298 13.2053 8.8549C13.622 9.25717 14.0387 9.73681 14.7023 10.6187C16.1992 12.6146 16.8474 13.1561 18.1128 13.5738C18.8536 13.8214 19.6098 13.9297 20.9369 14.007C22.403 14.0844 22.9586 14.1927 23.4833 14.5486C23.7765 14.7497 23.9925 14.9818 24.224 15.3376L24.3629 15.5388L24.332 15.3067C24.2395 14.4402 23.6222 13.218 22.8351 12.3361L22.6962 12.1814L22.6191 12.5063C22.4339 13.3263 22.0481 13.9142 21.6777 13.9142C21.5079 13.9142 21.3228 13.8059 21.261 13.6512C21.1839 13.4501 21.1839 13.3882 21.3073 13.1561C21.5388 12.7383 21.5851 12.1968 21.4771 11.4696C21.4462 11.2685 21.3999 11.0674 21.369 11.0364C21.2919 10.9436 20.6592 10.5723 20.2579 10.3866C18.7919 9.70585 17.0326 9.48925 15.3196 9.76774L14.9183 9.82963L14.6406 9.50473C13.5757 8.31337 12.5726 7.6326 11.4615 7.36959C10.9831 7.26129 10.3041 7.1994 10.0109 7.24581C9.85656 7.26129 9.87198 7.27677 10.1961 7.32318Z" fill="#F4F4F4"/>
<path fill-rule="evenodd" clip-rule="evenodd" d="M20.026 9.4428C20.2575 9.5511 20.6587 9.75225 20.8902 9.89148C21.8315 10.433 21.9859 10.7579 21.9859 12.104C21.9859 12.7693 21.9705 12.8621 21.8933 13.0632C21.7853 13.3262 21.8007 13.3727 21.9242 13.1406C22.1556 12.6919 22.2482 12.2587 22.2637 11.5625C22.2637 11.1138 22.2791 11.0209 22.3408 10.959C22.418 10.8817 22.4334 10.8817 22.5414 10.9436C22.7112 11.0209 23.4519 11.6089 23.776 11.9183L24.0384 12.1658L23.776 11.8255C23.6217 11.6398 23.2205 11.1911 22.881 10.8353C22.1402 10.0772 22.0939 9.9843 21.9859 9.28809C21.9087 8.74656 21.9242 8.26692 22.0476 7.92654C22.0939 7.80279 22.1248 7.69446 22.1094 7.69446C22.0939 7.69446 22.0322 7.81824 21.9704 7.9575C21.8007 8.31336 21.7235 8.70015 21.6927 9.28809C21.6772 9.67488 21.6464 9.79866 21.6001 9.84507C21.5384 9.86055 21.4457 9.84507 20.9056 9.62847C20.5507 9.47373 19.6402 9.21072 19.6093 9.24165C19.5939 9.24165 19.7791 9.3345 20.026 9.4428Z" fill="#F4F4F4"/>
<path fill-rule="evenodd" clip-rule="evenodd" d="M12.7116 12.893C13.0974 12.924 13.2054 12.8002 13.0356 12.5527C12.7887 12.2123 12.4955 11.6708 12.4184 11.4387C12.3721 11.2994 12.264 10.8662 12.1869 10.4949C11.9245 9.2262 11.6468 8.71563 11.0294 8.34429C10.798 8.20506 10.3195 8.01939 10.0418 7.97298L9.88746 7.94202L9.85659 8.26695C9.76401 9.30357 10.1807 10.696 10.8288 11.5934C11.3381 12.2896 12.1251 12.8312 12.7116 12.893Z" fill="#F4F4F4"/>
<path fill-rule="evenodd" clip-rule="evenodd" d="M25.9527 19.0198C25.6749 17.3024 24.5175 16.0337 22.6502 15.4148C22.0638 15.2137 21.4156 15.0899 20.2891 14.9197C18.36 14.6412 17.6656 14.4246 17.0483 13.9295C16.9094 13.8212 16.8014 13.7284 16.7859 13.7284C16.7859 13.7284 16.7705 13.945 16.7705 14.208C16.7705 16.0182 17.8507 17.0858 20.9063 18.3236C22.9434 19.1436 23.7768 19.5613 24.4249 20.1183C24.9651 20.5979 25.2891 21.2168 25.32 21.8666C25.32 21.9904 25.3509 22.0678 25.3663 22.0678C25.4435 22.0523 25.7521 21.3406 25.8601 20.9538C25.9836 20.4587 26.0299 19.5149 25.9527 19.0198Z" fill="#F4F4F4"/>
<path fill-rule="evenodd" clip-rule="evenodd" d="M16.7086 21.9595C16.5543 22.0214 15.937 22.1452 15.3352 22.238C14.116 22.4546 13.5604 22.5938 13.0203 22.8569C12.6345 23.0425 12.1561 23.321 12.187 23.352C12.2024 23.3675 12.295 23.3365 12.3876 23.3056C13.082 23.058 13.8537 22.9342 15.0111 22.8723C15.474 22.8414 15.9987 22.795 16.1839 22.7795C17.2179 22.6403 17.9432 22.3308 18.4988 21.7584C18.8074 21.4334 18.9926 21.1395 19.147 20.7218C19.2395 20.4587 19.255 20.3504 19.255 19.8863C19.255 19.4066 19.255 19.3138 19.147 19.0198C19.008 18.633 18.8537 18.3545 18.6531 18.1225L18.5142 17.9523L18.5914 18.1844C18.6377 18.3081 18.7148 18.6021 18.7457 18.8342C18.9926 20.2885 18.2364 21.4799 16.7086 21.9595Z" fill="#F4F4F4"/>
<path fill-rule="evenodd" clip-rule="evenodd" d="M24.1933 21.4645C23.6994 20.8611 22.9895 20.335 21.7395 19.6543C20.7519 19.1127 20.3661 18.8961 20.1809 18.7724C20.0883 18.7105 19.9957 18.6641 19.9648 18.6641C19.9339 18.6641 19.9031 18.7414 19.8722 18.8188C19.6562 19.6079 19.7488 20.4433 20.15 21.3252C20.3661 21.7739 20.5667 22.0988 21.4154 23.3366C22.1253 24.4042 22.4803 25.0385 22.65 25.5646C22.9278 26.4155 22.8815 27.1736 22.5111 27.9627C22.4185 28.1484 22.3568 28.3031 22.3723 28.3031C22.3877 28.3031 22.5266 28.2412 22.6963 28.1484C23.8229 27.5449 24.5945 26.4929 24.934 25.1778C25.0421 24.76 25.0883 23.7543 25.0112 23.3366C24.8877 22.5939 24.6254 21.9905 24.1933 21.4645Z" fill="#F4F4F4"/>
<path fill-rule="evenodd" clip-rule="evenodd" d="M20.103 29.8657C19.285 30.1751 18.4517 30.1596 17.9733 29.8038C17.6647 29.5717 17.4178 29.1385 17.2943 28.5815C17.2789 28.4887 17.2017 28.0555 17.14 27.6377C16.9702 26.5702 16.8005 26.0905 16.4301 25.5335C16.0443 24.9611 15.3035 24.4969 14.4856 24.2803C13.9764 24.1411 13.0504 24.1101 12.4948 24.203C11.1985 24.4196 9.7942 25.1003 8.65222 26.0596L8.32812 26.369L8.62135 26.4155C10.1646 26.6475 10.5812 26.8641 11.6615 27.9781C12.2788 28.6125 12.4948 28.7517 13.0041 28.891C13.7603 29.0921 14.5011 28.7362 14.7634 28.0555C14.8714 27.7461 14.856 27.2509 14.7325 27.0034C14.4239 26.4 13.5134 26.2143 13.0813 26.6475C12.7263 27.0034 12.8343 27.5604 13.2819 27.6532C13.3745 27.6687 13.3745 27.6687 13.251 27.6068C13.0504 27.514 12.9578 27.3902 12.9578 27.189C12.9424 26.7094 13.4825 26.4619 13.9764 26.6785C14.3467 26.8487 14.4856 27.0653 14.4856 27.4366C14.4856 28.0091 13.9918 28.4577 13.4208 28.3804C13.1121 28.334 12.7418 28.1483 12.5412 27.9162C12.0473 27.3592 12.2325 26.4464 12.9424 26.106C13.4825 25.843 14.1924 25.9203 14.748 26.2762C15.3807 26.6939 15.6585 27.0653 16.1986 28.3185C16.3838 28.7362 16.5998 29.1849 16.7079 29.3397C17.2171 30.1132 17.8498 30.5 18.5906 30.5C19.0073 30.5 19.3159 30.4382 19.7017 30.237C19.9795 30.0978 20.3962 29.8193 20.3653 29.7883C20.3653 29.7729 20.2419 29.8193 20.103 29.8657Z" fill="#F4F4F4"/>
<path fill-rule="evenodd" clip-rule="evenodd" d="M8.48277 25.1158C8.85315 24.7136 8.94576 24.497 8.94576 23.94C8.94576 23.5841 8.93031 23.5067 8.83773 23.2901C8.68341 22.9498 8.39019 22.6713 7.75746 22.238C6.92412 21.6656 6.56919 21.2014 6.47658 20.5826C6.39942 20.0565 6.49203 19.7007 6.95499 18.7259C7.4334 17.7202 7.55685 17.3025 7.63401 16.2814C7.6803 15.6316 7.75746 15.3685 7.94265 15.1674C8.14326 14.9508 8.31303 14.8734 8.79144 14.8115C9.57849 14.7032 10.0877 14.5021 10.489 14.1153C10.8439 13.7904 10.9982 13.4655 11.0137 12.9858L11.0291 12.63L10.8285 12.4134C10.1032 11.5779 0.056749 0.5 0.0104521 0.5C-0.00498024 0.5 0.241937 0.793967 0.53515 1.16529C4.13087 5.54385 9.67107 12.3515 9.94884 12.7228C10.1803 13.0323 10.0877 13.3262 9.70194 13.5428C9.48588 13.6666 9.03834 13.7904 8.82228 13.7904C8.57538 13.7904 8.28216 13.6666 8.08155 13.4655C7.94265 13.3262 7.34079 12.4443 5.98275 10.3247C4.94879 8.70013 4.06913 7.35405 4.05371 7.3386C3.99197 7.30764 3.99197 7.30764 5.87472 10.6805C7.06302 12.8002 7.44882 13.5583 7.44882 13.6511C7.44882 13.8523 7.38708 13.9606 7.14018 14.2391C6.72351 14.7032 6.53832 15.2293 6.39942 16.3278C6.2451 17.5501 5.82842 18.4165 4.64015 19.8863C3.94568 20.7527 3.83765 20.9075 3.66791 21.2633C3.45185 21.6965 3.39011 21.9441 3.35927 22.5011C3.3284 23.089 3.39011 23.4603 3.55988 24.0173C3.7142 24.5124 3.88397 24.8373 4.30064 25.4717C4.65557 26.0287 4.87163 26.4464 4.87163 26.6011C4.87163 26.7249 4.9025 26.7249 5.45804 26.6011C6.78522 26.2917 7.88094 25.7657 8.48277 25.1158ZM5.27285 23.1664C5.11853 23.4449 4.82534 23.5377 4.60928 23.3675C4.47038 23.2592 4.47038 23.1045 4.57841 22.9343C4.68644 22.7641 4.67099 22.6867 4.53212 22.6094C4.43951 22.5784 4.40864 22.5165 4.40864 22.4547C4.40864 22.2226 4.80989 22.1452 5.07224 22.3154C5.35001 22.5011 5.44262 22.8724 5.27285 23.1664Z" fill="#F4F4F4"/>
<path fill-rule="evenodd" clip-rule="evenodd" d="M13.1743 16.235C13.2514 15.8637 12.9273 15.3531 12.4798 15.121C12.2483 14.9972 11.7699 14.9508 11.523 15.0282C11.1526 15.1365 10.7977 15.5388 10.6897 15.941C10.6279 16.1886 10.6588 16.6373 10.7668 16.7765C10.9366 16.9931 11.0909 17.055 11.523 17.055C12.3718 17.055 13.0971 16.6837 13.1743 16.235ZM12.5107 15.8018C12.4181 15.9255 12.1403 16.0493 11.9397 16.0493C11.631 16.0493 11.307 15.8327 11.307 15.6316C11.307 15.2293 11.9397 15.0127 12.3564 15.2757C12.5878 15.415 12.6342 15.6161 12.5107 15.8018Z" fill="#F4F4F4"/>
</svg>
