<svg width="342" height="350" viewBox="0 0 342 350" fill="none" xmlns="http://www.w3.org/2000/svg">
<path d="M0 350L52.2446 343.712C50.3518 343.784 48.467 343.552 46.6063 343.03C43.5986 342.188 40.6471 340.568 37.7598 338.154C33.4048 334.521 29.2101 329.059 25.2962 321.624C19.4574 310.572 14.204 295.205 9.95326 275.122C6.55263 259.097 3.24022 245.118 0.00801896 232.967L0.00802035 350L0 350Z" fill="#F08A85"/>
<path d="M52.2446 343.712L54.6026 343.423C40.3344 339.413 18.9602 317.621 9.94531 275.121C18.9602 317.621 32.3381 339.028 46.6063 343.03C48.4751 343.551 50.3518 343.784 52.2446 343.712Z" fill="#EC6B6B"/>
<path d="M46.6063 343.031L48.4108 342.758L74.9502 260.533L105.604 255.168C106.005 253.443 106.398 251.695 106.775 249.922C118.605 194.911 134.253 167.032 153.181 159.814C177.041 150.719 206.123 174.459 239.407 218.089C245.102 225.564 250.772 228.909 256.354 228.821L256.98 228.708C261.8 13.0653 92.3624 17.5887 -3.64902e-06 37.0301L-1.3124e-06 232.975C3.24022 245.126 6.55263 259.106 9.94523 275.13C18.9601 317.622 32.3381 339.028 46.6063 343.031Z" fill="#B8212B"/>
<path d="M105.243 256.715C105.355 256.194 105.492 255.689 105.604 255.167C106.005 253.443 106.398 251.695 106.775 249.922C116.287 205.658 128.277 178.966 142.465 166.47C145.906 163.423 149.475 161.225 153.181 159.822C156.87 158.418 160.688 157.8 164.618 157.913L164.658 157.913C164.842 157.913 165.051 157.929 165.235 157.945C165.484 157.945 165.716 157.961 165.957 157.985C166.591 158.025 167.24 158.089 167.898 158.169C168.155 158.201 168.403 158.242 168.668 158.282C170.055 158.482 171.475 158.787 172.903 159.18C173.32 159.292 173.745 159.412 174.162 159.541C174.579 159.669 175.012 159.797 175.437 159.942C182.014 162.139 188.887 166.101 196.041 171.611C196.418 171.9 196.811 172.205 197.196 172.51C197.734 172.927 198.263 173.36 198.8 173.793C199.049 173.993 199.274 174.186 199.522 174.403C200.22 174.964 200.926 175.573 201.632 176.183C201.704 176.255 201.792 176.327 201.88 176.4C202.658 177.081 203.46 177.771 204.254 178.493C207.029 180.995 209.836 183.714 212.684 186.634C213.333 187.299 213.983 187.965 214.633 188.655C216.036 190.114 217.456 191.63 218.867 193.21C219.228 193.603 219.589 193.988 219.934 194.381C220.239 194.71 220.528 195.047 220.832 195.392C224.939 200.003 229.117 205.008 233.384 210.358C233.978 211.096 234.571 211.85 235.149 212.595C235.686 213.277 236.231 213.967 236.769 214.665C237.651 215.796 238.517 216.918 239.399 218.081C240.137 219.052 240.875 219.95 241.629 220.768C241.918 221.113 242.223 221.45 242.527 221.763C242.776 222.019 243.017 222.268 243.281 222.517C243.554 222.805 243.835 223.07 244.107 223.311C244.164 223.383 244.212 223.423 244.268 223.455C244.484 223.672 244.717 223.872 244.95 224.065C245.222 224.313 245.503 224.546 245.776 224.762C246.008 224.939 246.257 225.123 246.481 225.284C246.714 225.468 246.963 225.629 247.187 225.789C247.46 225.989 247.749 226.166 248.029 226.342C248.511 226.647 248.984 226.904 249.457 227.136C249.706 227.265 249.946 227.385 250.179 227.481C250.484 227.626 250.788 227.738 251.093 227.858C252.441 228.379 253.78 228.668 255.095 228.772C255.44 228.805 255.793 228.813 256.138 228.813L256.354 228.813C268.369 228.628 280.865 212.114 292.51 186.962C315.039 138.255 334.401 57.2172 341.146 -4.06812e-06L-4.09888e-06 0L-1.32078e-06 232.967C3.24022 245.118 6.55263 259.097 9.94523 275.122C18.9601 317.622 32.3381 339.028 46.6063 343.03C67.9484 349.006 91.3197 316.13 105.243 256.715Z" fill="#E63A39"/>
<path d="M239.96 218.787C245.31 216.157 251.646 208.706 258.864 195.039C266.107 181.316 274.239 161.33 283.19 133.635C305.92 63.2406 311.951 19.4495 313.659 0.000151252L269.211 0.000151782L212.627 177.041L210.325 184.228L204.125 203.621L201.623 211.441L207.638 205.842L219.942 194.389L219.958 194.373L220.856 193.531C220.856 193.531 221.161 194.646 221.77 196.411C222.043 197.221 222.396 198.159 222.797 199.186C225.628 206.476 226.358 219.116 235.004 219.838C236.552 219.966 238.212 219.621 239.976 218.771L239.96 218.787Z" fill="#F1F0E3"/>
<path d="M207.631 205.858C211.649 207.446 219.284 203.324 219.517 203.051C220.616 201.736 221.827 200.044 223.15 198.022C225.003 195.175 227.056 191.686 229.205 187.668C234.892 177.097 241.308 162.885 246.93 147.35C273.782 73.1536 280.231 22.874 281.538 0.00796374L235.405 0.00796429L183.217 163.286L168.451 209.475L190.692 189.994L194.974 186.249C194.974 186.249 197.894 198.063 204.118 203.629C205.184 204.599 206.355 205.377 207.631 205.858Z" fill="#E63A39"/>
<path d="M128.879 237.539C128.879 237.539 158.819 249.762 190.692 189.994C193.395 184.934 196.097 179.552 198.8 173.809L198.8 173.793C199.45 172.422 200.084 171.018 200.741 169.599C204.615 161.097 208.465 151.842 212.226 141.816C237.956 73.218 244.933 24.2618 246.77 0.000242735L195.664 0.000243344L142.465 166.455L129.986 205.474L129.015 233.673L128.879 237.531L128.879 237.539Z" fill="#F1F0E3"/>
<path d="M96.1641 262.514C96.1641 262.514 98.9231 257.982 104.618 253.732C110.488 249.352 119.431 245.078 129.015 233.681C142.289 217.905 157.969 194.188 172.903 159.18C173.007 158.947 173.087 158.73 173.192 158.498C175.606 152.803 178.004 146.812 180.378 140.492C205.642 73.1052 212.844 24.7024 214.841 0.00771953L171.371 0.00772005L106.109 204.166L103.422 219.926L96.1641 262.514Z" fill="#E63A39"/>
<path d="M62.3418 259.201C62.3418 259.201 80.5319 250.884 103.422 219.926C117.089 201.447 132.432 174.883 146.555 137.18C170.737 72.6962 178.372 25.5846 180.73 0.00771954L136.498 0.00772006L72.295 200.837L62.3498 259.201L62.3418 259.201Z" fill="#F1F0E3"/>
<path d="M0 225.38L86.8764 204.166C124.011 139.827 152.138 30.4053 149.884 0.00813115L-2.68753e-06 0.00813293L0 225.38Z" fill="#1B3257"/>
<path d="M122.222 18.5746L127.034 20.1546L125.358 15.3664L128.35 11.2761L123.289 11.3883L120.321 7.28191L118.861 12.1342L114.033 13.6902L118.204 16.5775L118.188 21.6464L122.222 18.5746Z" fill="#F1F0E3"/>
<path d="M116.977 50.2229L121.797 51.8109L120.121 47.0228L123.112 42.9324L118.043 43.0447L115.076 38.9383L113.624 43.7906L108.796 45.3385L112.958 48.2258L112.942 53.2947L116.977 50.2229Z" fill="#F1F0E3"/>
<path d="M109.029 80.444L113.528 82.7779L112.646 77.7812L116.255 74.2282L111.234 73.5224L108.973 68.9909L106.751 73.5465L101.738 74.3004L105.388 77.8214L104.553 82.826L109.029 80.444Z" fill="#F1F0E3"/>
<path d="M99.1635 111.74L103.799 113.785L102.604 108.86L105.989 105.083L100.928 104.698L98.3856 100.319L96.4527 105.003L91.4961 106.069L95.3619 109.358L94.8486 114.394L99.1635 111.74Z" fill="#F1F0E3"/>
<path d="M89.9238 141.079L94.5435 143.172L93.3966 138.231L96.8133 134.486L91.7605 134.053L89.2501 129.65L87.2771 134.317L82.3125 135.344L86.1462 138.664L85.5848 143.701L89.9238 141.079Z" fill="#F1F0E3"/>
<path d="M41.265 184.629L45.8687 186.746L44.7458 181.806L48.1785 178.076L43.1337 177.619L40.6474 173.2L38.6503 177.86L33.6777 178.854L37.4954 182.199L36.9099 187.228L41.265 184.629Z" fill="#F1F0E3"/>
<path d="M86.5073 28.5436L91.3195 30.1477L89.6673 25.3515L92.6829 21.2771L87.6141 21.3654L84.6706 17.2429L83.1869 22.0872L78.3506 23.611L82.5051 26.5224L82.457 31.5913L86.5073 28.5436Z" fill="#F1F0E3"/>
<path d="M81.1178 59.7921L85.922 61.3962L84.2698 56.6L87.2855 52.5257L82.2166 52.6139L79.2732 48.4914L77.7894 53.3357L72.9531 54.8596L77.1077 57.771L77.0676 62.8398L81.1178 59.7921Z" fill="#F1F0E3"/>
<path d="M72.9772 91.4078L77.4605 93.7657L76.6024 88.7691L80.2356 85.2321L75.2148 84.5023L72.9772 79.9547L70.7315 84.5023L65.7187 85.2321L69.3439 88.7691L68.4858 93.7657L72.9772 91.4078Z" fill="#F1F0E3"/>
<path d="M62.9516 122.383L67.5793 124.452L66.4083 119.52L69.809 115.766L64.7561 115.349L62.2378 110.954L60.2808 115.63L55.3242 116.673L59.166 119.977L58.6206 125.022L62.9516 122.383Z" fill="#F1F0E3"/>
<path d="M53.5197 153.557L58.1314 155.666L57.0085 150.726L60.4412 146.996L55.3884 146.539L52.9101 142.12L50.913 146.78L45.9404 147.774L49.7581 151.119L49.1726 156.148L53.5197 153.557Z" fill="#F1F0E3"/>
<path d="M28.4968 19.7138L33.277 21.39L31.697 16.5698L34.7607 12.5356L29.6919 12.5596L26.8045 8.38904L25.2566 13.2173L20.4043 14.677L24.5107 17.6445L24.4065 22.7134L28.4968 19.7138Z" fill="#F1F0E3"/>
<path d="M22.698 50.6244L27.4781 52.2926L25.8981 47.4804L28.9619 43.4462L23.893 43.4622L21.0057 39.2997L19.4578 44.1279L14.6055 45.5876L18.7199 48.5552L18.6076 53.624L22.698 50.6244Z" fill="#F1F0E3"/>
<path d="M14.1479 81.864L18.5992 84.2861L17.8132 79.2814L21.4866 75.7846L16.4819 74.9905L14.3003 70.4189L11.9985 74.9344L6.96973 75.5921L10.5548 79.1771L9.63248 84.1658L14.1479 81.864Z" fill="#F1F0E3"/>
<path d="M3.72946 112.437L8.31711 114.578L7.21832 109.63L10.6751 105.916L5.62227 105.443L3.152 101L1.13889 105.66L-1.04536e-07 105.884L0 114.65L3.72946 112.437Z" fill="#F1F0E3"/>
<path d="M78.7438 169.727L83.1871 172.173L82.4171 167.16L86.1145 163.688L81.1098 162.869L78.9443 158.282L76.6264 162.789L71.5977 163.423L75.1587 167.024L74.2123 172.005L78.7438 169.727Z" fill="#F1F0E3"/>
<path d="M59.8311 12.0709L64.6434 13.6589L62.9751 8.87075L65.9667 4.78037L60.9059 4.89264L57.9383 0.778195L56.4786 5.63052L51.6504 7.17844L55.8129 10.0658L55.7969 15.1346L59.8311 12.0709Z" fill="#F1F0E3"/>
<path d="M54.5938 42.2676L59.4061 43.8557L57.7378 39.0675L60.7294 34.9771L55.6686 35.0894L52.701 30.975L51.2413 35.8273L46.4131 37.3752L50.5757 40.2626L50.5596 45.3314L54.5938 42.2676Z" fill="#F1F0E3"/>
<path d="M5.55008 195.745L10.1939 197.774L8.98279 192.857L12.3513 189.064L7.2905 188.703L4.71597 184.324L2.80712 189.023L-1.04632e-07 189.649L-7.75655e-08 191.919L1.7324 193.379L1.24315 198.423L5.55008 195.745Z" fill="#F1F0E3"/>
<path d="M3.65728 32.4424L2.44621 27.5099L5.81475 23.7243L0.753913 23.3633L-1.23665e-07 22.0721L-1.89372e-08 30.8543L3.65728 32.4424Z" fill="#F1F0E3"/>
<path d="M46.6147 72.8485L51.1061 75.1824L50.2319 70.1938L53.8411 66.6408L48.8283 65.9269L46.5586 61.3955L44.3369 65.951L39.3242 66.6969L42.9735 70.2259L42.1313 75.2225L46.6147 72.8485Z" fill="#F1F0E3"/>
<path d="M36.7413 102.788L41.377 104.842L40.19 99.9171L43.5746 96.1395L38.5218 95.7545L35.9793 91.3674L34.0464 96.0513L29.0898 97.118L32.9476 100.406L32.4263 105.443L36.7413 102.788Z" fill="#F1F0E3"/>
<path d="M27.4695 132.929L32.0892 135.022L30.9423 130.082L34.359 126.344L29.3062 125.903L26.8038 121.5L24.8308 126.168L19.8662 127.187L23.6919 130.507L23.1305 135.544L27.4695 132.929Z" fill="#F1F0E3"/>
<path d="M16.225 163.191L20.6683 165.637L19.9064 160.624L23.6038 157.159L18.5991 156.333L16.4416 151.745L14.1157 156.245L9.08691 156.878L12.648 160.488L11.6935 165.468L16.225 163.191Z" fill="#F1F0E3"/>
<path d="M52.2444 343.711C56.1663 343.583 60.1284 342.204 64.0583 339.645C65.6464 338.619 67.2424 337.391 68.8144 335.956C83.0425 323.171 96.4365 295.028 105.604 255.167C106.005 253.442 106.398 251.694 106.775 249.921C118.605 194.91 134.252 167.031 153.18 159.813C153.197 159.757 153.197 159.725 153.197 159.725L129.264 164.745L102.556 170.36L67.0419 177.811L51.9476 180.979L40.278 183.441L18.198 188.069L5.34134 190.771L0.00781069 191.886L0.00781118 232.982C3.24803 245.133 6.56044 259.113 9.95305 275.137C11.124 280.663 12.3672 285.837 13.6825 290.657C14.5647 293.881 15.4791 296.945 16.4174 299.872C18.1097 305.198 19.9063 309.978 21.767 314.293C21.8552 314.477 21.9435 314.686 22.0397 314.902C23.0984 317.316 24.1812 319.562 25.296 321.655C27.0204 324.936 28.7929 327.815 30.6215 330.334C30.7659 330.518 30.8942 330.71 31.0225 330.887C33.204 333.854 35.4658 336.285 37.7596 338.193C40.6389 340.608 43.5984 342.228 46.6061 343.07C48.4748 343.591 50.3516 343.824 52.2444 343.752L52.2444 343.711Z" fill="#EA5A5B"/>
<path d="M37.7592 338.154C38.2805 337.825 38.7858 337.448 39.2911 337.055C42.8521 334.304 46.2929 330.487 49.5411 325.675C60.144 310.043 68.9022 283.873 73.947 249.521C74.2197 247.773 74.4684 245.992 74.7009 244.188C81.815 190.564 89.7872 177.916 102.556 170.352L67.0415 177.803C59.4222 187.676 52.1317 209.195 51.2815 239.231C51.2414 241.052 51.065 242.848 51.081 244.613C51.3136 277.063 46.5415 300.242 39.7563 315.489C36.9812 321.737 33.8693 326.637 30.6211 330.31C30.7655 330.495 30.8938 330.687 31.0221 330.864C33.2036 333.831 35.4654 336.261 37.7592 338.17L37.7592 338.154Z" fill="#F1F0E3"/>
<path d="M22.0391 314.871C23.8918 309.321 25.4958 303.057 26.7711 296.015C29.113 283.158 30.3883 267.687 30.0995 249.16C29.5221 211.777 33.7007 193.844 40.2774 183.425L18.1973 188.053C12.5991 199.001 10.7945 217.408 13.714 245.278C14.7245 255.055 16.6815 265.594 17.3552 276.879C17.7883 284.241 17.676 291.901 16.4168 299.857C18.1091 305.182 19.9057 309.962 21.7664 314.277C21.8546 314.462 21.9428 314.67 22.0391 314.887L22.0391 314.871Z" fill="#F1F0E3"/>
<path d="M51.5709 343.729L51.587 343.729C51.8196 343.729 52.0201 343.729 52.2527 343.713C72.1672 343.047 92.9319 310.324 105.612 255.168C106.013 253.444 106.406 251.695 106.783 249.923C118.613 194.911 134.261 167.032 153.189 159.814C153.205 159.758 153.205 159.726 153.205 159.726L129.272 164.747C115.405 180.643 103.663 208.057 97.5035 241.301C87.5582 295.005 80.0352 326.854 61.468 340.112C57.2493 343.119 49.9107 343.159 43.3661 340.849C41.353 340.144 39.4361 339.213 37.6797 338.09C40.5831 340.553 43.5827 342.181 46.6144 343.039C46.7988 343.095 47.0154 343.143 47.264 343.199C48.6916 343.56 50.1273 343.737 51.5709 343.737L51.5709 343.729Z" fill="#E63A39"/>
<path d="M105.604 255.167L119.816 252.681L134.621 250.09L138.262 249.457L158.073 245.984L162.572 245.206L177.514 242.599L213.822 236.247L218.41 235.453L256.354 228.812C250.772 228.901 245.101 225.556 239.407 218.081C211.264 181.196 186.136 158.53 164.617 157.897C160.687 157.784 156.87 158.402 153.18 159.805C143.508 163.495 134.685 172.574 126.793 187.933C124.7 192.023 122.655 196.563 120.69 201.567C120.313 202.506 119.936 203.476 119.575 204.463C119.575 204.463 119.575 204.479 119.559 204.479C118.893 206.275 118.228 208.12 117.562 210.029C116.856 212.114 116.142 214.248 115.436 216.477C115.043 217.72 114.667 218.98 114.282 220.263C113.022 224.473 111.795 228.909 110.608 233.585C109.293 238.734 108.018 244.171 106.774 249.914C106.398 251.695 106.005 253.443 105.604 255.159L105.604 255.167Z" fill="#87191D"/>
<path d="M256.145 228.82L256.362 228.82C268.376 228.635 280.872 212.121 292.517 186.969C284.393 191.02 272.619 195.198 258.864 195.038C251.646 208.705 245.318 216.147 239.96 218.786C240.513 219.492 241.075 220.158 241.636 220.783C241.925 221.128 242.23 221.465 242.534 221.778C242.783 222.034 243.024 222.283 243.288 222.532C243.561 222.82 243.842 223.085 244.114 223.326C244.171 223.398 244.219 223.438 244.275 223.47C244.491 223.687 244.724 223.887 244.957 224.08C245.229 224.328 245.51 224.561 245.783 224.777C246.015 224.954 246.264 225.138 246.489 225.299C246.721 225.483 246.97 225.644 247.194 225.804C247.467 226.004 247.756 226.181 248.036 226.357C248.518 226.662 248.991 226.919 249.464 227.151C249.713 227.28 249.953 227.4 250.186 227.496C250.491 227.641 250.795 227.753 251.1 227.873C252.448 228.395 253.787 228.683 255.102 228.788C255.447 228.82 255.8 228.828 256.145 228.828L256.145 228.82Z" fill="#B8212B"/>
<path d="M198.808 173.809L198.808 173.793C199.458 172.422 200.091 171.018 200.749 169.599C188.847 162.757 179.824 159.677 173.199 158.49C173.095 158.723 173.014 158.94 172.91 159.172C173.327 159.276 173.752 159.405 174.169 159.533C174.586 159.645 175.011 159.79 175.445 159.934C182.021 162.132 188.895 166.094 196.049 171.604C196.426 171.892 196.819 172.197 197.204 172.502C197.741 172.935 198.271 173.352 198.808 173.801L198.808 173.809Z" fill="#E1DBBC"/>
<path d="M172.911 159.18C173.015 158.948 173.095 158.731 173.2 158.498C169.711 157.865 166.896 157.761 164.666 157.905C164.85 157.921 165.059 157.921 165.243 157.937C165.492 157.953 165.725 157.969 165.965 157.977C166.599 158.017 167.249 158.081 167.906 158.162C168.163 158.194 168.412 158.234 168.676 158.274C170.064 158.474 171.483 158.779 172.911 159.172L172.911 159.18Z" fill="#B8212B"/>
<path d="M239.961 218.786C245.311 216.156 251.647 208.705 258.865 195.038C249.698 194.95 239.648 192.945 229.206 187.66C227.048 191.678 224.995 195.167 223.15 198.014C226.519 201.888 229.936 206.01 233.4 210.365C233.994 211.103 234.571 211.841 235.165 212.603C235.702 213.285 236.248 213.974 236.785 214.672C237.667 215.803 238.533 216.926 239.416 218.089C239.592 218.321 239.777 218.554 239.969 218.786L239.961 218.786Z" fill="#E1DBBC"/>
<path d="M221.754 196.426C221.449 196.081 221.145 195.728 220.84 195.4C220.535 195.071 220.246 194.734 219.925 194.405C219.581 194.004 219.22 193.611 218.867 193.218C217.447 191.638 216.036 190.122 214.632 188.662C213.982 187.965 213.333 187.307 212.683 186.641C211.889 185.831 211.095 185.021 210.309 184.243C208.272 182.222 206.243 180.313 204.254 178.501C203.46 177.779 202.666 177.081 201.88 176.407C201.791 176.335 201.703 176.263 201.631 176.191C200.925 175.581 200.211 174.988 199.522 174.41C199.273 174.21 199.04 174.009 198.8 173.817L198.8 173.801C199.449 172.429 200.083 171.026 200.741 169.606C204.414 171.715 208.376 174.178 212.611 177.057C214.415 178.284 216.268 179.591 218.177 180.963C221.882 183.642 225.564 185.847 229.197 187.676C227.039 191.694 224.986 195.183 223.142 198.03C222.676 197.493 222.219 196.964 221.754 196.442L221.754 196.426Z" fill="#B8212B"/>
<path d="M177.522 242.6L213.83 236.248L218.417 235.454C195.199 225.597 183.705 182.271 163.366 172.318C150.469 166.006 135.904 177.916 126.793 187.933C124.7 192.024 122.654 196.563 120.689 201.568C131.814 188.19 148.095 173.978 154.744 195.088C162.596 219.991 171.073 234.419 177.522 242.592L177.522 242.6Z" fill="#B8212B"/>
<path d="M134.629 250.09L138.27 249.457L158.081 245.984C143.821 236.279 140.091 199.955 129.985 199.522C126.136 199.361 122.462 201.535 119.575 204.47C119.575 204.47 119.575 204.486 119.559 204.486C118.893 206.283 118.228 208.128 117.562 210.037C116.856 212.122 116.142 214.255 115.437 216.485C117.442 209.13 122.077 206.155 122.911 211.344C127.828 242.126 131.373 244.885 134.629 250.09Z" fill="#B8212B"/>
<path d="M105.604 255.167L117.161 253.01C113.127 248.31 110.969 240.41 110.608 233.585C109.293 238.734 108.018 244.171 106.774 249.914C106.398 251.695 106.005 253.443 105.604 255.159L105.604 255.167Z" fill="#B8212B"/>
<path d="M30.613 330.303C33.8693 326.63 36.9732 321.729 39.7482 315.482C35.0082 309.683 30.6852 303.058 26.7633 296.016C25.488 303.058 23.884 309.322 22.0312 314.872C23.0899 317.286 24.1727 319.532 25.2875 321.625C27.0119 324.906 28.7844 327.785 30.613 330.303Z" fill="#E74040"/>
<path d="M16.4096 299.849C17.6688 291.893 17.7811 284.233 17.348 276.871C8.84645 257.421 3.07981 237.868 -8.78182e-07 226.214L-7.97652e-07 232.967C3.24022 245.118 6.55263 259.098 9.94523 275.122C11.1162 280.648 12.3594 285.821 13.6747 290.642C14.5569 293.866 15.4713 296.93 16.4096 299.857L16.4096 299.849Z" fill="#E74040"/>
<path d="M22.0402 314.871C23.8929 309.321 25.497 303.057 26.7722 296.015C23.3155 289.84 20.1795 283.359 17.3563 276.871C17.7894 284.234 17.6772 291.893 16.418 299.849C18.1103 305.175 19.9068 309.955 21.7675 314.27C21.8558 314.454 21.944 314.663 22.0402 314.879L22.0402 314.871Z" fill="#DED7B2"/>
<path d="M52.2445 343.712C56.1665 343.583 60.1285 342.204 64.0585 339.645C65.6465 338.619 67.2426 337.391 68.8146 335.956C61.877 334.392 55.4527 330.751 49.5417 325.674C46.2854 330.486 42.8447 334.304 39.2917 337.055C38.7864 337.448 38.2811 337.825 37.7598 338.153C40.6391 340.568 43.5986 342.188 46.6062 343.03C48.475 343.551 50.3517 343.784 52.2445 343.712Z" fill="#E74040"/>
<path d="M37.7594 338.154C38.2807 337.825 38.786 337.448 39.2913 337.055C42.8523 334.304 46.2931 330.486 49.5413 325.674C46.1006 322.723 42.8283 319.282 39.7485 315.48C36.9734 321.728 33.8615 326.628 30.6133 330.302C30.7576 330.486 30.886 330.679 31.0143 330.855C33.1958 333.823 35.4576 336.253 37.7514 338.162L37.7594 338.154Z" fill="#DED7B2"/>
</svg>
