<svg width="342" height="350" viewBox="0 0 342 350" fill="none" xmlns="http://www.w3.org/2000/svg">
<path d="M342 350L289.755 343.712C291.648 343.784 293.533 343.552 295.394 343.03C298.401 342.188 301.353 340.568 304.24 338.154C308.595 334.521 312.79 329.059 316.704 321.624C322.543 310.572 327.796 295.205 332.047 275.122C335.447 259.097 338.76 245.118 341.992 232.967L341.992 350L342 350Z" fill="#F08A85"/>
<path d="M289.755 343.712L287.397 343.423C301.666 339.413 323.04 317.621 332.055 275.121C323.04 317.621 309.662 339.028 295.394 343.03C293.525 343.551 291.648 343.784 289.755 343.712Z" fill="#EC6B6B"/>
<path d="M295.394 343.031L293.589 342.758L267.05 260.533L236.396 255.168C235.995 253.443 235.602 251.695 235.225 249.922C223.395 194.911 207.747 167.032 188.819 159.814C164.959 150.719 135.877 174.459 102.593 218.089C96.8981 225.564 91.2277 228.909 85.6455 228.821L85.02 228.708C80.1997 13.0653 249.638 17.5887 342 37.0301L342 232.975C338.76 245.126 335.447 259.106 332.055 275.13C323.04 317.622 309.662 339.028 295.394 343.031Z" fill="#B8212B"/>
<path d="M236.757 256.715C236.645 256.194 236.508 255.689 236.396 255.167C235.995 253.443 235.602 251.695 235.225 249.922C225.713 205.658 213.723 178.966 199.535 166.47C196.094 163.423 192.525 161.225 188.819 159.822C185.13 158.418 181.312 157.8 177.382 157.913L177.342 157.913C177.158 157.913 176.949 157.929 176.765 157.945C176.516 157.945 176.284 157.961 176.043 157.985C175.409 158.025 174.76 158.089 174.102 158.169C173.845 158.201 173.597 158.242 173.332 158.282C171.945 158.482 170.525 158.787 169.097 159.18C168.68 159.292 168.255 159.412 167.838 159.541C167.421 159.669 166.988 159.797 166.563 159.942C159.986 162.139 153.113 166.101 145.959 171.611C145.582 171.9 145.189 172.205 144.804 172.51C144.266 172.927 143.737 173.36 143.2 173.793C142.951 173.993 142.726 174.186 142.478 174.403C141.78 174.964 141.074 175.573 140.368 176.183C140.296 176.255 140.208 176.327 140.12 176.4C139.342 177.081 138.54 177.771 137.746 178.493C134.971 180.995 132.164 183.714 129.316 186.634C128.667 187.299 128.017 187.965 127.367 188.655C125.964 190.114 124.544 191.63 123.133 193.21C122.772 193.603 122.411 193.988 122.066 194.381C121.761 194.71 121.472 195.047 121.168 195.392C117.061 200.003 112.883 205.008 108.616 210.358C108.022 211.096 107.429 211.85 106.851 212.595C106.314 213.277 105.769 213.967 105.231 214.665C104.349 215.796 103.483 216.918 102.601 218.081C101.863 219.052 101.125 219.95 100.371 220.768C100.082 221.113 99.7774 221.45 99.4726 221.763C99.224 222.019 98.9834 222.268 98.7187 222.517C98.446 222.805 98.1653 223.07 97.8926 223.311C97.8365 223.383 97.7883 223.423 97.7322 223.455C97.5156 223.672 97.2831 223.872 97.0505 224.065C96.7778 224.313 96.4971 224.546 96.2244 224.762C95.9918 224.939 95.7431 225.123 95.5186 225.284C95.286 225.468 95.0373 225.629 94.8128 225.789C94.5401 225.989 94.2514 226.166 93.9706 226.342C93.4894 226.647 93.0162 226.904 92.543 227.136C92.2944 227.265 92.0538 227.385 91.8212 227.481C91.5164 227.626 91.2116 227.738 90.9069 227.858C89.5594 228.379 88.2201 228.668 86.9047 228.772C86.5598 228.805 86.207 228.813 85.8621 228.813L85.6455 228.813C73.631 228.628 61.1353 212.114 49.4898 186.962C26.9606 138.255 7.59949 57.2172 0.854374 -4.06812e-06L342 0L342 232.967C338.76 245.118 335.447 259.097 332.055 275.122C323.04 317.622 309.662 339.028 295.394 343.03C274.052 349.006 250.68 316.13 236.757 256.715Z" fill="#E63A39"/>
<path d="M102.04 218.787C96.6901 216.157 90.354 208.706 83.1357 195.039C75.8933 181.316 67.7607 161.33 58.81 133.635C36.0803 63.2406 30.049 19.4495 28.3407 0.000151252L72.7895 0.000151782L129.373 177.041L131.675 184.228L137.875 203.621L140.377 211.441L134.362 205.842L122.058 194.389L122.042 194.373L121.144 193.531C121.144 193.531 120.839 194.646 120.23 196.411C119.957 197.221 119.604 198.159 119.203 199.186C116.372 206.476 115.642 219.116 106.996 219.838C105.448 219.966 103.788 219.621 102.024 218.771L102.04 218.787Z" fill="#F1F0E3"/>
<path d="M134.369 205.858C130.351 207.446 122.716 203.324 122.483 203.051C121.384 201.736 120.173 200.044 118.85 198.022C116.997 195.175 114.944 191.686 112.795 187.668C107.108 177.097 100.692 162.885 95.0697 147.35C68.2176 73.1536 61.7692 22.874 60.4619 0.00796374L106.595 0.00796429L158.783 163.286L173.549 209.475L151.308 189.994L147.026 186.249C147.026 186.249 144.106 198.063 137.882 203.629C136.816 204.599 135.645 205.377 134.369 205.858Z" fill="#E63A39"/>
<path d="M213.121 237.539C213.121 237.539 183.181 249.762 151.308 189.994C148.605 184.934 145.903 179.552 143.2 173.809L143.2 173.793C142.55 172.422 141.916 171.018 141.259 169.599C137.385 161.097 133.535 151.842 129.774 141.816C104.044 73.218 97.0666 24.2618 95.23 0.000242735L146.336 0.000243344L199.535 166.455L212.014 205.474L212.985 233.673L213.121 237.531L213.121 237.539Z" fill="#F1F0E3"/>
<path d="M245.836 262.514C245.836 262.514 243.077 257.982 237.382 253.732C231.512 249.352 222.569 245.078 212.985 233.681C199.711 217.905 184.031 194.188 169.097 159.18C168.993 158.947 168.913 158.73 168.808 158.498C166.394 152.803 163.996 146.812 161.622 140.492C136.358 73.1052 129.156 24.7024 127.159 0.00771953L170.629 0.00772005L235.891 204.166L238.578 219.926L245.836 262.514Z" fill="#E63A39"/>
<path d="M279.658 259.201C279.658 259.201 261.468 250.884 238.578 219.926C224.911 201.447 209.568 174.883 195.445 137.18C171.263 72.6962 163.628 25.5846 161.27 0.00771954L205.502 0.00772006L269.705 200.837L279.65 259.201L279.658 259.201Z" fill="#F1F0E3"/>
<path d="M342 225.38L255.124 204.166C217.989 139.827 189.862 30.4053 192.116 0.00813115L342 0.00813293L342 225.38Z" fill="#1B3257"/>
<path d="M219.778 18.5746L214.966 20.1546L216.642 15.3664L213.65 11.2761L218.711 11.3883L221.679 7.28191L223.139 12.1342L227.967 13.6902L223.796 16.5775L223.812 21.6464L219.778 18.5746Z" fill="#F1F0E3"/>
<path d="M225.023 50.2229L220.203 51.8109L221.879 47.0228L218.888 42.9324L223.957 43.0447L226.924 38.9383L228.376 43.7906L233.204 45.3385L229.042 48.2258L229.058 53.2947L225.023 50.2229Z" fill="#F1F0E3"/>
<path d="M232.971 80.444L228.472 82.7779L229.354 77.7812L225.745 74.2282L230.766 73.5224L233.027 68.9909L235.249 73.5465L240.262 74.3004L236.612 77.8214L237.447 82.826L232.971 80.444Z" fill="#F1F0E3"/>
<path d="M242.836 111.74L238.201 113.785L239.396 108.86L236.011 105.083L241.072 104.698L243.614 100.319L245.547 105.003L250.504 106.069L246.638 109.358L247.151 114.394L242.836 111.74Z" fill="#F1F0E3"/>
<path d="M252.076 141.079L247.456 143.172L248.603 138.231L245.187 134.486L250.24 134.053L252.75 129.65L254.723 134.317L259.688 135.344L255.854 138.664L256.415 143.701L252.076 141.079Z" fill="#F1F0E3"/>
<path d="M300.735 184.629L296.131 186.746L297.254 181.806L293.821 178.076L298.866 177.619L301.353 173.2L303.35 177.86L308.322 178.854L304.505 182.199L305.09 187.228L300.735 184.629Z" fill="#F1F0E3"/>
<path d="M255.493 28.5436L250.681 30.1477L252.333 25.3515L249.317 21.2771L254.386 21.3654L257.329 17.2429L258.813 22.0872L263.649 23.611L259.495 26.5224L259.543 31.5913L255.493 28.5436Z" fill="#F1F0E3"/>
<path d="M260.882 59.7921L256.078 61.3962L257.73 56.6L254.715 52.5257L259.783 52.6139L262.727 48.4914L264.211 53.3357L269.047 54.8596L264.892 57.771L264.932 62.8398L260.882 59.7921Z" fill="#F1F0E3"/>
<path d="M269.023 91.4078L264.539 93.7657L265.398 88.7691L261.764 85.2321L266.785 84.5023L269.023 79.9547L271.269 84.5023L276.281 85.2321L272.656 88.7691L273.514 93.7657L269.023 91.4078Z" fill="#F1F0E3"/>
<path d="M279.048 122.383L274.421 124.452L275.592 119.52L272.191 115.766L277.244 115.349L279.762 110.954L281.719 115.63L286.676 116.673L282.834 119.977L283.379 125.022L279.048 122.383Z" fill="#F1F0E3"/>
<path d="M288.48 153.557L283.869 155.666L284.991 150.726L281.559 146.996L286.612 146.539L289.09 142.12L291.087 146.78L296.06 147.774L292.242 151.119L292.827 156.148L288.48 153.557Z" fill="#F1F0E3"/>
<path d="M313.503 19.7138L308.723 21.39L310.303 16.5698L307.239 12.5356L312.308 12.5596L315.195 8.38904L316.743 13.2173L321.596 14.677L317.489 17.6445L317.594 22.7134L313.503 19.7138Z" fill="#F1F0E3"/>
<path d="M319.302 50.6244L314.522 52.2926L316.102 47.4804L313.038 43.4462L318.107 43.4622L320.994 39.2997L322.542 44.1279L327.395 45.5876L323.28 48.5552L323.392 53.624L319.302 50.6244Z" fill="#F1F0E3"/>
<path d="M327.852 81.864L323.401 84.2861L324.187 79.2814L320.513 75.7846L325.518 74.9905L327.7 70.4189L330.002 74.9344L335.03 75.5921L331.445 79.1771L332.368 84.1658L327.852 81.864Z" fill="#F1F0E3"/>
<path d="M338.271 112.437L333.683 114.578L334.782 109.63L331.325 105.916L336.378 105.443L338.848 101L340.861 105.66L342 105.884L342 114.65L338.271 112.437Z" fill="#F1F0E3"/>
<path d="M263.256 169.727L258.813 172.173L259.583 167.16L255.886 163.688L260.89 162.869L263.056 158.282L265.374 162.789L270.402 163.423L266.841 167.024L267.788 172.005L263.256 169.727Z" fill="#F1F0E3"/>
<path d="M282.169 12.0709L277.357 13.6589L279.025 8.87075L276.033 4.78037L281.094 4.89264L284.062 0.778195L285.521 5.63052L290.35 7.17844L286.187 10.0658L286.203 15.1346L282.169 12.0709Z" fill="#F1F0E3"/>
<path d="M287.406 42.2676L282.594 43.8557L284.262 39.0675L281.271 34.9771L286.331 35.0894L289.299 30.975L290.759 35.8273L295.587 37.3752L291.424 40.2626L291.44 45.3314L287.406 42.2676Z" fill="#F1F0E3"/>
<path d="M336.45 195.745L331.806 197.774L333.017 192.857L329.649 189.064L334.71 188.703L337.284 184.324L339.193 189.023L342 189.649L342 191.919L340.268 193.379L340.757 198.423L336.45 195.745Z" fill="#F1F0E3"/>
<path d="M338.343 32.4424L339.554 27.5099L336.185 23.7243L341.246 23.3633L342 22.0721L342 30.8543L338.343 32.4424Z" fill="#F1F0E3"/>
<path d="M295.385 72.8485L290.894 75.1824L291.768 70.1938L288.159 66.6408L293.172 65.9269L295.441 61.3955L297.663 65.951L302.676 66.6969L299.027 70.2259L299.869 75.2225L295.385 72.8485Z" fill="#F1F0E3"/>
<path d="M305.259 102.788L300.623 104.842L301.81 99.9171L298.425 96.1395L303.478 95.7545L306.021 91.3674L307.954 96.0513L312.91 97.118L309.052 100.406L309.574 105.443L305.259 102.788Z" fill="#F1F0E3"/>
<path d="M314.53 132.929L309.911 135.022L311.058 130.082L307.641 126.344L312.694 125.903L315.196 121.5L317.169 126.168L322.134 127.187L318.308 130.507L318.87 135.544L314.53 132.929Z" fill="#F1F0E3"/>
<path d="M325.775 163.191L321.332 165.637L322.094 160.624L318.396 157.159L323.401 156.333L325.558 151.745L327.884 156.245L332.913 156.878L329.352 160.488L330.306 165.468L325.775 163.191Z" fill="#F1F0E3"/>
<path d="M289.756 343.711C285.834 343.583 281.872 342.204 277.942 339.645C276.354 338.619 274.758 337.391 273.186 335.956C258.957 323.171 245.564 295.028 236.396 255.167C235.995 253.442 235.602 251.694 235.225 249.921C223.395 194.91 207.748 167.031 188.82 159.813C188.803 159.757 188.803 159.725 188.803 159.725L212.736 164.745L239.444 170.36L274.958 177.811L290.052 180.979L301.722 183.441L323.802 188.069L336.659 190.771L341.992 191.886L341.992 232.982C338.752 245.133 335.44 259.113 332.047 275.137C330.876 280.663 329.633 285.837 328.317 290.657C327.435 293.881 326.521 296.945 325.583 299.872C323.89 305.198 322.094 309.978 320.233 314.293C320.145 314.477 320.057 314.686 319.96 314.902C318.902 317.316 317.819 319.562 316.704 321.655C314.98 324.936 313.207 327.815 311.379 330.334C311.234 330.518 311.106 330.71 310.977 330.887C308.796 333.854 306.534 336.285 304.24 338.193C301.361 340.608 298.402 342.228 295.394 343.07C293.525 343.591 291.648 343.824 289.756 343.752L289.756 343.711Z" fill="#EA5A5B"/>
<path d="M304.241 338.154C303.719 337.825 303.214 337.448 302.709 337.055C299.148 334.304 295.707 330.487 292.459 325.675C281.856 310.043 273.098 283.873 268.053 249.521C267.78 247.773 267.532 245.992 267.299 244.188C260.185 190.564 252.213 177.916 239.444 170.352L274.958 177.803C282.578 187.676 289.868 209.195 290.718 239.231C290.759 241.052 290.935 242.848 290.919 244.613C290.686 277.063 295.459 300.242 302.244 315.489C305.019 321.737 308.131 326.637 311.379 330.31C311.235 330.495 311.106 330.687 310.978 330.864C308.796 333.831 306.535 336.261 304.241 338.17L304.241 338.154Z" fill="#F1F0E3"/>
<path d="M319.961 314.871C318.108 309.321 316.504 303.057 315.229 296.015C312.887 283.158 311.612 267.687 311.9 249.16C312.478 211.777 308.299 193.844 301.723 183.425L323.803 188.053C329.401 199.001 331.205 217.408 328.286 245.278C327.275 255.055 325.319 265.594 324.645 276.879C324.212 284.241 324.324 291.901 325.583 299.857C323.891 305.182 322.094 309.962 320.234 314.277C320.145 314.462 320.057 314.67 319.961 314.887L319.961 314.871Z" fill="#F1F0E3"/>
<path d="M290.429 343.729L290.413 343.729C290.18 343.729 289.98 343.729 289.747 343.713C269.833 343.047 249.068 310.324 236.388 255.168C235.987 253.444 235.594 251.695 235.217 249.923C223.387 194.911 207.739 167.032 188.811 159.814C188.795 159.758 188.795 159.726 188.795 159.726L212.728 164.747C226.595 180.643 238.337 208.057 244.497 241.301C254.442 295.005 261.965 326.854 280.532 340.112C284.751 343.119 292.089 343.159 298.634 340.849C300.647 340.144 302.564 339.213 304.32 338.09C301.417 340.553 298.417 342.181 295.386 343.039C295.201 343.095 294.985 343.143 294.736 343.199C293.308 343.56 291.873 343.737 290.429 343.737L290.429 343.729Z" fill="#E63A39"/>
<path d="M236.396 255.167L222.184 252.681L207.379 250.09L203.738 249.457L183.927 245.984L179.428 245.206L164.486 242.599L128.178 236.247L123.59 235.453L85.646 228.812C91.2281 228.901 96.8985 225.556 102.593 218.081C130.736 181.196 155.864 158.53 177.383 157.897C181.313 157.784 185.13 158.402 188.82 159.805C198.492 163.495 207.315 172.574 215.207 187.933C217.3 192.023 219.345 196.563 221.31 201.567C221.687 202.506 222.064 203.476 222.425 204.463C222.425 204.463 222.425 204.479 222.441 204.479C223.107 206.275 223.772 208.12 224.438 210.029C225.144 212.114 225.858 214.248 226.564 216.477C226.957 217.72 227.333 218.98 227.718 220.263C228.978 224.473 230.205 228.909 231.392 233.585C232.707 238.734 233.982 244.171 235.226 249.914C235.602 251.695 235.995 253.443 236.396 255.159L236.396 255.167Z" fill="#87191D"/>
<path d="M85.855 228.82L85.6384 228.82C73.6239 228.635 61.1282 212.121 49.4827 186.969C57.6073 191.02 69.3812 195.198 83.1361 195.038C90.3544 208.705 96.6824 216.147 102.04 218.786C101.487 219.492 100.925 220.158 100.364 220.783C100.075 221.128 99.7703 221.465 99.4655 221.778C99.2169 222.034 98.9763 222.283 98.7116 222.532C98.4389 222.82 98.1582 223.085 97.8855 223.326C97.8294 223.398 97.7812 223.438 97.7251 223.47C97.5085 223.687 97.2759 223.887 97.0434 224.08C96.7707 224.328 96.4899 224.561 96.2173 224.777C95.9847 224.954 95.7361 225.138 95.5115 225.299C95.2789 225.483 95.0303 225.644 94.8057 225.804C94.533 226.004 94.2443 226.181 93.9635 226.357C93.4823 226.662 93.0091 226.919 92.5359 227.151C92.2873 227.28 92.0467 227.4 91.8141 227.496C91.5093 227.641 91.2046 227.753 90.8998 227.873C89.5524 228.395 88.2129 228.683 86.8976 228.788C86.5527 228.82 86.1999 228.828 85.855 228.828L85.855 228.82Z" fill="#B8212B"/>
<path d="M143.192 173.809L143.192 173.793C142.542 172.422 141.909 171.018 141.251 169.599C153.153 162.757 162.176 159.677 168.801 158.49C168.905 158.723 168.986 158.94 169.09 159.172C168.673 159.276 168.248 159.405 167.831 159.533C167.414 159.645 166.989 159.79 166.555 159.934C159.979 162.132 153.105 166.094 145.951 171.604C145.574 171.892 145.181 172.197 144.796 172.502C144.259 172.935 143.729 173.352 143.192 173.801L143.192 173.809Z" fill="#E1DBBC"/>
<path d="M169.089 159.18C168.985 158.948 168.905 158.731 168.8 158.498C172.289 157.865 175.104 157.761 177.334 157.905C177.15 157.921 176.941 157.921 176.757 157.937C176.508 157.953 176.275 157.969 176.035 157.977C175.401 158.017 174.751 158.081 174.094 158.162C173.837 158.194 173.588 158.234 173.324 158.274C171.936 158.474 170.517 158.779 169.089 159.172L169.089 159.18Z" fill="#B8212B"/>
<path d="M102.039 218.786C96.6894 216.156 90.3533 208.705 83.135 195.038C92.3023 194.95 102.352 192.945 112.794 187.66C114.952 191.678 117.005 195.167 118.85 198.014C115.481 201.888 112.064 206.01 108.6 210.365C108.006 211.103 107.429 211.841 106.835 212.603C106.298 213.285 105.752 213.974 105.215 214.672C104.333 215.803 103.467 216.926 102.584 218.089C102.408 218.321 102.223 218.554 102.031 218.786L102.039 218.786Z" fill="#E1DBBC"/>
<path d="M120.246 196.426C120.551 196.081 120.855 195.728 121.16 195.4C121.465 195.071 121.754 194.734 122.075 194.405C122.419 194.004 122.78 193.611 123.133 193.218C124.553 191.638 125.964 190.122 127.368 188.662C128.018 187.965 128.667 187.307 129.317 186.641C130.111 185.831 130.905 185.021 131.691 184.243C133.728 182.222 135.757 180.313 137.746 178.501C138.54 177.779 139.334 177.081 140.12 176.407C140.209 176.335 140.297 176.263 140.369 176.191C141.075 175.581 141.789 174.988 142.478 174.41C142.727 174.21 142.96 174.009 143.2 173.817L143.2 173.801C142.551 172.429 141.917 171.026 141.259 169.606C137.586 171.715 133.624 174.178 129.389 177.057C127.585 178.284 125.732 179.591 123.823 180.963C120.118 183.642 116.436 185.847 112.803 187.676C114.961 191.694 117.014 195.183 118.858 198.03C119.324 197.493 119.781 196.964 120.246 196.442L120.246 196.426Z" fill="#B8212B"/>
<path d="M164.478 242.6L128.17 236.248L123.583 235.454C146.801 225.597 158.295 182.271 178.634 172.318C191.531 166.006 206.096 177.916 215.207 187.933C217.3 192.024 219.346 196.563 221.311 201.568C210.186 188.19 193.905 173.978 187.256 195.088C179.404 219.991 170.927 234.419 164.478 242.592L164.478 242.6Z" fill="#B8212B"/>
<path d="M207.371 250.09L203.73 249.457L183.919 245.984C198.179 236.279 201.909 199.955 212.015 199.522C215.864 199.361 219.538 201.535 222.425 204.47C222.425 204.47 222.425 204.486 222.441 204.486C223.107 206.283 223.772 208.128 224.438 210.037C225.144 212.122 225.858 214.255 226.563 216.485C224.558 209.13 219.923 206.155 219.089 211.344C214.172 242.126 210.627 244.885 207.371 250.09Z" fill="#B8212B"/>
<path d="M236.396 255.167L224.839 253.01C228.873 248.31 231.031 240.41 231.392 233.585C232.707 238.734 233.982 244.171 235.226 249.914C235.602 251.695 235.995 253.443 236.396 255.159L236.396 255.167Z" fill="#B8212B"/>
<path d="M311.387 330.303C308.131 326.63 305.027 321.729 302.252 315.482C306.992 309.683 311.315 303.058 315.237 296.016C316.512 303.058 318.116 309.322 319.969 314.872C318.91 317.286 317.827 319.532 316.712 321.625C314.988 324.906 313.216 327.785 311.387 330.303Z" fill="#E74040"/>
<path d="M325.59 299.849C324.331 291.893 324.219 284.233 324.652 276.871C333.154 257.421 338.92 237.868 342 226.214L342 232.967C338.76 245.118 335.447 259.098 332.055 275.122C330.884 280.648 329.641 285.821 328.325 290.642C327.443 293.866 326.529 296.93 325.59 299.857L325.59 299.849Z" fill="#E74040"/>
<path d="M319.96 314.871C318.107 309.321 316.503 303.057 315.228 296.015C318.685 289.84 321.82 283.359 324.644 276.871C324.211 284.234 324.323 291.893 325.582 299.849C323.89 305.175 322.093 309.955 320.232 314.27C320.144 314.454 320.056 314.663 319.96 314.879L319.96 314.871Z" fill="#DED7B2"/>
<path d="M289.755 343.712C285.834 343.583 281.871 342.204 277.942 339.645C276.353 338.619 274.757 337.391 273.185 335.956C280.123 334.392 286.547 330.751 292.458 325.674C295.715 330.486 299.155 334.304 302.708 337.055C303.214 337.448 303.719 337.825 304.24 338.153C301.361 340.568 298.401 342.188 295.394 343.03C293.525 343.551 291.648 343.784 289.755 343.712Z" fill="#E74040"/>
<path d="M304.241 338.154C303.719 337.825 303.214 337.448 302.709 337.055C299.148 334.304 295.707 330.486 292.459 325.674C295.899 322.723 299.172 319.282 302.252 315.48C305.027 321.728 308.138 326.628 311.387 330.302C311.242 330.486 311.114 330.679 310.986 330.855C308.804 333.823 306.542 336.253 304.249 338.162L304.241 338.154Z" fill="#DED7B2"/>
</svg>
