<svg width="521" height="508" viewBox="0 0 521 508" fill="none" xmlns="http://www.w3.org/2000/svg">
<path d="M520.795 0L511.432 77.7974C511.539 74.9788 511.193 72.1722 510.416 69.4014C509.162 64.9227 506.75 60.5277 503.155 56.2281C497.745 49.743 489.611 43.4968 478.54 37.6686C462.083 28.974 439.2 21.1512 409.294 14.8214C385.432 9.75752 364.615 4.82502 346.521 0.0119431H520.795V0Z" fill="#F08A85"/>
<path d="M511.431 77.7973L511.001 81.3085C505.03 60.0618 472.58 28.2334 409.294 14.8093C472.58 28.2334 504.456 48.1545 510.416 69.4013C511.192 72.184 511.539 74.9787 511.431 77.7973Z" fill="#EC6B6B"/>
<path d="M510.416 69.4014L510.01 72.0886L387.569 111.608L379.579 157.255C377.012 157.852 374.408 158.437 371.769 158.999C289.851 176.615 248.337 199.916 237.588 228.101C224.044 263.632 259.396 306.938 324.366 356.502C335.497 364.981 340.478 373.425 340.346 381.737L340.179 382.669C19.0647 389.847 25.8006 137.537 54.7507 0H346.533C364.627 4.82501 385.443 9.75752 409.306 14.8095C472.58 28.2335 504.456 48.1546 510.416 69.4014Z" fill="#B8212B"/>
<path d="M381.885 156.717C381.108 156.885 380.356 157.088 379.58 157.255C377.012 157.852 374.408 158.437 371.769 158.999C305.855 173.163 266.108 191.018 247.501 212.145C242.962 217.269 239.69 222.584 237.6 228.101C235.51 233.595 234.59 239.28 234.758 245.132V245.192C234.758 245.467 234.781 245.777 234.805 246.052C234.805 246.422 234.829 246.768 234.865 247.127C234.925 248.07 235.02 249.038 235.14 250.017C235.187 250.399 235.247 250.769 235.307 251.164C235.605 253.23 236.059 255.344 236.645 257.469C236.812 258.091 236.991 258.723 237.182 259.345C237.373 259.966 237.564 260.611 237.779 261.243C241.052 271.037 246.951 281.272 255.156 291.925C255.586 292.487 256.04 293.072 256.494 293.645C257.115 294.445 257.76 295.234 258.405 296.034C258.703 296.404 258.99 296.738 259.313 297.109C260.149 298.148 261.056 299.199 261.964 300.25C262.071 300.357 262.179 300.489 262.286 300.62C263.302 301.778 264.329 302.973 265.404 304.155C269.13 308.287 273.178 312.467 277.526 316.707C278.517 317.675 279.508 318.642 280.535 319.609C282.709 321.699 284.966 323.813 287.319 325.915C287.904 326.453 288.478 326.99 289.063 327.504C289.552 327.958 290.054 328.388 290.568 328.841C297.435 334.956 304.887 341.179 312.853 347.532C313.952 348.416 315.075 349.3 316.186 350.16C317.201 350.96 318.228 351.772 319.267 352.572C320.951 353.886 322.623 355.176 324.355 356.49C325.8 357.589 327.137 358.687 328.356 359.81C328.869 360.24 329.371 360.694 329.837 361.148C330.219 361.518 330.589 361.876 330.959 362.27C331.389 362.676 331.783 363.094 332.142 363.5C332.249 363.584 332.309 363.656 332.357 363.739C332.679 364.062 332.978 364.408 333.264 364.754C333.634 365.16 333.981 365.578 334.303 365.985C334.566 366.331 334.841 366.701 335.08 367.036C335.354 367.382 335.593 367.752 335.832 368.087C336.131 368.493 336.393 368.923 336.656 369.341C337.11 370.057 337.492 370.762 337.838 371.466C338.03 371.837 338.209 372.195 338.352 372.541C338.567 372.995 338.734 373.449 338.913 373.903C339.69 375.909 340.12 377.904 340.275 379.862C340.323 380.376 340.335 380.901 340.335 381.415V381.737C340.06 399.628 315.469 418.236 278.015 435.577C205.485 469.125 84.8118 497.956 -0.390289 508V0H346.521C364.615 4.82501 385.432 9.75752 409.294 14.8095C472.581 28.2335 504.457 48.1546 510.416 69.4014C519.314 101.182 470.359 135.984 381.885 156.717Z" fill="#E63A39"/>
<path d="M325.405 357.326C321.488 365.292 310.393 374.727 290.042 385.476C269.607 396.26 239.845 408.37 198.606 421.699C93.7809 455.546 28.5715 464.527 -0.390533 467.071V400.882L263.242 316.623L273.943 313.196L302.821 303.964L314.466 300.238L306.129 309.195L289.075 327.516L289.051 327.539L287.797 328.877C287.797 328.877 289.457 329.331 292.084 330.239C293.29 330.645 294.688 331.17 296.217 331.767C307.073 335.983 325.895 337.07 326.97 349.945C327.161 352.25 326.648 354.722 325.382 357.349L325.405 357.326Z" fill="#F1F0E3"/>
<path d="M306.154 309.183C308.518 315.167 302.38 326.536 301.974 326.883C300.015 328.519 297.495 330.322 294.485 332.293C290.245 335.052 285.05 338.109 279.067 341.31C263.326 349.778 242.163 359.332 219.029 367.704C108.543 407.69 33.6718 417.292 -0.378021 419.239V350.542L242.76 272.828L311.54 250.841L282.53 283.959L276.953 290.337C276.953 290.337 294.545 294.684 302.834 303.952C304.279 305.54 305.437 307.284 306.154 309.183Z" fill="#E63A39"/>
<path d="M353.33 191.914C353.33 191.914 371.531 236.497 282.531 283.959C274.995 287.984 266.981 292.009 258.43 296.034H258.406C256.363 297.001 254.273 297.944 252.16 298.924C239.5 304.692 225.717 310.425 210.789 316.026C108.639 354.34 35.7385 364.73 -0.389435 367.465V291.364L247.478 212.145L305.581 193.562L347.573 192.117L353.318 191.914H353.33Z" fill="#F1F0E3"/>
<path d="M390.52 143.198C390.52 143.198 383.772 147.306 377.442 155.786C370.921 164.528 364.555 177.845 347.584 192.117C324.092 211.883 288.776 235.231 236.645 257.469C236.298 257.625 235.976 257.744 235.629 257.899C227.15 261.494 218.228 265.065 208.817 268.6C108.471 306.221 36.3945 316.946 -0.378296 319.92V255.188L303.633 158.007L327.102 154.006L390.52 143.198Z" fill="#E63A39"/>
<path d="M385.587 92.8337C385.587 92.8337 373.202 119.921 327.102 154.006C299.585 174.357 260.029 197.205 203.884 218.236C107.862 254.245 37.7081 265.615 -0.378448 269.126V203.26L298.677 107.655L385.587 92.8457V92.8337Z" fill="#F1F0E3"/>
<path d="M335.224 0L303.634 129.368C207.827 184.664 44.8867 226.549 -0.377625 223.193V0H335.224Z" fill="#1B3257"/>
<path d="M27.2695 182.001L29.6223 189.167L22.4923 186.671L16.4013 191.126L16.5685 183.589L10.4536 179.171L17.6792 176.997L19.9962 169.807L24.2957 176.018L31.8438 175.994L27.2695 182.001Z" fill="#F1F0E3"/>
<path d="M74.3965 174.19L76.7612 181.368L69.6312 178.872L63.5402 183.327L63.7074 175.778L57.5926 171.36L64.8181 169.198L67.1232 162.008L71.4227 168.207L78.9707 168.183L74.3965 174.19Z" fill="#F1F0E3"/>
<path d="M119.399 162.355L122.875 169.055L115.434 167.741L110.143 173.115L109.092 165.639L102.344 162.271L109.128 158.963L110.251 151.498L115.494 156.932L122.946 155.69L119.399 162.355Z" fill="#F1F0E3"/>
<path d="M166.002 147.665L169.047 154.568L161.714 152.788L156.089 157.828L155.516 150.292L148.995 146.506L155.97 143.628L157.558 136.247L162.455 142.004L169.955 141.239L166.002 147.665Z" fill="#F1F0E3"/>
<path d="M209.689 133.906L212.806 140.785L205.45 139.077L199.872 144.165L199.227 136.641L192.67 132.903L199.621 129.965L201.15 122.572L206.094 128.281L213.595 127.445L209.689 133.906Z" fill="#F1F0E3"/>
<path d="M274.541 61.4471L277.694 68.3024L270.337 66.6304L264.783 71.7421L264.102 64.2298L257.522 60.5275L264.461 57.5536L265.942 50.1489L270.922 55.8338L278.41 54.962L274.541 61.4471Z" fill="#F1F0E3"/>
<path d="M42.115 128.818L44.5036 135.984L37.3616 133.524L31.2945 138.014L31.4259 130.466L25.2871 126.083L32.5007 123.874L34.7699 116.672L39.1053 122.859L46.6533 122.787L42.115 128.818Z" fill="#F1F0E3"/>
<path d="M88.6462 120.792L91.0348 127.946L83.8928 125.486L77.8258 129.977L77.9571 122.429L71.8184 118.045L79.032 115.836L81.3012 108.634L85.6366 114.821L93.1846 114.761L88.6462 120.792Z" fill="#F1F0E3"/>
<path d="M135.725 108.67L139.236 115.346L131.796 114.068L126.529 119.479L125.442 112.002L118.67 108.67L125.442 105.326L126.529 97.8616L131.796 103.26L139.236 101.982L135.725 108.67Z" fill="#F1F0E3"/>
<path d="M181.85 93.7414L184.931 100.633L177.586 98.8889L171.997 103.953L171.376 96.4286L164.831 92.6785L171.794 89.7644L173.347 82.3835L178.267 88.1043L185.779 87.2922L181.85 93.7414Z" fill="#F1F0E3"/>
<path d="M228.272 79.6964L231.413 86.5637L224.056 84.8916L218.503 90.0033L217.822 82.4791L211.241 78.7887L218.18 75.8149L219.661 68.4102L224.642 74.0951L232.13 73.2232L228.272 79.6964Z" fill="#F1F0E3"/>
<path d="M28.9659 42.4336L31.462 49.5517L24.2842 47.1989L18.2768 51.7612L18.3126 44.2132L12.1022 39.9137L19.292 37.6086L21.4656 30.3831L25.8846 36.4979L33.4326 36.3427L28.9659 42.4336Z" fill="#F1F0E3"/>
<path d="M74.9942 33.7989L77.4784 40.917L70.3125 38.5642L64.3051 43.1265L64.329 35.5784L58.1305 31.2789L65.3203 28.9739L67.494 21.7483L71.9129 27.8751L79.4609 27.7079L74.9942 33.7989Z" fill="#F1F0E3"/>
<path d="M121.513 21.0675L125.12 27.6959L117.668 26.5255L112.46 31.9954L111.278 24.5429L104.47 21.2944L111.194 17.8667L112.174 10.3784L117.512 15.717L124.941 14.3435L121.513 21.0675Z" fill="#F1F0E3"/>
<path d="M167.04 5.55354L170.228 12.385L162.86 10.7488L157.33 15.8963L156.625 8.37212L150.009 4.69364L156.948 1.69592L157.282 0H170.336L167.04 5.55354Z" fill="#F1F0E3"/>
<path d="M252.35 117.258L255.992 123.874L248.528 122.727L243.356 128.233L242.138 120.781L235.307 117.556L242.019 114.105L242.962 106.616L248.325 111.919L255.741 110.51L252.35 117.258Z" fill="#F1F0E3"/>
<path d="M17.5852 89.0955L19.9499 96.2614L12.8199 93.7772L6.72891 98.232L6.89609 90.6959L0.769274 86.277L7.99487 84.1033L10.2999 76.9136L14.5994 83.112L22.1475 83.0882L17.5852 89.0955Z" fill="#F1F0E3"/>
<path d="M62.55 81.2967L64.9148 88.4626L57.7847 85.9784L51.6937 90.4332L51.8609 82.8971L45.7342 78.4781L52.9597 76.3045L55.2647 69.1147L59.5643 75.3132L67.1123 75.2893L62.55 81.2967Z" fill="#F1F0E3"/>
<path d="M291.093 8.26463L294.115 15.1797L286.794 13.3763L281.144 18.3924L280.607 10.8563L274.086 7.02255L281.085 4.18009L282.016 0H285.396L287.57 2.57971L295.082 1.85118L291.093 8.26463Z" fill="#F1F0E3"/>
<path d="M47.9199 5.44606L40.5749 3.64265L34.9378 8.65875L34.4003 1.12265L32.4775 0H45.5552L47.9199 5.44606Z" fill="#F1F0E3"/>
<path d="M108.089 69.4132L111.564 76.1013L104.136 74.7995L98.8449 80.1739L97.782 72.7095L91.0341 69.3296L97.8178 66.0213L98.9285 58.5569L104.183 63.991L111.624 62.737L108.089 69.4132Z" fill="#F1F0E3"/>
<path d="M152.672 54.7114L155.729 61.6145L148.396 59.8469L142.771 64.8869L142.198 57.3627L135.665 53.5768L142.64 50.6985L144.228 43.3176L149.125 49.0623L156.625 48.286L152.672 54.7114Z" fill="#F1F0E3"/>
<path d="M197.555 40.9051L200.672 47.7843L193.315 46.0764L187.75 51.1642L187.093 43.64L180.536 39.9138L187.487 36.9758L189.004 29.583L193.948 35.2799L201.448 34.4439L197.555 40.9051Z" fill="#F1F0E3"/>
<path d="M242.616 24.1611L246.259 30.7776L238.794 29.643L233.635 35.1488L232.405 27.6963L225.573 24.4836L232.273 21.0201L233.217 13.5317L238.591 18.8345L246.008 17.4132L242.616 24.1611Z" fill="#F1F0E3"/>
<path d="M511.431 77.7974C511.24 83.6376 509.186 89.5375 505.376 95.3896C503.847 97.7543 502.02 100.131 499.882 102.472C480.845 123.659 438.936 143.604 379.579 157.255C377.011 157.852 374.408 158.437 371.768 158.999C289.85 176.615 248.336 199.916 237.587 228.101C237.504 228.125 237.456 228.125 237.456 228.125L244.932 192.487L253.293 152.717L264.388 99.8324L269.105 77.3555L272.772 59.9783L279.663 27.0989L283.688 7.95413L285.348 0.0119629H346.544C364.638 4.83698 385.455 9.76948 409.317 14.8214C417.546 16.5651 425.249 18.4163 432.427 20.375C437.228 21.6887 441.791 23.0502 446.15 24.4476C454.08 26.9676 461.198 29.6428 467.624 32.4136C467.898 32.545 468.209 32.6764 468.531 32.8197C472.126 34.3962 475.47 36.0085 478.587 37.6686C483.472 40.2363 487.76 42.8758 491.51 45.5988C491.785 45.8138 492.071 46.0049 492.334 46.196C496.753 49.4445 500.372 52.8124 503.214 56.2282C506.809 60.5157 509.221 64.9227 510.475 69.4014C511.252 72.1842 511.598 74.9788 511.491 77.7974H511.431Z" fill="#EA5A5B"/>
<path d="M503.155 56.228C502.665 57.0043 502.104 57.7567 501.519 58.5091C497.422 63.8119 491.737 68.9355 484.571 73.7724C461.294 89.5612 422.324 102.603 371.172 110.115C368.568 110.521 365.917 110.892 363.229 111.238C283.378 121.831 264.544 133.703 253.281 152.716L264.376 99.8323C279.078 88.4863 311.122 77.63 355.849 76.3641C358.56 76.3044 361.235 76.0416 363.862 76.0655C412.184 76.4118 446.7 69.3057 469.404 59.2018C478.707 55.0695 486.005 50.4356 491.474 45.5986C491.749 45.8136 492.036 46.0047 492.299 46.1958C496.717 49.4443 500.336 52.8123 503.179 56.228H503.155Z" fill="#F1F0E3"/>
<path d="M468.484 32.8195C460.219 35.5784 450.892 37.967 440.406 39.8659C421.261 43.3533 398.223 45.2523 370.634 44.8223C314.967 43.9624 288.262 50.1848 272.748 59.9781L279.64 27.0988C295.942 18.7625 323.351 16.0753 364.854 20.4226C379.412 21.9274 395.105 24.8415 411.909 25.8447C422.873 26.4897 434.279 26.3225 446.126 24.4474C454.057 26.9674 461.175 29.6426 467.6 32.4134C467.875 32.5448 468.185 32.6762 468.508 32.8195H468.484Z" fill="#F1F0E3"/>
<path d="M511.456 76.7941V76.818C511.456 77.1643 511.456 77.4629 511.432 77.8093C510.441 107.464 461.713 138.385 379.58 157.267C377.012 157.864 374.409 158.449 371.769 159.01C289.852 176.627 248.337 199.928 237.588 228.113C237.505 228.137 237.457 228.137 237.457 228.137L244.934 192.499C268.605 171.849 309.426 154.365 358.93 145.192C438.901 130.383 486.328 119.18 506.069 91.5319C510.548 85.2498 510.608 74.3219 507.168 64.5763C506.117 61.5786 504.732 58.7242 503.06 56.1086C506.726 60.432 509.151 64.8988 510.429 69.4133C510.512 69.688 510.584 70.0104 510.668 70.3807C511.205 72.5065 511.468 74.6443 511.468 76.7941H511.456Z" fill="#E63A39"/>
<path d="M379.579 157.255L375.877 178.418L372.019 200.465L371.076 205.887L365.904 235.387L364.746 242.087L360.864 264.337L351.405 318.403L350.223 325.235L340.334 381.738C340.465 373.425 335.485 364.981 324.354 356.502C269.428 314.593 235.677 277.176 234.733 245.132C234.566 239.28 235.486 233.595 237.576 228.101C243.069 213.698 256.589 200.561 279.46 188.809C285.551 185.691 292.311 182.646 299.763 179.72C301.161 179.159 302.606 178.597 304.075 178.06C304.075 178.06 304.099 178.06 304.099 178.036C306.774 177.045 309.521 176.053 312.363 175.062C315.469 174.011 318.645 172.948 321.966 171.897C323.817 171.312 325.692 170.751 327.603 170.177C333.873 168.302 340.477 166.475 347.44 164.707C355.108 162.749 363.205 160.85 371.756 158.999C374.408 158.437 377.011 157.852 379.567 157.255H379.579Z" fill="#87191D"/>
<path d="M340.345 381.427V381.749C340.071 399.64 315.48 418.247 278.026 435.589C284.058 423.49 290.28 405.958 290.041 385.476C310.392 374.727 321.475 365.304 325.405 357.326C326.456 358.15 327.447 358.986 328.378 359.822C328.892 360.252 329.394 360.706 329.859 361.159C330.242 361.53 330.612 361.888 330.982 362.282C331.412 362.688 331.806 363.106 332.164 363.512C332.272 363.596 332.332 363.667 332.379 363.751C332.702 364.074 333 364.42 333.287 364.766C333.657 365.172 334.004 365.59 334.326 365.996C334.589 366.343 334.864 366.713 335.102 367.047C335.377 367.394 335.616 367.764 335.855 368.098C336.153 368.504 336.416 368.934 336.679 369.352C337.133 370.069 337.515 370.774 337.861 371.478C338.052 371.849 338.232 372.207 338.375 372.553C338.59 373.007 338.757 373.461 338.936 373.915C339.712 375.921 340.142 377.916 340.298 379.874C340.345 380.388 340.357 380.913 340.357 381.427H340.345Z" fill="#B8212B"/>
<path d="M258.43 296.046H258.406C256.364 297.013 254.273 297.957 252.16 298.936C241.972 281.212 237.386 267.776 235.618 257.911C235.965 257.756 236.287 257.637 236.634 257.481C236.789 258.102 236.98 258.735 237.171 259.357C237.338 259.978 237.553 260.611 237.768 261.255C241.041 271.049 246.94 281.284 255.145 291.937C255.575 292.499 256.029 293.084 256.483 293.657C257.128 294.457 257.749 295.246 258.418 296.046H258.43Z" fill="#E1DBBC"/>
<path d="M236.645 257.482C236.298 257.637 235.976 257.756 235.629 257.912C234.686 252.716 234.531 248.524 234.746 245.204C234.769 245.479 234.769 245.789 234.793 246.064C234.817 246.434 234.841 246.781 234.853 247.139C234.913 248.082 235.008 249.05 235.128 250.029C235.176 250.411 235.235 250.782 235.295 251.176C235.594 253.242 236.047 255.356 236.633 257.482H236.645Z" fill="#B8212B"/>
<path d="M325.405 357.326C321.488 365.292 310.393 374.727 290.042 385.476C289.91 371.825 286.925 356.86 279.054 341.31C285.038 338.097 290.233 335.04 294.473 332.293C300.241 337.309 306.38 342.397 312.865 347.556C313.964 348.44 315.063 349.3 316.197 350.184C317.212 350.984 318.239 351.796 319.278 352.596C320.962 353.91 322.634 355.2 324.366 356.514C324.713 356.776 325.059 357.051 325.405 357.338V357.326Z" fill="#E1DBBC"/>
<path d="M292.107 330.215C291.594 329.761 291.068 329.307 290.579 328.854C290.089 328.4 289.587 327.97 289.098 327.492C288.501 326.979 287.915 326.441 287.33 325.916C284.977 323.802 282.72 321.7 280.547 319.61C279.507 318.642 278.528 317.675 277.537 316.707C276.331 315.525 275.124 314.343 273.966 313.172C270.956 310.139 268.114 307.117 265.415 304.155C264.34 302.973 263.301 301.791 262.297 300.62C262.19 300.489 262.082 300.357 261.975 300.25C261.067 299.199 260.184 298.136 259.324 297.109C259.025 296.739 258.726 296.392 258.44 296.034H258.416C256.374 297.001 254.284 297.945 252.17 298.924C255.311 304.394 258.977 310.294 263.265 316.6C265.092 319.287 267.039 322.046 269.081 324.888C273.07 330.406 276.355 335.888 279.078 341.298C285.061 338.086 290.256 335.028 294.496 332.281C293.696 331.589 292.908 330.908 292.131 330.215H292.107Z" fill="#B8212B"/>
<path d="M360.865 264.349L351.406 318.415L350.224 325.246C335.546 290.671 271.029 273.557 256.208 243.269C246.809 224.064 264.544 202.376 279.461 188.808C285.552 185.691 292.312 182.646 299.764 179.72C279.843 196.285 258.68 220.529 290.114 230.43C327.198 242.122 348.683 254.746 360.853 264.349H360.865Z" fill="#B8212B"/>
<path d="M372.019 200.477L371.075 205.899L365.904 235.398C351.453 214.164 297.362 208.61 296.717 193.562C296.478 187.829 299.715 182.359 304.086 178.06C304.086 178.06 304.11 178.06 304.11 178.036C306.785 177.044 309.532 176.053 312.375 175.062C315.48 174.011 318.657 172.948 321.977 171.897C311.025 174.883 306.594 181.786 314.321 183.028C360.159 190.349 364.267 195.628 372.019 200.477Z" fill="#B8212B"/>
<path d="M379.579 157.255L376.366 174.465C369.368 168.458 357.604 165.245 347.44 164.707C355.108 162.749 363.205 160.85 371.756 158.999C374.408 158.437 377.011 157.852 379.567 157.255H379.579Z" fill="#B8212B"/>
<path d="M491.464 45.5867C485.994 50.4356 478.697 55.0576 469.393 59.1899C460.758 52.1316 450.893 45.6942 440.407 39.854C450.893 37.9551 460.221 35.5665 468.485 32.8076C472.08 34.3841 475.424 35.9964 478.541 37.6565C483.426 40.2243 487.714 42.8637 491.464 45.5867Z" fill="#E74040"/>
<path d="M446.115 24.4356C434.267 26.3107 422.862 26.4779 411.898 25.8329C382.936 13.1732 353.819 4.58615 336.465 0H346.521C364.615 4.82501 385.432 9.75752 409.294 14.8095C417.523 16.5531 425.227 18.4043 432.404 20.363C437.205 21.6767 441.768 23.0382 446.127 24.4356H446.115Z" fill="#E74040"/>
<path d="M468.484 32.8196C460.22 35.5785 450.892 37.9671 440.406 39.8661C431.21 34.7186 421.56 30.0488 411.898 25.8449C422.861 26.4898 434.267 26.3226 446.115 24.4475C454.045 26.9675 461.163 29.6428 467.588 32.4136C467.863 32.5449 468.174 32.6763 468.496 32.8196H468.484Z" fill="#DED7B2"/>
<path d="M511.431 77.7975C511.24 83.6377 509.186 89.5376 505.376 95.3897C503.847 97.7545 502.02 100.131 499.882 102.472C497.553 92.1412 492.131 82.5748 484.571 73.7727C491.737 68.9238 497.422 63.8002 501.518 58.5094C502.103 57.757 502.665 57.0046 503.154 56.2283C506.749 60.5158 509.162 64.9229 510.416 69.4015C511.192 72.1843 511.539 74.9789 511.431 77.7975Z" fill="#E74040"/>
<path d="M503.155 56.2282C502.665 57.0045 502.104 57.7569 501.519 58.5094C497.422 63.8121 491.737 68.9357 484.572 73.7726C480.177 68.6491 475.053 63.7763 469.392 59.1901C478.696 55.0578 485.993 50.4239 491.463 45.5869C491.737 45.8019 492.024 45.993 492.287 46.1841C496.706 49.4326 500.325 52.8006 503.167 56.2163L503.155 56.2282Z" fill="#DED7B2"/>
</svg>
