<svg width="521" height="508" viewBox="0 0 521 508" fill="none" xmlns="http://www.w3.org/2000/svg">
<path d="M0.205078 0L9.56847 77.7974C9.46099 74.9788 9.80733 72.1722 10.5836 69.4014C11.8377 64.9227 14.2502 60.5277 17.845 56.2281C23.2553 49.743 31.3885 43.4968 42.4598 37.6686C58.9174 28.974 81.8004 21.1512 111.706 14.8214C135.568 9.75752 156.385 4.82502 174.479 0.0119431H0.205078V0Z" fill="#F08A85"/>
<path d="M9.56894 77.7973L9.99889 81.3085C15.9704 60.0618 48.4199 28.2334 111.706 14.8093C48.4199 28.2334 16.5437 48.1545 10.5841 69.4013C9.8078 72.184 9.46145 74.9787 9.56894 77.7973Z" fill="#EC6B6B"/>
<path d="M10.584 69.4014L10.9901 72.0886L133.431 111.608L141.421 157.255C143.988 157.852 146.592 158.437 149.231 158.999C231.149 176.615 272.663 199.916 283.412 228.101C296.956 263.632 261.604 306.938 196.634 356.502C185.503 364.981 180.522 373.425 180.654 381.737L180.821 382.669C501.935 389.847 495.199 137.537 466.249 0H174.467C156.373 4.82501 135.557 9.75752 111.694 14.8095C48.4197 28.2335 16.5436 48.1546 10.584 69.4014Z" fill="#B8212B"/>
<path d="M139.115 156.717C139.892 156.885 140.644 157.088 141.42 157.255C143.988 157.852 146.592 158.437 149.231 158.999C215.145 173.163 254.892 191.018 273.499 212.145C278.038 217.269 281.31 222.584 283.4 228.101C285.49 233.595 286.41 239.28 286.242 245.132V245.192C286.242 245.467 286.219 245.777 286.195 246.052C286.195 246.422 286.171 246.768 286.135 247.127C286.075 248.07 285.98 249.038 285.86 250.017C285.813 250.399 285.753 250.769 285.693 251.164C285.395 253.23 284.941 255.344 284.355 257.469C284.188 258.091 284.009 258.723 283.818 259.345C283.627 259.966 283.436 260.611 283.221 261.243C279.948 271.037 274.049 281.272 265.844 291.925C265.414 292.487 264.96 293.072 264.506 293.645C263.885 294.445 263.24 295.234 262.595 296.034C262.297 296.404 262.01 296.738 261.687 297.109C260.851 298.148 259.944 299.199 259.036 300.25C258.929 300.357 258.821 300.489 258.714 300.62C257.698 301.778 256.671 302.973 255.596 304.155C251.87 308.287 247.822 312.467 243.474 316.707C242.483 317.675 241.492 318.642 240.465 319.609C238.291 321.699 236.034 323.813 233.681 325.915C233.096 326.453 232.522 326.99 231.937 327.504C231.448 327.958 230.946 328.388 230.432 328.841C223.565 334.956 216.113 341.179 208.147 347.532C207.048 348.416 205.925 349.3 204.814 350.16C203.799 350.96 202.772 351.772 201.733 352.572C200.049 353.886 198.377 355.176 196.645 356.49C195.2 357.589 193.863 358.687 192.644 359.81C192.131 360.24 191.629 360.694 191.163 361.148C190.781 361.518 190.411 361.876 190.041 362.27C189.611 362.676 189.217 363.094 188.858 363.5C188.751 363.584 188.691 363.656 188.643 363.739C188.321 364.062 188.022 364.408 187.736 364.754C187.366 365.16 187.019 365.578 186.697 365.985C186.434 366.331 186.159 366.701 185.92 367.036C185.646 367.382 185.407 367.752 185.168 368.087C184.869 368.493 184.607 368.923 184.344 369.341C183.89 370.057 183.508 370.762 183.162 371.466C182.97 371.837 182.791 372.195 182.648 372.541C182.433 372.995 182.266 373.449 182.087 373.903C181.31 375.909 180.88 377.904 180.725 379.862C180.677 380.376 180.665 380.901 180.665 381.415V381.737C180.94 399.628 205.531 418.236 242.985 435.577C315.515 469.125 436.188 497.956 521.39 508V0H174.479C156.385 4.82501 135.568 9.75752 111.706 14.8095C48.4194 28.2335 16.5433 48.1546 10.5837 69.4014C1.68604 101.182 50.6408 135.984 139.115 156.717Z" fill="#E63A39"/>
<path d="M195.595 357.326C199.512 365.292 210.607 374.727 230.958 385.476C251.393 396.26 281.155 408.371 322.394 421.699C427.219 455.546 492.428 464.527 521.391 467.071V400.882L257.758 316.624L247.057 313.196L218.179 303.964L206.534 300.238L214.871 309.195L231.925 327.516L231.949 327.54L233.203 328.877C233.203 328.877 231.543 329.331 228.916 330.239C227.71 330.645 226.312 331.17 224.783 331.768C213.927 335.984 195.105 337.07 194.03 349.945C193.839 352.25 194.352 354.722 195.618 357.35L195.595 357.326Z" fill="#F1F0E3"/>
<path d="M214.846 309.183C212.482 315.167 218.62 326.536 219.026 326.883C220.985 328.519 223.505 330.322 226.515 332.293C230.755 335.052 235.95 338.109 241.933 341.31C257.674 349.778 278.837 359.332 301.971 367.704C412.457 407.69 487.328 417.292 521.378 419.239V350.542L278.24 272.828L209.46 250.841L238.47 283.959L244.047 290.337C244.047 290.337 226.455 294.684 218.166 303.952C216.721 305.54 215.563 307.284 214.846 309.183Z" fill="#E63A39"/>
<path d="M167.671 191.914C167.671 191.914 149.47 236.497 238.47 283.959C246.006 287.984 254.02 292.009 262.571 296.034H262.595C264.638 297.001 266.728 297.944 268.841 298.924C281.501 304.692 295.284 310.425 310.212 316.026C412.362 354.34 485.263 364.73 521.39 367.465V291.364L273.523 212.145L215.42 193.562L173.428 192.117L167.683 191.914H167.671Z" fill="#F1F0E3"/>
<path d="M130.48 143.198C130.48 143.198 137.228 147.306 143.558 155.786C150.079 164.528 156.445 177.845 173.416 192.117C196.908 211.883 232.224 235.231 284.355 257.469C284.702 257.625 285.024 257.744 285.371 257.899C293.85 261.494 302.772 265.065 312.183 268.6C412.529 306.221 484.605 316.946 521.378 319.92V255.188L217.367 158.007L193.898 154.006L130.48 143.198Z" fill="#E63A39"/>
<path d="M135.413 92.8337C135.413 92.8337 147.798 119.921 193.898 154.006C221.415 174.357 260.971 197.205 317.116 218.236C413.138 254.245 483.292 265.615 521.378 269.126V203.26L222.323 107.655L135.413 92.8457V92.8337Z" fill="#F1F0E3"/>
<path d="M185.777 0L217.367 129.368C313.174 184.664 476.114 226.549 521.379 223.193V0H185.777Z" fill="#1B3257"/>
<path d="M493.73 182.001L491.378 189.167L498.508 186.671L504.599 191.125L504.431 183.589L510.546 179.17L503.321 176.997L501.004 169.807L496.704 176.017L489.156 175.993L493.73 182.001Z" fill="#F1F0E3"/>
<path d="M446.603 174.19L444.239 181.368L451.369 178.872L457.46 183.327L457.293 175.778L463.407 171.36L456.182 169.198L453.877 162.008L449.577 168.207L442.029 168.183L446.603 174.19Z" fill="#F1F0E3"/>
<path d="M401.601 162.355L398.125 169.055L405.566 167.741L410.857 173.116L411.908 165.639L418.656 162.271L411.872 158.963L410.749 151.499L405.506 156.933L398.054 155.691L401.601 162.355Z" fill="#F1F0E3"/>
<path d="M354.999 147.665L351.954 154.568L359.287 152.788L364.912 157.828L365.485 150.292L372.006 146.506L365.031 143.628L363.443 136.247L358.546 142.004L351.046 141.239L354.999 147.665Z" fill="#F1F0E3"/>
<path d="M311.311 133.906L308.194 140.785L315.55 139.077L321.128 144.165L321.773 136.641L328.33 132.903L321.379 129.965L319.85 122.572L314.906 128.281L307.405 127.445L311.311 133.906Z" fill="#F1F0E3"/>
<path d="M246.46 61.4473L243.307 68.3027L250.664 66.6307L256.218 71.7423L256.899 64.2301L263.479 60.5277L256.54 57.5539L255.059 50.1492L250.079 55.8341L242.591 54.9622L246.46 61.4473Z" fill="#F1F0E3"/>
<path d="M478.885 128.818L476.496 135.984L483.638 133.524L489.705 138.014L489.574 130.466L495.713 126.083L488.499 123.874L486.23 116.672L481.895 122.859L474.347 122.787L478.885 128.818Z" fill="#F1F0E3"/>
<path d="M432.355 120.793L429.966 127.947L437.108 125.486L443.175 129.977L443.044 122.429L449.183 118.046L441.969 115.836L439.7 108.635L435.364 114.821L427.816 114.761L432.355 120.793Z" fill="#F1F0E3"/>
<path d="M385.275 108.67L381.764 115.347L389.204 114.069L394.471 119.479L395.558 112.002L402.33 108.67L395.558 105.326L394.471 97.8618L389.204 103.26L381.764 101.982L385.275 108.67Z" fill="#F1F0E3"/>
<path d="M339.15 93.7414L336.069 100.633L343.414 98.8889L349.003 103.953L349.624 96.4286L356.169 92.6785L349.206 89.7644L347.653 82.3835L342.733 88.1043L335.221 87.2922L339.15 93.7414Z" fill="#F1F0E3"/>
<path d="M292.728 79.6964L289.587 86.5637L296.944 84.8916L302.497 90.0033L303.178 82.4791L309.759 78.7887L302.82 75.8149L301.339 68.4102L296.358 74.0951L288.87 73.2232L292.728 79.6964Z" fill="#F1F0E3"/>
<path d="M492.034 42.4339L489.538 49.552L496.716 47.1992L502.723 51.7615L502.687 44.2134L508.898 39.9139L501.708 37.6089L499.534 30.3833L495.115 36.4982L487.567 36.3429L492.034 42.4339Z" fill="#F1F0E3"/>
<path d="M446.006 33.7989L443.522 40.917L450.687 38.5642L456.695 43.1265L456.671 35.5784L462.869 31.2789L455.68 28.9739L453.506 21.7483L449.087 27.8751L441.539 27.7079L446.006 33.7989Z" fill="#F1F0E3"/>
<path d="M399.487 21.0675L395.88 27.6959L403.332 26.5255L408.54 31.9954L409.722 24.5429L416.53 21.2944L409.806 17.8667L408.826 10.3784L403.488 15.717L396.059 14.3435L399.487 21.0675Z" fill="#F1F0E3"/>
<path d="M353.96 5.55354L350.772 12.385L358.14 10.7488L363.67 15.8963L364.375 8.37212L370.991 4.69364L364.052 1.69592L363.718 0H350.664L353.96 5.55354Z" fill="#F1F0E3"/>
<path d="M268.649 117.258L265.007 123.874L272.471 122.727L277.643 128.233L278.861 120.781L285.692 117.556L278.98 114.105L278.037 106.616L272.674 111.919L265.258 110.51L268.649 117.258Z" fill="#F1F0E3"/>
<path d="M503.416 89.0955L501.051 96.2614L508.181 93.7772L514.272 98.232L514.105 90.6959L520.232 86.277L513.006 84.1033L510.701 76.9136L506.402 83.112L498.854 83.0882L503.416 89.0955Z" fill="#F1F0E3"/>
<path d="M458.45 81.297L456.085 88.4628L463.215 85.9787L469.306 90.4334L469.139 82.8973L475.266 78.4784L468.04 76.3047L465.735 69.115L461.436 75.3135L453.888 75.2896L458.45 81.297Z" fill="#F1F0E3"/>
<path d="M229.907 8.26463L226.885 15.1797L234.206 13.3763L239.856 18.3924L240.393 10.8563L246.914 7.02255L239.915 4.18009L238.984 0H235.604L233.43 2.57971L225.918 1.85118L229.907 8.26463Z" fill="#F1F0E3"/>
<path d="M473.081 5.44606L480.426 3.64265L486.063 8.65875L486.601 1.12265L488.523 0H475.446L473.081 5.44606Z" fill="#F1F0E3"/>
<path d="M412.91 69.4134L409.435 76.1016L416.863 74.7998L422.154 80.1741L423.217 72.7097L429.965 69.3298L423.181 66.0216L422.071 58.5571L416.816 63.9912L409.375 62.7372L412.91 69.4134Z" fill="#F1F0E3"/>
<path d="M368.327 54.7114L365.27 61.6145L372.603 59.8469L378.228 64.8869L378.801 57.3627L385.334 53.5768L378.359 50.6985L376.771 43.3176L371.874 49.0623L364.374 48.286L368.327 54.7114Z" fill="#F1F0E3"/>
<path d="M323.445 40.9051L320.328 47.7843L327.685 46.0764L333.25 51.1642L333.907 43.64L340.464 39.9138L333.513 36.9758L331.996 29.583L327.052 35.2799L319.552 34.4439L323.445 40.9051Z" fill="#F1F0E3"/>
<path d="M278.384 24.1611L274.741 30.7776L282.206 29.643L287.365 35.1488L288.595 27.6963L295.427 24.4836L288.727 21.0201L287.783 13.5317L282.409 18.8345L274.992 17.4132L278.384 24.1611Z" fill="#F1F0E3"/>
<path d="M9.56908 77.7974C9.76017 83.6376 11.8144 89.5375 15.6242 95.3896C17.153 97.7543 18.9803 100.131 21.1181 102.472C40.1554 123.659 82.0637 143.604 141.421 157.255C143.989 157.852 146.592 158.437 149.232 158.999C231.15 176.615 272.664 199.916 283.413 228.101C283.496 228.125 283.544 228.125 283.544 228.125L276.068 192.487L267.707 152.717L256.612 99.8324L251.895 77.3555L248.228 59.9783L241.337 27.0989L237.312 7.95413L235.652 0.0119629H174.456C156.362 4.83698 135.545 9.76948 111.683 14.8214C103.454 16.5651 95.7505 18.4163 88.5727 20.375C83.7716 21.6887 79.2093 23.0502 74.8501 24.4476C66.9199 26.9676 59.8018 29.6428 53.3764 32.4136C53.1017 32.545 52.7912 32.6764 52.4687 32.8197C48.8738 34.3962 45.5298 36.0085 42.4126 37.6686C37.5279 40.2363 33.2403 42.8758 29.4902 45.5988C29.2155 45.8138 28.9289 46.0049 28.6661 46.196C24.2472 49.4445 20.6284 52.8124 17.7859 56.2282C14.1911 60.5157 11.7786 64.9227 10.5245 69.4014C9.74823 72.1842 9.40188 74.9788 9.50937 77.7974H9.56908Z" fill="#EA5A5B"/>
<path d="M17.8452 56.2282C18.3348 57.0045 18.8962 57.757 19.4814 58.5094C23.5779 63.8121 29.2628 68.9357 36.4286 73.7727C59.7058 89.5614 98.6761 102.603 149.828 110.116C152.432 110.522 155.083 110.892 157.771 111.238C237.622 121.832 256.456 133.703 267.719 152.717L256.624 99.8325C241.922 88.4866 209.878 77.6303 165.151 76.3643C162.44 76.3046 159.765 76.0419 157.138 76.0657C108.816 76.4121 74.3002 69.3059 51.5964 59.2021C42.2927 55.0698 34.9955 50.4358 29.5255 45.5989C29.2508 45.8139 28.9642 46.0049 28.7015 46.196C24.2825 49.4446 20.6637 52.8125 17.8213 56.2282H17.8452Z" fill="#F1F0E3"/>
<path d="M52.5161 32.8195C60.7807 35.5784 70.1083 37.967 80.5943 39.8659C99.7391 43.3533 122.777 45.2523 150.366 44.8223C206.033 43.9624 232.738 50.1848 248.252 59.9781L241.36 27.0988C225.058 18.7625 197.649 16.0753 156.146 20.4226C141.588 21.9274 125.895 24.8415 109.091 25.8447C98.1268 26.4897 86.7211 26.3225 74.8736 24.4474C66.9433 26.9674 59.8253 29.6426 53.3999 32.4134C53.1252 32.5448 52.8147 32.6762 52.4922 32.8195H52.5161Z" fill="#F1F0E3"/>
<path d="M9.54417 76.7941V76.818C9.54417 77.1643 9.54417 77.4629 9.56806 77.8093C10.5593 107.464 59.2872 138.385 141.42 157.267C143.988 157.864 146.591 158.449 149.231 159.01C231.148 176.627 272.663 199.928 283.412 228.113C283.495 228.137 283.543 228.137 283.543 228.137L276.066 192.499C252.395 171.849 211.574 154.365 162.07 145.192C82.0985 130.383 34.6725 119.18 14.9305 91.5319C10.4518 85.2498 10.3921 74.3219 13.8317 64.5763C14.8827 61.5786 16.2681 58.7242 17.9402 56.1086C14.2736 60.432 11.8492 64.8988 10.5713 69.4133C10.4877 69.688 10.416 70.0104 10.3324 70.3807C9.79497 72.5065 9.53223 74.6443 9.53223 76.7941H9.54417Z" fill="#E63A39"/>
<path d="M141.421 157.255L145.123 178.418L148.981 200.465L149.924 205.887L155.096 235.387L156.254 242.087L160.136 264.337L169.595 318.403L170.777 325.235L180.666 381.738C180.535 373.425 185.515 364.981 196.646 356.502C251.572 314.593 285.323 277.176 286.267 245.132C286.434 239.28 285.514 233.595 283.424 228.101C277.931 213.698 264.411 200.561 241.54 188.809C235.449 185.691 228.689 182.646 221.237 179.72C219.839 179.159 218.394 178.597 216.925 178.06C216.925 178.06 216.901 178.06 216.901 178.036C214.226 177.045 211.479 176.053 208.637 175.062C205.531 174.011 202.355 172.948 199.034 171.897C197.183 171.312 195.308 170.751 193.397 170.177C187.127 168.302 180.523 166.475 173.56 164.707C165.892 162.749 157.795 160.85 149.244 158.999C146.592 158.437 143.989 157.852 141.433 157.255H141.421Z" fill="#87191D"/>
<path d="M180.654 381.427V381.749C180.928 399.64 205.519 418.247 242.973 435.589C236.941 423.49 230.719 405.958 230.958 385.476C210.607 374.727 199.524 365.304 195.594 357.326C194.543 358.15 193.552 358.986 192.621 359.822C192.107 360.252 191.605 360.706 191.14 361.159C190.757 361.53 190.387 361.888 190.017 362.282C189.587 362.688 189.193 363.106 188.835 363.512C188.727 363.596 188.667 363.667 188.62 363.751C188.297 364.074 187.999 364.42 187.712 364.766C187.342 365.172 186.995 365.59 186.673 365.996C186.41 366.343 186.135 366.713 185.897 367.047C185.622 367.394 185.383 367.764 185.144 368.098C184.846 368.504 184.583 368.934 184.32 369.352C183.866 370.069 183.484 370.774 183.138 371.478C182.947 371.849 182.767 372.207 182.624 372.553C182.409 373.007 182.242 373.461 182.063 373.915C181.287 375.921 180.857 377.916 180.701 379.874C180.654 380.388 180.642 380.913 180.642 381.427H180.654Z" fill="#B8212B"/>
<path d="M262.571 296.045H262.595C264.637 297.013 266.727 297.956 268.841 298.936C279.029 281.212 283.615 267.776 285.383 257.911C285.036 257.756 284.714 257.636 284.367 257.481C284.212 258.102 284.021 258.735 283.83 259.356C283.663 259.977 283.448 260.61 283.233 261.255C279.96 271.049 274.061 281.284 265.856 291.937C265.426 292.498 264.972 293.084 264.518 293.657C263.873 294.457 263.252 295.245 262.583 296.045H262.571Z" fill="#E1DBBC"/>
<path d="M284.355 257.481C284.702 257.637 285.024 257.756 285.371 257.911C286.314 252.716 286.469 248.524 286.254 245.204C286.231 245.479 286.231 245.789 286.207 246.064C286.183 246.434 286.159 246.78 286.147 247.139C286.087 248.082 285.992 249.05 285.872 250.029C285.824 250.411 285.765 250.781 285.705 251.175C285.406 253.242 284.953 255.355 284.367 257.481H284.355Z" fill="#B8212B"/>
<path d="M195.594 357.326C199.511 365.292 210.606 374.727 230.957 385.476C231.089 371.825 234.074 356.86 241.945 341.31C235.961 338.097 230.766 335.04 226.526 332.293C220.758 337.309 214.619 342.397 208.134 347.556C207.035 348.44 205.936 349.3 204.802 350.184C203.787 350.984 202.76 351.796 201.721 352.596C200.037 353.91 198.365 355.2 196.633 356.514C196.286 356.776 195.94 357.051 195.594 357.338V357.326Z" fill="#E1DBBC"/>
<path d="M228.893 330.215C229.406 329.761 229.932 329.307 230.421 328.854C230.911 328.4 231.413 327.97 231.902 327.492C232.499 326.979 233.085 326.441 233.67 325.916C236.023 323.802 238.28 321.7 240.453 319.61C241.493 318.642 242.472 317.675 243.463 316.707C244.669 315.525 245.876 314.343 247.034 313.172C250.044 310.139 252.886 307.117 255.585 304.155C256.66 302.973 257.699 301.791 258.703 300.62C258.81 300.489 258.918 300.357 259.025 300.25C259.933 299.199 260.816 298.136 261.676 297.109C261.975 296.739 262.274 296.392 262.56 296.034H262.584C264.626 297.001 266.716 297.945 268.83 298.924C265.689 304.394 262.023 310.294 257.735 316.6C255.908 319.287 253.961 322.046 251.919 324.888C247.93 330.406 244.645 335.888 241.922 341.298C235.939 338.086 230.744 335.028 226.504 332.281C227.304 331.589 228.092 330.908 228.869 330.215H228.893Z" fill="#B8212B"/>
<path d="M160.136 264.349L169.595 318.415L170.777 325.246C185.455 290.671 249.972 273.557 264.793 243.269C274.192 224.064 256.457 202.376 241.54 188.808C235.449 185.691 228.689 182.646 221.237 179.72C241.158 196.285 262.321 220.529 230.887 230.43C193.803 242.122 172.318 254.746 160.148 264.349H160.136Z" fill="#B8212B"/>
<path d="M148.98 200.477L149.924 205.899L155.095 235.398C169.546 214.164 223.637 208.61 224.282 193.562C224.521 187.829 221.284 182.359 216.913 178.06C216.913 178.06 216.889 178.06 216.889 178.036C214.214 177.044 211.467 176.053 208.624 175.062C205.519 174.011 202.342 172.948 199.022 171.897C209.974 174.883 214.405 181.786 206.678 183.028C160.84 190.349 156.732 195.628 148.98 200.477Z" fill="#B8212B"/>
<path d="M141.421 157.255L144.634 174.465C151.632 168.458 163.396 165.245 173.56 164.707C165.892 162.749 157.795 160.85 149.244 158.999C146.592 158.437 143.989 157.852 141.433 157.255H141.421Z" fill="#B8212B"/>
<path d="M29.5371 45.5867C35.0071 50.4356 42.3043 55.0576 51.608 59.1899C60.2428 52.1316 70.1078 45.6942 80.5939 39.854C70.1078 37.9551 60.7803 35.5665 52.5156 32.8076C48.9208 34.3841 45.5767 35.9964 42.4596 37.6565C37.5748 40.2243 33.2872 42.8637 29.5371 45.5867Z" fill="#E74040"/>
<path d="M74.885 24.4356C86.7325 26.3107 98.1382 26.4779 109.102 25.8329C138.064 13.1732 167.181 4.58615 184.535 0H174.479C156.385 4.82501 135.568 9.75752 111.706 14.8095C103.477 16.5531 95.7735 18.4043 88.5957 20.363C83.7945 21.6767 79.2323 23.0382 74.873 24.4356H74.885Z" fill="#E74040"/>
<path d="M52.5158 32.8196C60.7805 35.5785 70.108 37.9671 80.5941 39.8661C89.7903 34.7186 99.4403 30.0488 109.102 25.8449C98.1385 26.4898 86.7328 26.3226 74.8853 24.4475C66.9551 26.9675 59.837 29.6428 53.4116 32.4136C53.1369 32.5449 52.8264 32.6763 52.5039 32.8196H52.5158Z" fill="#DED7B2"/>
<path d="M9.56894 77.7975C9.76003 83.6377 11.8142 89.5376 15.6241 95.3897C17.1528 97.7545 18.9801 100.131 21.1179 102.472C23.4468 92.1412 28.869 82.5748 36.429 73.7727C29.2631 68.9238 23.5782 63.8002 19.4817 58.5094C18.8965 57.757 18.3352 57.0046 17.8455 56.2283C14.2506 60.5158 11.8381 64.9229 10.5841 69.4015C9.8078 72.1843 9.46145 74.9789 9.56894 77.7975Z" fill="#E74040"/>
<path d="M17.845 56.228C18.3346 57.0043 18.8959 57.7567 19.4812 58.5091C23.5776 63.8119 29.2626 68.9354 36.4284 73.7724C40.8235 68.6488 45.9471 63.776 51.6081 59.1899C42.3044 55.0576 35.0072 50.4236 29.5373 45.5867C29.2626 45.8016 28.9759 45.9927 28.7132 46.1838C24.2942 49.4323 20.6755 52.8003 17.833 56.216L17.845 56.228Z" fill="#DED7B2"/>
</svg>
