<svg width="157" height="67" viewBox="0 0 157 67" fill="none" xmlns="http://www.w3.org/2000/svg">
<path d="M10.9593 0C12.219 0 13.3779 0.251938 14.4361 0.755814C15.5446 1.2093 16.5019 1.83915 17.3081 2.64535C18.1144 3.45155 18.7442 4.40892 19.1977 5.51745C19.7016 6.57559 19.9535 7.70931 19.9535 8.91861V57.3663C19.9535 58.5756 19.7016 59.7345 19.1977 60.8431C18.7442 61.9516 18.1144 62.909 17.3081 63.7152C16.5019 64.5214 15.5446 65.1764 14.4361 65.6803C13.3779 66.1338 12.219 66.3605 10.9593 66.3605H2.26744C1.6124 66.3605 1.05814 66.1338 0.604651 65.6803C0.20155 65.2268 0 64.6977 0 64.0931C0 63.69 0.100775 63.3121 0.302326 62.9593C0.100775 62.7074 0 62.3547 0 61.9012C0 61.3469 0.20155 60.8683 0.604651 60.4652C1.00775 60.0117 1.48643 59.7345 2.0407 59.6338V6.65117C1.48643 6.60078 1.00775 6.37404 0.604651 5.97093C0.20155 5.51745 0 5.01357 0 4.45931C0 3.95543 0.100775 3.57752 0.302326 3.32559C0.100775 3.07365 0 2.72093 0 2.26745C0 1.61241 0.20155 1.08334 0.604651 0.680233C1.05814 0.226744 1.6124 0 2.26744 0H10.9593ZM19.0465 8.91861C19.0465 8.1628 18.9206 7.3566 18.6686 6.50001C18.1144 4.8876 17.1318 3.55233 15.7209 2.49419C14.3605 1.43605 12.7733 0.906979 10.9593 0.906979H2.26744C1.86434 0.906979 1.53682 1.03295 1.28488 1.28489C1.03295 1.53682 0.906977 1.86434 0.906977 2.26745C0.906977 2.41861 0.932171 2.51938 0.982559 2.56977C1.13372 3.2752 1.56202 3.62791 2.26744 3.62791C2.62016 3.62791 2.8469 3.82946 2.94768 4.23256V59.9361C2.8469 60.3392 2.62016 60.5407 2.26744 60.5407H2.0407C1.28488 60.6919 0.906977 61.1454 0.906977 61.9012C0.906977 62.0524 0.932171 62.1531 0.982559 62.2035C1.13372 62.909 1.56202 63.2617 2.26744 63.2617H10.9593C12.0678 63.2617 13.1008 63.0601 14.0581 62.657C15.0659 62.2035 15.9225 61.6241 16.6279 60.9186C17.3837 60.1628 17.9632 59.3062 18.3663 58.3489C18.8198 57.3411 19.0465 56.283 19.0465 55.1745V8.91861ZM10.9593 7.25582C11.4632 7.25582 11.8663 7.43218 12.1686 7.78489C12.5213 8.08722 12.6977 8.46512 12.6977 8.91861V55.1745C12.6977 55.8295 12.3954 56.3334 11.7907 56.6861C11.5388 56.8372 11.2616 56.9128 10.9593 56.9128H9.22093V7.25582H10.9593ZM11.7907 11.1105C11.7907 10.5562 11.5136 10.2791 10.9593 10.2791H10.1279V56.0059H10.9593C11.5136 56.0059 11.7907 55.7287 11.7907 55.1745V11.1105ZM11.4884 4.30815C12.7985 4.30815 13.8818 4.76163 14.7384 5.66861C15.6454 6.57558 16.0988 7.65892 16.0988 8.91861V55.1745C16.0988 56.4845 15.6454 57.5931 14.7384 58.5C13.8818 59.3566 12.7985 59.7849 11.4884 59.7849H6.87791V4.30815H11.4884ZM14.0581 8.91861C14.0581 8.06202 13.7558 7.3566 13.1512 6.80233C12.5465 6.19768 11.8159 5.89535 10.9593 5.89535H7.86047V58.2733H10.9593C11.8159 58.2733 12.5465 57.971 13.1512 57.3663C13.7558 56.7617 14.0581 56.031 14.0581 55.1745V8.91861ZM10.9593 2.26745C12.8237 2.26745 14.4109 2.92248 15.7209 4.23256C17.031 5.49225 17.6861 7.05427 17.6861 8.91861V55.1745C17.6861 57.0388 17.031 58.626 15.7209 59.9361C14.4109 61.2462 12.8237 61.9012 10.9593 61.9012H2.26744C2.82171 61.9012 3.2752 61.7248 3.62791 61.3721C4.03101 60.969 4.25775 60.4904 4.30814 59.9361V4.23256C4.25775 3.6783 4.03101 3.22481 3.62791 2.87209C3.2752 2.469 2.82171 2.26745 2.26744 2.26745H10.9593ZM16.7035 8.91861C16.7035 7.50776 16.1996 6.29846 15.1919 5.2907C14.1841 4.28295 12.9496 3.77907 11.4884 3.77907H6.42442L4.38372 2.41861L6.34884 4.0814V60.0117L4.38372 61.6745L6.34884 60.314H11.4884C12.9496 60.314 14.1841 59.8353 15.1919 58.8779C16.1996 57.8702 16.7035 56.6357 16.7035 55.1745V8.91861Z" fill="white"/>
<path d="M34.9753 0C36.1846 0 37.3183 0.251938 38.3765 0.755814C39.485 1.2093 40.4424 1.83915 41.2486 2.64535C42.0548 3.45155 42.6846 4.40892 43.1381 5.51745C43.642 6.57559 43.8939 7.70931 43.8939 8.91861V57.3663C43.8939 58.5756 43.642 59.7345 43.1381 60.8431C42.6846 61.9516 42.0548 62.909 41.2486 63.7152C40.4424 64.5214 39.485 65.1764 38.3765 65.6803C37.3183 66.1338 36.1846 66.3605 34.9753 66.3605C33.7156 66.3605 32.5315 66.1338 31.423 65.6803C30.3648 65.1764 29.4327 64.5214 28.6265 63.7152C27.8203 62.909 27.1652 61.9516 26.6614 60.8431C26.2079 59.7345 25.9811 58.5756 25.9811 57.3663V8.91861C25.9811 7.70931 26.2079 6.57559 26.6614 5.51745C27.1652 4.40892 27.8203 3.45155 28.6265 2.64535C29.4327 1.83915 30.3648 1.2093 31.423 0.755814C32.5315 0.251938 33.7156 0 34.9753 0ZM42.9869 8.91861C42.9869 8.1628 42.861 7.3566 42.609 6.50001C42.0548 4.8876 41.0722 3.55233 39.6614 2.49419C38.3009 1.43605 36.7389 0.906979 34.9753 0.906979C33.1614 0.906979 31.549 1.43605 30.1381 2.49419C28.7776 3.55233 27.8203 4.8876 27.266 6.50001C27.0141 7.3566 26.8881 8.1628 26.8881 8.91861V55.1745C26.8881 56.283 27.0896 57.3411 27.4927 58.3489C27.9462 59.3062 28.5257 60.1628 29.2311 60.9186C29.9869 61.6241 30.8435 62.2035 31.8009 62.657C32.8086 63.0601 33.8668 63.2617 34.9753 63.2617C36.0838 63.2617 37.1168 63.0601 38.0742 62.657C39.0315 62.2035 39.8629 61.6241 40.5683 60.9186C41.3242 60.1628 41.9036 59.3062 42.3067 58.3489C42.7602 57.3411 42.9869 56.283 42.9869 55.1745V8.91861ZM34.9753 7.25582C35.4288 7.25582 35.8067 7.43218 36.109 7.78489C36.4617 8.08722 36.6381 8.46512 36.6381 8.91861V55.1745C36.6381 55.8295 36.3358 56.3334 35.7311 56.6861C35.4792 56.8372 35.2272 56.9128 34.9753 56.9128C34.6226 56.9128 34.3455 56.8372 34.1439 56.6861C33.5393 56.3334 33.2369 55.8295 33.2369 55.1745V8.91861C33.2369 8.46512 33.3881 8.08722 33.6904 7.78489C34.0431 7.43218 34.4714 7.25582 34.9753 7.25582ZM35.7311 11.1105C35.7311 10.5562 35.4792 10.2791 34.9753 10.2791C34.421 10.2791 34.1439 10.5562 34.1439 11.1105V55.1745C34.1439 55.7287 34.421 56.0059 34.9753 56.0059C35.4792 56.0059 35.7311 55.7287 35.7311 55.1745V11.1105ZM35.5044 4.30815C36.7641 4.30815 37.8474 4.76163 38.7544 5.66861C39.6614 6.57558 40.1148 7.65892 40.1148 8.91861V55.1745C40.1148 56.4845 39.6614 57.5931 38.7544 58.5C37.8474 59.3566 36.7641 59.7849 35.5044 59.7849H34.9753C33.8164 59.6338 32.8338 59.1299 32.0276 58.2733C31.2718 57.3663 30.8939 56.3334 30.8939 55.1745V8.91861C30.8939 7.7597 31.2718 6.75194 32.0276 5.89535C32.8338 4.98838 33.8164 4.4845 34.9753 4.38373C35.0761 4.33334 35.2524 4.30815 35.5044 4.30815ZM37.9986 8.91861C37.9986 8.06202 37.6962 7.3566 37.0916 6.80233C36.5373 6.19768 35.8319 5.89535 34.9753 5.89535C34.1187 5.89535 33.3881 6.19768 32.7834 6.80233C32.1788 7.3566 31.8765 8.06202 31.8765 8.91861V55.1745C31.8765 56.031 32.1788 56.7617 32.7834 57.3663C33.3881 57.971 34.1187 58.2733 34.9753 58.2733C35.8319 58.2733 36.5373 57.971 37.0916 57.3663C37.6962 56.7617 37.9986 56.031 37.9986 55.1745V8.91861ZM34.9753 2.26745C36.7893 2.26745 38.3513 2.92248 39.6614 4.23256C40.9714 5.49225 41.6265 7.05427 41.6265 8.91861V55.1745C41.6265 56.0814 41.4501 56.9632 41.0974 57.8198C40.7447 58.626 40.266 59.3314 39.6614 59.9361C39.0567 60.5407 38.3513 61.0194 37.5451 61.3721C36.7389 61.7248 35.8823 61.9012 34.9753 61.9012C33.111 61.9012 31.5238 61.2462 30.2137 59.9361C28.9036 58.626 28.2486 57.0388 28.2486 55.1745V8.91861C28.2486 7.05427 28.9036 5.49225 30.2137 4.23256C31.5238 2.92248 33.111 2.26745 34.9753 2.26745ZM40.6439 8.91861C40.6439 7.50776 40.14 6.29846 39.1323 5.2907C38.1245 4.28295 36.9152 3.77907 35.5044 3.77907H34.9753C33.6652 3.93024 32.5567 4.5097 31.6497 5.51745C30.7427 6.47481 30.2893 7.60853 30.2893 8.91861V55.1745C30.2893 56.4845 30.7427 57.6435 31.6497 58.6512C32.5567 59.659 33.6652 60.2132 34.9753 60.314H35.5044C36.9152 60.314 38.1245 59.8353 39.1323 58.8779C40.14 57.8702 40.6439 56.6357 40.6439 55.1745V8.91861Z" fill="white"/>
<path d="M74.0043 4.45931C74.0043 5.01357 73.8027 5.51745 73.3996 5.97093C72.9965 6.37404 72.5178 6.60078 71.9636 6.65117V59.6338C72.5178 59.7345 72.9965 60.0117 73.3996 60.4652C73.8027 60.8683 74.0043 61.3469 74.0043 61.9012C74.0043 62.2035 73.9035 62.5562 73.7019 62.9593C73.8027 63.1609 73.8783 63.3373 73.9287 63.4884C73.9791 63.6396 74.0043 63.8411 74.0043 64.0931C74.0043 64.6977 73.7775 65.2268 73.324 65.6803C72.8705 66.1338 72.3415 66.3605 71.7368 66.3605H63.4229C62.7174 66.3605 62.138 66.0582 61.6845 65.4535C61.1806 66.0582 60.576 66.3605 59.8705 66.3605H52.2368C51.5818 66.3605 51.0275 66.1338 50.574 65.6803C50.1709 65.2268 49.9694 64.6977 49.9694 64.0931C49.9694 63.69 50.0701 63.3121 50.2717 62.9593C50.0701 62.7074 49.9694 62.3547 49.9694 61.9012C49.9694 61.3469 50.1709 60.8683 50.574 60.4652C50.9771 60.0117 51.4558 59.7345 52.0101 59.6338V6.65117C51.4558 6.60078 50.9771 6.37404 50.574 5.97093C50.1709 5.51745 49.9694 5.01357 49.9694 4.45931C49.9694 3.95543 50.0701 3.57752 50.2717 3.32559C50.0701 3.07365 49.9694 2.72093 49.9694 2.26745C49.9694 1.61241 50.1709 1.08334 50.574 0.680233C51.0275 0.226744 51.5818 0 52.2368 0H60.3996C61.1554 0 61.7601 0.302326 62.2136 0.906979C62.7174 0.302326 63.3221 0 64.0275 0H71.7368C72.3415 0 72.8705 0.226744 73.324 0.680233C73.7775 1.08334 74.0043 1.61241 74.0043 2.26745C74.0043 2.56977 73.9035 2.92248 73.7019 3.32559C73.9035 3.72868 74.0043 4.10659 74.0043 4.45931ZM62.2136 5.74419C61.8608 6.14729 61.4829 6.42442 61.0798 6.57559L63.8008 20.407V6.65117C63.0953 6.60078 62.5663 6.29845 62.2136 5.74419ZM61.6845 60.4652C61.9868 60.1124 62.3899 59.8605 62.8938 59.7093L60.0973 45.8779V59.6338C60.7523 59.6842 61.2814 59.9613 61.6845 60.4652ZM71.7368 60.5407C71.2833 60.5407 71.0566 60.3392 71.0566 59.9361V4.23256C71.0566 3.82946 71.2833 3.62791 71.7368 3.62791C72.3919 3.62791 72.8202 3.2752 73.0217 2.56977C73.0217 2.51938 73.0217 2.46899 73.0217 2.41861C73.0721 2.36822 73.0973 2.31783 73.0973 2.26745C73.0973 1.86434 72.9713 1.53682 72.7194 1.28489C72.4674 1.03295 72.1399 0.906979 71.7368 0.906979H64.0275C63.6748 0.906979 63.3725 1.03295 63.1205 1.28489C62.8686 1.53682 62.7426 1.86434 62.7426 2.26745V2.56977C62.8938 3.2752 63.3221 3.62791 64.0275 3.62791C64.481 3.62791 64.7077 3.82946 64.7077 4.23256V29.6279L59.7194 4.45931V4.23256C59.7194 3.82946 59.9461 3.62791 60.3996 3.62791C61.0546 3.62791 61.4829 3.2752 61.6845 2.56977C61.6845 2.51938 61.6845 2.46899 61.6845 2.41861C61.7349 2.36822 61.7601 2.31783 61.7601 2.26745C61.7601 1.86434 61.6341 1.53682 61.3822 1.28489C61.1302 1.03295 60.8027 0.906979 60.3996 0.906979H52.2368C51.8337 0.906979 51.5062 1.03295 51.2543 1.28489C51.0023 1.53682 50.8763 1.86434 50.8763 2.26745C50.8763 2.41861 50.9015 2.51938 50.9519 2.56977C51.1031 3.2752 51.5314 3.62791 52.2368 3.62791C52.5895 3.62791 52.8163 3.80427 52.917 4.15698V59.9361C52.8163 60.3392 52.5895 60.5407 52.2368 60.5407H52.0101C51.2543 60.6919 50.8763 61.1454 50.8763 61.9012C50.8763 62.0524 50.9015 62.1531 50.9519 62.2035C51.1031 62.909 51.5314 63.2617 52.2368 63.2617H59.8705C60.5256 63.2617 60.9539 62.909 61.1554 62.2035C61.2058 62.1531 61.231 62.0524 61.231 61.9012C61.231 61.1454 60.8531 60.6919 60.0973 60.5407H59.8705C59.5178 60.5407 59.2911 60.3392 59.1903 59.9361V34.5407L64.1031 59.0291V59.8605C64.1031 60.314 63.8764 60.5407 63.4229 60.5407C63.2717 60.5407 63.1457 60.5659 63.045 60.6163C62.3899 60.8179 62.0624 61.2462 62.0624 61.9012C62.0624 62.0524 62.0876 62.1531 62.138 62.2035C62.2891 62.909 62.7174 63.2617 63.4229 63.2617H71.7368C72.3919 63.2617 72.8202 62.909 73.0217 62.2035C73.0217 62.1531 73.0217 62.1028 73.0217 62.0524C73.0721 62.002 73.0973 61.9516 73.0973 61.9012C73.0973 61.5485 72.9713 61.2714 72.7194 61.0698C72.5178 60.8179 72.2659 60.6415 71.9636 60.5407H71.7368ZM71.7368 2.26745C71.1825 2.26745 70.7039 2.469 70.3008 2.87209C69.8977 3.22481 69.6961 3.6783 69.6961 4.23256V59.9361C69.6961 60.4904 69.8977 60.969 70.3008 61.3721C70.7039 61.7248 71.1825 61.9012 71.7368 61.9012H63.4229C63.9771 61.9012 64.4558 61.6997 64.8589 61.2966C65.262 60.8935 65.4636 60.4148 65.4636 59.8605V58.9535L57.8298 20.7093V59.9361C57.8802 60.4904 58.0818 60.969 58.4345 61.3721C58.8376 61.7248 59.3163 61.9012 59.8705 61.9012H52.2368C52.7911 61.9012 53.2446 61.7248 53.5973 61.3721C54.0004 60.969 54.2271 60.4904 54.2775 59.9361V4.0814C54.2271 3.57752 54.0004 3.14923 53.5973 2.79651C53.2446 2.4438 52.7911 2.26745 52.2368 2.26745H60.3996C59.8453 2.26745 59.3667 2.469 58.9636 2.87209C58.5605 3.22481 58.3589 3.6783 58.3589 4.23256V4.61047L66.0682 43.4593V4.23256C66.0682 3.6783 65.8667 3.22481 65.4636 2.87209C65.0605 2.469 64.5818 2.26745 64.0275 2.26745H71.7368ZM66.0682 2.49419L68.1845 3.77907V59.1047L68.0333 58.4245L57.8298 7.25582L57.6031 5.74419L57.3763 4.61047L57.2252 4.00582L57.1496 3.77907L56.545 3.47675L56.0915 3.32559L54.4287 2.56977L54.2775 2.49419L54.3531 2.56977L56.0915 3.62791L56.3182 3.77907V60.314L54.2775 61.5989L54.1263 61.6745H54.2775L56.8473 60.314V4.98837L56.9984 5.74419L57.8298 10.0523L66.0682 51.3954L67.8066 60.0117V60.1628L67.8822 60.3896H67.8066L67.2775 60.6919L66.0682 61.4477L65.9926 61.5233H66.0682L67.2775 60.9942L67.8822 60.6919L68.7136 60.3896V3.77907L66.0682 2.49419Z" fill="white"/>
<path d="M105.252 61.9012C105.252 62.3043 105.177 62.657 105.026 62.9593C105.177 63.3624 105.252 63.7404 105.252 64.0931C105.252 64.6977 105.026 65.2268 104.572 65.6803C104.169 66.1338 103.64 66.3605 102.985 66.3605H95.3513C94.7466 66.3605 94.2176 66.1338 93.7641 65.6803C93.3106 65.2268 93.0839 64.6977 93.0839 64.0931C93.0839 63.8411 93.109 63.6396 93.1594 63.4884C93.2098 63.3373 93.2854 63.1609 93.3862 62.9593C93.1846 62.5562 93.0839 62.2035 93.0839 61.9012C93.0839 60.8431 93.5877 60.1376 94.5955 59.7849L93.8397 52.7559H91.5722L90.8164 59.7849C91.7738 60.1376 92.2525 60.8431 92.2525 61.9012C92.2525 62.3547 92.1517 62.7074 91.9501 62.9593C92.1517 63.3121 92.2525 63.69 92.2525 64.0931C92.2525 64.6977 92.0257 65.2268 91.5722 65.6803C91.1691 66.1338 90.6401 66.3605 89.985 66.3605H82.3513C81.6963 66.3605 81.142 66.1338 80.6885 65.6803C80.2854 65.2268 80.0838 64.6977 80.0838 64.0931C80.0838 63.69 80.1846 63.3121 80.3862 62.9593C80.1846 62.7074 80.0838 62.3547 80.0838 61.9012C80.0838 61.2462 80.2854 60.7171 80.6885 60.314C81.142 59.8605 81.6963 59.6338 82.3513 59.6338V59.5582L82.4269 58.8779L88.0955 6.57559C87.6924 6.42442 87.3397 6.17248 87.0373 5.81977C86.735 5.41667 86.5838 4.96318 86.5838 4.45931C86.5838 3.95543 86.6846 3.57752 86.8862 3.32559C86.6846 3.07365 86.5838 2.72093 86.5838 2.26745C86.5838 1.61241 86.8106 1.08334 87.2641 0.680233C87.7176 0.226744 88.2466 0 88.8513 0H96.485C97.1401 0 97.6691 0.226744 98.0722 0.680233C98.5257 1.08334 98.7525 1.61241 98.7525 2.26745C98.7525 2.72093 98.6517 3.07365 98.4501 3.32559C98.6517 3.57752 98.7525 3.95543 98.7525 4.45931C98.7525 5.51745 98.2486 6.22287 97.2408 6.57559L102.909 58.8779L102.985 59.5582C102.985 59.6086 103.01 59.6338 103.061 59.6338C103.665 59.6338 104.169 59.8605 104.572 60.314C105.026 60.7171 105.252 61.2462 105.252 61.9012ZM104.345 61.9012C104.345 61.4981 104.22 61.1706 103.968 60.9186C103.716 60.6667 103.388 60.5407 102.985 60.5407H102.834C102.431 60.44 102.179 60.1628 102.078 59.7093L102.002 59.0291L96.0315 3.85465C96.0819 3.70349 96.2331 3.62791 96.485 3.62791C97.1904 3.62791 97.6439 3.2752 97.8455 2.56977V2.26745C97.8455 1.86434 97.7195 1.53682 97.4676 1.28489C97.2156 1.03295 96.8881 0.906979 96.485 0.906979H88.8513C88.4482 0.906979 88.1207 1.03295 87.8687 1.28489C87.6168 1.53682 87.4908 1.86434 87.4908 2.26745C87.4908 2.41861 87.516 2.51938 87.5664 2.56977C87.7176 3.2752 88.1459 3.62791 88.8513 3.62791C89.0528 3.62791 89.204 3.70349 89.3048 3.85465L83.3338 59.0291L83.2583 59.7093C83.2583 60.1628 83.0063 60.44 82.5024 60.5407H82.3513C81.9482 60.5407 81.6207 60.6667 81.3687 60.9186C81.1168 61.1706 80.9908 61.4981 80.9908 61.9012C80.9908 62.0524 81.016 62.1531 81.0664 62.2035C81.2176 62.909 81.6459 63.2617 82.3513 63.2617H89.985C90.6401 63.2617 91.0683 62.909 91.2699 62.2035C91.3203 62.1531 91.3455 62.0524 91.3455 61.9012C91.3455 61.3973 91.1187 61.0194 90.6652 60.7675C90.5141 60.6163 90.2873 60.5407 89.985 60.5407C89.8842 60.5407 89.8087 60.5407 89.7583 60.5407C89.7583 60.4904 89.7331 60.4652 89.6827 60.4652C89.6323 60.3644 89.6071 60.2384 89.6071 60.0873L90.7408 49.657H94.5955L95.7292 60.0873C95.7292 60.2384 95.704 60.3644 95.6536 60.4652C95.6032 60.4652 95.5528 60.4904 95.5025 60.5407C95.5025 60.5407 95.4521 60.5407 95.3513 60.5407C95.0994 60.5407 94.8726 60.6163 94.6711 60.7675C94.2176 61.0194 93.9908 61.3973 93.9908 61.9012C93.9908 62.0524 94.016 62.1531 94.0664 62.2035C94.2176 62.909 94.6459 63.2617 95.3513 63.2617H102.985C103.69 63.2617 104.144 62.909 104.345 62.2035V61.9012ZM92.7059 31.8198L93.9152 43.3082H91.4211L92.7059 31.8198ZM93.235 4.98837L93.3106 5.74419L97.6943 46.1803H88.7757L88.9269 44.6686L93.1594 5.74419L93.235 4.98837ZM95.4269 44.6686L92.7059 19.1977L89.9094 44.6686H95.4269ZM100.718 59.8605C100.818 60.4148 101.07 60.8935 101.473 61.2966C101.927 61.6997 102.431 61.9012 102.985 61.9012H95.3513C95.9056 61.9012 96.359 61.7248 96.7118 61.3721C97.0645 60.969 97.1904 60.4904 97.0897 59.9361L95.8048 48.2965H89.5315L88.2466 59.9361C88.1963 60.4904 88.3222 60.969 88.6245 61.3721C88.9773 61.7248 89.4308 61.9012 89.985 61.9012H82.3513C82.9055 61.9012 83.3842 61.6997 83.7873 61.2966C84.2408 60.8935 84.518 60.4148 84.6187 59.8605L84.6943 59.1803L90.7408 3.55233C90.3881 2.69574 89.7583 2.26745 88.8513 2.26745H96.485C95.578 2.26745 94.9482 2.69574 94.5955 3.55233L100.642 59.1803L100.718 59.8605ZM99.735 60.0873V60.0117L99.5839 58.4245L93.8397 5.74419L93.6885 4.00582L93.6129 3.77907L91.1943 2.41861L92.7815 3.77907V4.00582L92.5548 5.74419L88.3978 44.6686L87.9443 48.2965L86.8862 58.4245L86.735 60.0873H86.6594V60.3896L84.4676 61.6745L87.1885 60.3896L87.2641 60.1628V60.0873L87.4152 58.4245L88.549 48.2965L88.7001 46.7849H97.7699L98.299 51.5465L99.0548 58.4245L99.2059 60.0873V60.3896L97.2408 61.5233L97.0141 61.6745L97.2408 61.5989L99.8106 60.3896L99.735 60.0873Z" fill="white"/>
<path d="M128.236 53.9652C128.891 53.9652 129.42 54.1919 129.823 54.6454C130.276 55.0989 130.503 55.6279 130.503 56.2326V64.0931C130.503 64.6977 130.276 65.2268 129.823 65.6803C129.42 66.1338 128.891 66.3605 128.236 66.3605H113.573C112.918 66.3605 112.364 66.1338 111.91 65.6803C111.507 65.2268 111.305 64.6977 111.305 64.0931C111.305 63.69 111.406 63.3121 111.608 62.9593C111.406 62.7074 111.305 62.3547 111.305 61.9012C111.305 61.3469 111.507 60.8683 111.91 60.4652C112.313 60.0117 112.792 59.7345 113.346 59.6338V6.65117C112.792 6.60078 112.313 6.37404 111.91 5.97093C111.507 5.51745 111.305 5.01357 111.305 4.45931C111.305 3.95543 111.406 3.57752 111.608 3.32559C111.406 3.07365 111.305 2.72093 111.305 2.26745C111.305 1.61241 111.507 1.08334 111.91 0.680233C112.364 0.226744 112.918 0 113.573 0H121.207C121.862 0 122.391 0.226744 122.794 0.680233C123.247 1.08334 123.474 1.61241 123.474 2.26745C123.474 2.72093 123.373 3.07365 123.172 3.32559C123.373 3.57752 123.474 3.95543 123.474 4.45931C123.474 5.01357 123.273 5.51745 122.869 5.97093C122.466 6.37404 121.988 6.60078 121.433 6.65117V56.0059H126.044C126.094 55.4516 126.321 54.9729 126.724 54.5698C127.178 54.1667 127.681 53.9652 128.236 53.9652ZM129.596 56.2326C129.596 55.8295 129.47 55.502 129.218 55.25C128.966 54.9981 128.639 54.8721 128.236 54.8721C127.833 54.8721 127.505 54.9981 127.253 55.25C127.001 55.502 126.875 55.8295 126.875 56.2326C126.875 56.6861 126.674 56.9128 126.271 56.9128H120.526V4.23256C120.627 3.82946 120.854 3.62791 121.207 3.62791C121.862 3.62791 122.29 3.2752 122.492 2.56977C122.542 2.51938 122.567 2.41861 122.567 2.26745C122.567 1.86434 122.441 1.53682 122.189 1.28489C121.937 1.03295 121.61 0.906979 121.207 0.906979H113.573C113.17 0.906979 112.842 1.03295 112.59 1.28489C112.338 1.53682 112.212 1.86434 112.212 2.26745C112.212 2.41861 112.238 2.51938 112.288 2.56977C112.439 3.2752 112.867 3.62791 113.573 3.62791C113.926 3.62791 114.152 3.82946 114.253 4.23256V59.9361C114.152 60.3392 113.926 60.5407 113.573 60.5407H113.346C112.59 60.6919 112.212 61.1454 112.212 61.9012C112.212 62.0524 112.238 62.1531 112.288 62.2035C112.439 62.909 112.867 63.2617 113.573 63.2617H128.236C128.639 63.2617 128.966 63.1357 129.218 62.8838C129.47 62.6318 129.596 62.3043 129.596 61.9012V56.2326ZM126.346 58.2733C126.9 58.2229 127.354 58.0214 127.707 57.6686C128.059 57.2655 128.236 56.7869 128.236 56.2326V61.9012H113.573C114.127 61.9012 114.581 61.7248 114.933 61.3721C115.336 60.969 115.563 60.4904 115.614 59.9361V4.23256C115.563 3.6783 115.336 3.22481 114.933 2.87209C114.581 2.469 114.127 2.26745 113.573 2.26745H121.207C120.652 2.26745 120.174 2.469 119.771 2.87209C119.418 3.22481 119.216 3.6783 119.166 4.23256V58.2733H126.346ZM127.253 59.7849H118.183V3.77907L115.614 2.49419L117.654 3.77907V60.0117L117.352 60.2384L115.689 61.6745L117.352 60.5407L117.654 60.314H127.253V59.7849Z" fill="white"/>
<path d="M147.508 0C148.767 0 149.926 0.251938 150.985 0.755814C152.093 1.2093 153.05 1.83915 153.857 2.64535C154.663 3.45155 155.293 4.40892 155.746 5.51745C156.25 6.57559 156.502 7.70931 156.502 8.91861V57.3663C156.502 58.5756 156.25 59.7345 155.746 60.8431C155.293 61.9516 154.663 62.909 153.857 63.7152C153.05 64.5214 152.093 65.1764 150.985 65.6803C149.926 66.1338 148.767 66.3605 147.508 66.3605H138.816C138.161 66.3605 137.607 66.1338 137.153 65.6803C136.75 65.2268 136.548 64.6977 136.548 64.0931C136.548 63.69 136.649 63.3121 136.851 62.9593C136.649 62.7074 136.548 62.3547 136.548 61.9012C136.548 61.3469 136.75 60.8683 137.153 60.4652C137.556 60.0117 138.035 59.7345 138.589 59.6338V6.65117C138.035 6.60078 137.556 6.37404 137.153 5.97093C136.75 5.51745 136.548 5.01357 136.548 4.45931C136.548 3.95543 136.649 3.57752 136.851 3.32559C136.649 3.07365 136.548 2.72093 136.548 2.26745C136.548 1.61241 136.75 1.08334 137.153 0.680233C137.607 0.226744 138.161 0 138.816 0H147.508ZM155.595 8.91861C155.595 8.1628 155.469 7.3566 155.217 6.50001C154.663 4.8876 153.68 3.55233 152.269 2.49419C150.909 1.43605 149.322 0.906979 147.508 0.906979H138.816C138.413 0.906979 138.085 1.03295 137.833 1.28489C137.581 1.53682 137.455 1.86434 137.455 2.26745C137.455 2.41861 137.481 2.51938 137.531 2.56977C137.682 3.2752 138.111 3.62791 138.816 3.62791C139.169 3.62791 139.395 3.82946 139.496 4.23256V59.9361C139.395 60.3392 139.169 60.5407 138.816 60.5407H138.589C137.833 60.6919 137.455 61.1454 137.455 61.9012C137.455 62.0524 137.481 62.1531 137.531 62.2035C137.682 62.909 138.111 63.2617 138.816 63.2617H147.508C148.616 63.2617 149.649 63.0601 150.607 62.657C151.614 62.2035 152.471 61.6241 153.176 60.9186C153.932 60.1628 154.512 59.3062 154.915 58.3489C155.368 57.3411 155.595 56.283 155.595 55.1745V8.91861ZM147.508 7.25582C148.012 7.25582 148.415 7.43218 148.717 7.78489C149.07 8.08722 149.246 8.46512 149.246 8.91861V55.1745C149.246 55.8295 148.944 56.3334 148.339 56.6861C148.087 56.8372 147.81 56.9128 147.508 56.9128H145.769V7.25582H147.508ZM148.339 11.1105C148.339 10.5562 148.062 10.2791 147.508 10.2791H146.676V56.0059H147.508C148.062 56.0059 148.339 55.7287 148.339 55.1745V11.1105ZM148.037 4.30815C149.347 4.30815 150.43 4.76163 151.287 5.66861C152.194 6.57558 152.647 7.65892 152.647 8.91861V55.1745C152.647 56.4845 152.194 57.5931 151.287 58.5C150.43 59.3566 149.347 59.7849 148.037 59.7849H143.426V4.30815H148.037ZM150.607 8.91861C150.607 8.06202 150.304 7.3566 149.7 6.80233C149.095 6.19768 148.364 5.89535 147.508 5.89535H144.409V58.2733H147.508C148.364 58.2733 149.095 57.971 149.7 57.3663C150.304 56.7617 150.607 56.031 150.607 55.1745V8.91861ZM147.508 2.26745C149.372 2.26745 150.959 2.92248 152.269 4.23256C153.579 5.49225 154.235 7.05427 154.235 8.91861V55.1745C154.235 57.0388 153.579 58.626 152.269 59.9361C150.959 61.2462 149.372 61.9012 147.508 61.9012H138.816C139.37 61.9012 139.824 61.7248 140.176 61.3721C140.58 60.969 140.806 60.4904 140.857 59.9361V4.23256C140.806 3.6783 140.58 3.22481 140.176 2.87209C139.824 2.469 139.37 2.26745 138.816 2.26745H147.508ZM153.252 8.91861C153.252 7.50776 152.748 6.29846 151.74 5.2907C150.733 4.28295 149.498 3.77907 148.037 3.77907H142.973L140.932 2.41861L142.897 4.0814V60.0117L140.932 61.6745L142.897 60.314H148.037C149.498 60.314 150.733 59.8353 151.74 58.8779C152.748 57.8702 153.252 56.6357 153.252 55.1745V8.91861Z" fill="white"/>
</svg>
