<svg width="139" height="67" viewBox="0 0 139 67" fill="none" xmlns="http://www.w3.org/2000/svg">
<path d="M19.0465 0.680233C19.4496 1.08334 19.6512 1.61241 19.6512 2.26745V10.0523C19.6512 10.7074 19.4244 11.2616 18.9709 11.7151C18.5678 12.1182 18.0388 12.3198 17.3837 12.3198C16.8295 12.3198 16.3256 12.1182 15.8721 11.7151C15.469 11.312 15.2423 10.8333 15.1919 10.2791H13.907V59.6338C14.4612 59.7345 14.9399 60.0117 15.343 60.4652C15.7461 60.8683 15.9477 61.3469 15.9477 61.9012C15.9477 62.2035 15.8469 62.5562 15.6454 62.9593C15.7461 63.1609 15.8217 63.3373 15.8721 63.4884C15.9225 63.6396 15.9477 63.8411 15.9477 64.0931C15.9477 64.6977 15.7209 65.2268 15.2674 65.6803C14.814 66.1338 14.2849 66.3605 13.6802 66.3605H6.04651C5.39147 66.3605 4.83722 66.1338 4.38373 65.6803C3.98063 65.2268 3.77907 64.6977 3.77907 64.0931C3.77907 63.7404 3.85465 63.3624 4.00581 62.9593C3.85465 62.657 3.77907 62.3043 3.77907 61.9012C3.77907 61.3469 3.95542 60.8683 4.30814 60.4652C4.71124 60.0117 5.18992 59.7345 5.74419 59.6338V10.2791H4.53488C4.43411 10.8333 4.15698 11.312 3.70349 11.7151C3.30039 12.1182 2.8217 12.3198 2.26744 12.3198C1.6124 12.3198 1.05813 12.1182 0.604645 11.7151C0.201544 11.2616 0 10.7074 0 10.0523V2.26745C0 1.61241 0.201544 1.08334 0.604645 0.680233C1.05813 0.226744 1.6124 0 2.26744 0H17.3837C18.0388 0 18.593 0.226744 19.0465 0.680233ZM18.7442 2.26745C18.7442 1.81396 18.6182 1.48644 18.3663 1.28489C18.1143 1.03295 17.7868 0.906979 17.3837 0.906979H2.26744C1.86434 0.906979 1.53682 1.03295 1.28488 1.28489C1.03294 1.53682 0.906982 1.86434 0.906982 2.26745V7.86047C0.906982 8.26357 1.03294 8.59109 1.28488 8.84303C1.53682 9.09497 1.86434 9.22094 2.26744 9.22094C2.67054 9.22094 2.99806 9.09497 3.25 8.84303C3.50194 8.59109 3.62791 8.26357 3.62791 7.86047C3.62791 7.45737 3.82946 7.25582 4.23256 7.25582H6.65117V59.9361C6.65117 60.3392 6.44961 60.5407 6.04651 60.5407H5.74419C5.03876 60.7423 4.68605 61.1958 4.68605 61.9012V62.2035C4.83721 62.909 5.29069 63.2617 6.04651 63.2617H13.6802C14.3353 63.2617 14.7636 62.909 14.9651 62.2035C15.0155 62.1531 15.0407 62.0524 15.0407 61.9012C15.0407 61.5485 14.9147 61.2714 14.6628 61.0698C14.4612 60.8179 14.2093 60.6415 13.907 60.5407H13.6802C13.2267 60.5407 13 60.3392 13 59.9361V7.25582H15.4942C15.8469 7.25582 16.0233 7.45737 16.0233 7.86047C16.0233 8.26357 16.1492 8.59109 16.4012 8.84303C16.7035 9.09497 17.031 9.22094 17.3837 9.22094C17.7868 9.22094 18.1143 9.09497 18.3663 8.84303C18.6182 8.59109 18.7442 8.26357 18.7442 7.86047V2.26745ZM17.3837 2.26745V7.86047C17.3837 7.30621 17.2074 6.85272 16.8547 6.50001C16.5019 6.0969 16.0485 5.89535 15.4942 5.89535H11.6395V59.9361C11.6395 60.4904 11.8411 60.969 12.2442 61.3721C12.6473 61.7248 13.126 61.9012 13.6802 61.9012H6.04651C6.60077 61.9012 7.05427 61.7248 7.40698 61.3721C7.81008 60.969 8.01163 60.4904 8.01163 59.9361V5.89535H4.15698C3.60272 5.89535 3.14922 6.0969 2.79651 6.50001C2.4438 6.85272 2.26744 7.30621 2.26744 7.86047V2.26745H17.3837ZM4.30814 4.30815H10.1279V60.314L8.01163 61.5989L10.657 60.314V4.30815H16.4012V3.77907H4.30814V4.30815ZM2.41861 6.50001L3.02325 5.89535L4.30814 4.30815V3.77907L2.8721 5.89535L2.41861 6.50001Z" fill="white"/>
<path d="M49.494 61.9012C49.494 62.3547 49.3933 62.7074 49.1917 62.9593C49.3933 63.3121 49.494 63.69 49.494 64.0931C49.494 64.6977 49.2673 65.2268 48.8138 65.6803C48.4107 66.1338 47.8816 66.3605 47.2266 66.3605H39.4417C38.5851 66.3605 37.9553 65.9826 37.5522 65.2268C37.1491 65.9826 36.494 66.3605 35.5871 66.3605H27.9533C27.2983 66.3605 26.744 66.1338 26.2905 65.6803C25.8874 65.2268 25.6859 64.6977 25.6859 64.0931C25.6859 63.69 25.7867 63.3121 25.9882 62.9593C25.7867 62.7074 25.6859 62.3547 25.6859 61.9012C25.6859 61.3469 25.8874 60.8683 26.2905 60.4652C26.6936 60.0117 27.1723 59.7345 27.7266 59.6338V6.65117C27.1723 6.60078 26.6936 6.37404 26.2905 5.97093C25.8874 5.51745 25.6859 5.01357 25.6859 4.45931C25.6859 3.95543 25.7867 3.57752 25.9882 3.32559C25.7867 3.07365 25.6859 2.72093 25.6859 2.26745C25.6859 1.61241 25.8874 1.08334 26.2905 0.680233C26.744 0.226744 27.2983 0 27.9533 0H37.0231C38.2828 0 39.4417 0.251938 40.4998 0.755814C41.6084 1.2093 42.5657 1.83915 43.3719 2.64535C44.1781 3.45155 44.808 4.40892 45.2615 5.51745C45.7654 6.57559 46.0173 7.70931 46.0173 8.91861V35.0698C46.0173 36.531 45.6898 37.8915 45.0347 39.1512C44.4301 40.3605 43.5483 41.3934 42.3894 42.25L46.6219 58.2733L46.8487 59.3314C46.8991 59.3818 46.9495 59.4574 46.9998 59.5582C47.1006 59.6086 47.1762 59.6338 47.2266 59.6338C47.8816 59.6338 48.4107 59.8605 48.8138 60.314C49.2673 60.7171 49.494 61.2462 49.494 61.9012ZM37.5522 60.7675C37.7033 60.4652 37.8797 60.2384 38.0812 60.0873L35.8138 51.471V59.6338C36.5696 59.6842 37.1491 60.0621 37.5522 60.7675ZM48.5871 61.9012C48.5871 61.4981 48.4611 61.1706 48.2092 60.9186C47.9572 60.6667 47.6297 60.5407 47.2266 60.5407C46.9747 60.5407 46.7479 60.4652 46.5464 60.314C46.244 60.0621 46.0677 59.8101 46.0173 59.5582L45.715 58.5L40.8777 39.9826C42.1878 39.2772 43.2208 38.2946 43.9766 37.0349C44.7324 35.7752 45.1103 34.4148 45.1103 32.9535V8.91861C45.1103 8.1628 44.9843 7.3566 44.7324 6.50001C44.1781 4.8876 43.1956 3.55233 41.7847 2.49419C40.4243 1.43605 38.8371 0.906979 37.0231 0.906979H27.9533C27.5502 0.906979 27.2227 1.03295 26.9708 1.28489C26.7188 1.53682 26.5929 1.86434 26.5929 2.26745C26.5929 2.41861 26.6181 2.51938 26.6684 2.56977C26.8196 3.2752 27.2479 3.62791 27.9533 3.62791C28.306 3.62791 28.5328 3.82946 28.6336 4.23256V59.9361C28.5328 60.3392 28.306 60.5407 27.9533 60.5407H27.7266C26.9708 60.6919 26.5929 61.1454 26.5929 61.9012C26.5929 62.0524 26.6181 62.1531 26.6684 62.2035C26.8196 62.909 27.2479 63.2617 27.9533 63.2617H35.5871C36.2421 63.2617 36.6704 62.909 36.8719 62.2035C36.9223 62.1531 36.9475 62.0524 36.9475 61.9012C36.9475 61.1454 36.5696 60.6919 35.8138 60.5407H35.5871C35.2343 60.5407 35.0076 60.3392 34.9068 59.9361V42.3256L39.6684 60.314V60.4652C39.6684 60.5155 39.5929 60.5407 39.4417 60.5407C38.9882 60.5407 38.6355 60.7423 38.3836 61.1454C38.2324 61.3973 38.1568 61.6493 38.1568 61.9012V62.2035C38.308 62.909 38.7363 63.2617 39.4417 63.2617H47.2266C47.932 63.2617 48.3855 62.909 48.5871 62.2035V61.9012ZM37.0231 7.25582C37.527 7.25582 37.9301 7.43218 38.2324 7.78489C38.5851 8.08722 38.7615 8.46512 38.7615 8.91861V32.9535C38.7615 33.6086 38.4591 34.1124 37.8545 34.4651C37.5522 34.5659 37.275 34.6163 37.0231 34.6163H34.9068V7.25582H37.0231ZM37.8545 11.1105C37.8545 10.5562 37.5774 10.2791 37.0231 10.2791H35.8138V33.7093H37.0231C37.5774 33.7093 37.8545 33.4574 37.8545 32.9535V11.1105ZM38.8371 37.3372C38.5347 37.438 38.3584 37.4884 38.308 37.4884C38.2072 37.4884 38.0812 37.5136 37.9301 37.564C37.8293 37.564 37.7033 37.564 37.5522 37.564H32.5638V4.30815H37.5522C38.8622 4.30815 39.9708 4.76163 40.8777 5.66861C41.7847 6.57558 42.2382 7.65892 42.2382 8.91861V32.9535C42.2382 34.0117 41.9107 34.9438 41.2557 35.75C40.6006 36.5562 39.7944 37.0853 38.8371 37.3372ZM37.0231 35.9768C37.8797 35.9768 38.6103 35.6996 39.215 35.1454C39.8196 34.5407 40.1219 33.8101 40.1219 32.9535V8.91861C40.1219 8.06202 39.8196 7.3566 39.215 6.80233C38.6103 6.19768 37.8797 5.89535 37.0231 5.89535H33.5464V35.9768H37.0231ZM44.7324 59.8605C44.8332 60.4148 45.1355 60.8935 45.6394 61.2966C46.1432 61.6997 46.6723 61.9012 47.2266 61.9012H39.4417C39.996 61.9012 40.3991 61.7248 40.651 61.3721C40.9533 61.0194 41.0541 60.5659 40.9533 60.0117L39.744 55.4012L35.6626 39.6047H33.5464V59.9361C33.5967 60.4904 33.7983 60.969 34.151 61.3721C34.5541 61.7248 35.0328 61.9012 35.5871 61.9012H27.9533C28.5076 61.9012 28.9611 61.7248 29.3138 61.3721C29.7169 60.969 29.9436 60.4904 29.994 59.9361V4.23256C29.9436 3.6783 29.7169 3.22481 29.3138 2.87209C28.9611 2.469 28.5076 2.26745 27.9533 2.26745H37.0231C38.8874 2.26745 40.4747 2.92248 41.7847 4.23256C43.0948 5.49225 43.7498 7.05427 43.7498 8.91861V32.9535C43.7498 34.4148 43.3216 35.7248 42.465 36.8837C41.6588 37.9923 40.6006 38.7733 39.2905 39.2268L44.4301 58.8024L44.7324 59.8605ZM43.8254 60.3896L43.2964 58.4245L43.2208 58.1221L42.3138 54.721L37.9301 38.0931C38.1316 38.0427 38.308 38.0175 38.4591 38.0175C38.6103 38.0175 38.7615 37.9671 38.9126 37.8663C40.0212 37.6144 40.9281 37.0349 41.6336 36.1279C42.3894 35.1706 42.7673 34.1124 42.7673 32.9535V8.91861C42.7673 7.50776 42.2634 6.29846 41.2557 5.2907C40.2479 4.28295 39.0134 3.77907 37.5522 3.77907H32.5638L31.7324 3.40117L29.8429 2.41861L31.7324 3.62791L32.0347 3.77907V60.314L29.994 61.5989L32.5638 60.314V38.0931H37.401L37.7789 39.6047L41.7847 54.8721L42.6917 58.2733V58.4245L43.2208 60.3896L42.9184 60.5407L41.4068 61.5233L41.1801 61.6745L41.4068 61.5989L42.994 60.7675L43.0696 60.6919L43.6743 60.3896H43.8254Z" fill="white"/>
<path d="M77.4237 2.26745C77.4237 2.67054 77.3481 3.02326 77.197 3.32559C77.3481 3.62791 77.4237 4.00582 77.4237 4.45931C77.4237 5.01357 77.2222 5.51745 76.8191 5.97093C76.4664 6.37404 76.0129 6.60078 75.4586 6.65117V57.3663C75.4586 58.5756 75.2067 59.7345 74.7028 60.8431C74.2493 61.9516 73.6195 62.909 72.8133 63.7152C72.0071 64.5214 71.0497 65.1764 69.9412 65.6803C68.883 66.1338 67.7241 66.3605 66.4644 66.3605C65.2551 66.3605 64.0962 66.1338 62.9877 65.6803C61.9295 65.1764 60.9974 64.5214 60.1912 63.7152C59.385 62.909 58.7299 61.9516 58.226 60.8431C57.7726 59.7345 57.5458 58.5756 57.5458 57.3663V6.65117C56.9915 6.60078 56.5129 6.37404 56.1098 5.97093C55.7067 5.51745 55.5051 5.01357 55.5051 4.45931C55.5051 3.95543 55.6059 3.57752 55.8074 3.32559C55.6059 3.07365 55.5051 2.72093 55.5051 2.26745C55.5051 1.61241 55.7067 1.08334 56.1098 0.680233C56.5632 0.226744 57.1175 0 57.7726 0H65.4063C65.8094 0 66.1621 0.075582 66.4644 0.226746C66.7667 0.075582 67.1195 0 67.5226 0H75.1563C75.8113 0 76.3404 0.226744 76.7435 0.680233C77.197 1.08334 77.4237 1.61241 77.4237 2.26745ZM76.5168 2.26745C76.5168 1.86434 76.3908 1.53682 76.1388 1.28489C75.8869 1.03295 75.5594 0.906979 75.1563 0.906979H67.5226C67.0187 0.906979 66.666 1.08334 66.4644 1.43605C66.2629 1.08334 65.9102 0.906979 65.4063 0.906979H57.7726C57.3695 0.906979 57.0419 1.03295 56.79 1.28489C56.5381 1.53682 56.4121 1.86434 56.4121 2.26745C56.4121 2.41861 56.4373 2.51938 56.4877 2.56977C56.6388 3.2752 57.0671 3.62791 57.7726 3.62791C58.1253 3.62791 58.352 3.82946 58.4528 4.23256V55.1745C58.4528 56.283 58.6543 57.3411 59.0574 58.3489C59.5109 59.3062 60.0904 60.1628 60.7958 60.9186C61.5012 61.6241 62.3326 62.2035 63.29 62.657C64.2977 63.0601 65.3559 63.2617 66.4644 63.2617C67.5729 63.2617 68.6059 63.0601 69.5633 62.657C70.571 62.2035 71.4276 61.6241 72.133 60.9186C72.8888 60.1628 73.4683 59.3062 73.8714 58.3489C74.3249 57.3411 74.5517 56.283 74.5517 55.1745V4.23256C74.5517 3.82946 74.7532 3.62791 75.1563 3.62791C75.8617 3.62791 76.3152 3.2752 76.5168 2.56977V2.26745ZM64.726 4.23256C64.8268 3.82946 65.0536 3.62791 65.4063 3.62791C65.8598 3.62791 66.2125 3.45155 66.4644 3.09884C66.7164 3.45155 67.0691 3.62791 67.5226 3.62791C67.976 3.62791 68.2028 3.82946 68.2028 4.23256V55.1745C68.2028 55.8295 67.9005 56.3334 67.2958 56.6861C67.0439 56.8372 66.7667 56.9128 66.4644 56.9128C66.2125 56.9128 65.9353 56.8372 65.633 56.6861C65.0284 56.3334 64.726 55.8295 64.726 55.1745V4.23256ZM65.633 55.1745C65.633 55.7287 65.9102 56.0059 66.4644 56.0059C67.0187 56.0059 67.2958 55.7287 67.2958 55.1745V6.65117C67.0439 6.65117 66.7667 6.57559 66.4644 6.42443C66.2125 6.57559 65.9353 6.65117 65.633 6.65117V55.1745ZM75.1563 2.26745C74.602 2.26745 74.1233 2.469 73.7202 2.87209C73.3675 3.22481 73.1912 3.6783 73.1912 4.23256V55.1745C73.1912 57.0388 72.5361 58.626 71.226 59.9361C69.916 61.2462 68.3288 61.9012 66.4644 61.9012C64.6001 61.9012 63.0129 61.2462 61.7028 59.9361C60.4431 58.626 59.8132 57.0388 59.8132 55.1745V4.23256C59.7629 3.6783 59.5361 3.22481 59.133 2.87209C58.7803 2.469 58.3268 2.26745 57.7726 2.26745H65.4063C64.852 2.26745 64.3733 2.469 63.9702 2.87209C63.6175 3.22481 63.416 3.6783 63.3656 4.23256V55.1745C63.3656 56.031 63.6679 56.7617 64.2726 57.3663C64.8772 57.971 65.6078 58.2733 66.4644 58.2733C67.321 58.2733 68.0516 57.971 68.6563 57.3663C69.2609 56.7617 69.5633 56.031 69.5633 55.1745V4.23256C69.5633 3.6783 69.3617 3.22481 68.9586 2.87209C68.5555 2.469 68.0768 2.26745 67.5226 2.26745H75.1563ZM69.5633 2.49419L71.604 3.77907V55.1745C71.604 56.4845 71.1505 57.5931 70.2435 58.5C69.3869 59.3566 68.3036 59.7849 66.9935 59.7849H66.4644C65.3055 59.6338 64.3229 59.1299 63.5167 58.2733C62.7609 57.3663 62.383 56.3334 62.383 55.1745V3.77907L59.8132 2.49419L61.854 3.77907V55.1745C61.854 56.4845 62.2822 57.6435 63.1388 58.6512C64.0458 59.6086 65.1543 60.1628 66.4644 60.314H66.9935C68.4547 60.314 69.6892 59.8353 70.697 58.8779C71.7047 57.8702 72.2086 56.6357 72.2086 55.1745V3.77907L69.5633 2.49419Z" fill="white"/>
<path d="M112.2 61.9012C112.2 62.3547 112.099 62.7074 111.898 62.9593C111.998 63.1609 112.074 63.3373 112.124 63.4884C112.175 63.6396 112.2 63.8411 112.2 64.0931C112.2 64.6977 111.973 65.2268 111.52 65.6803C111.066 66.1338 110.537 66.3605 109.933 66.3605H102.299C102.148 66.3605 102.047 66.3353 101.997 66.2849C101.896 66.3353 101.77 66.3605 101.619 66.3605H93.9849C93.8841 66.3605 93.7834 66.3353 93.6826 66.2849C93.6322 66.3353 93.5314 66.3605 93.3803 66.3605H85.7465C85.0915 66.3605 84.5372 66.1338 84.0838 65.6803C83.6807 65.2268 83.4791 64.6977 83.4791 64.0931C83.4791 63.69 83.5799 63.3121 83.7814 62.9593C83.5799 62.7074 83.4791 62.3547 83.4791 61.9012C83.4791 61.3469 83.6807 60.8683 84.0838 60.4652C84.4869 60.0117 84.9655 59.7345 85.5198 59.6338V6.65117C84.9655 6.60078 84.4869 6.37404 84.0838 5.97093C83.6807 5.51745 83.4791 5.01357 83.4791 4.45931C83.4791 3.95543 83.5799 3.57752 83.7814 3.32559C83.5799 3.07365 83.4791 2.72093 83.4791 2.26745C83.4791 1.61241 83.6807 1.08334 84.0838 0.680233C84.5372 0.226744 85.0915 0 85.7465 0H93.5314C94.1361 0 94.6651 0.226744 95.1186 0.680233C95.5721 1.08334 95.7989 1.61241 95.7989 2.26745C95.7989 2.56977 95.6981 2.92248 95.4965 3.32559C95.6981 3.72868 95.7989 4.10659 95.7989 4.45931C95.7989 4.96318 95.6477 5.41667 95.3454 5.81977C95.0431 6.17248 94.6903 6.42442 94.2872 6.57559L97.8396 32.1221L101.392 6.57559C100.384 6.22287 99.8803 5.51745 99.8803 4.45931C99.8803 3.95543 99.981 3.57752 100.183 3.32559C99.981 3.07365 99.8803 2.72093 99.8803 2.26745C99.8803 1.61241 100.082 1.08334 100.485 0.680233C100.938 0.226744 101.493 0 102.148 0H109.933C110.537 0 111.066 0.226744 111.52 0.680233C111.973 1.08334 112.2 1.61241 112.2 2.26745C112.2 2.56977 112.099 2.92248 111.898 3.32559C112.099 3.72868 112.2 4.10659 112.2 4.45931C112.2 5.01357 111.998 5.51745 111.595 5.97093C111.192 6.37404 110.714 6.60078 110.159 6.65117V59.6338C110.714 59.7345 111.192 60.0117 111.595 60.4652C111.998 60.8683 112.2 61.3469 112.2 61.9012ZM111.218 62.2035C111.268 62.1531 111.293 62.0524 111.293 61.9012C111.293 61.1454 110.915 60.6919 110.159 60.5407H109.933C109.479 60.5407 109.252 60.3392 109.252 59.9361V4.23256C109.353 3.82946 109.58 3.62791 109.933 3.62791C110.588 3.62791 111.016 3.2752 111.218 2.56977C111.268 2.51938 111.293 2.41861 111.293 2.26745C111.293 1.86434 111.167 1.53682 110.915 1.28489C110.663 1.03295 110.336 0.906979 109.933 0.906979H102.148C101.745 0.906979 101.417 1.03295 101.165 1.28489C100.913 1.53682 100.787 1.86434 100.787 2.26745C100.787 2.41861 100.812 2.51938 100.863 2.56977C101.014 3.2752 101.442 3.62791 102.148 3.62791C102.349 3.62791 102.526 3.70349 102.677 3.85465L97.8396 38.6221L93.0024 3.85465C93.0527 3.70349 93.2291 3.62791 93.5314 3.62791C94.1865 3.62791 94.6148 3.2752 94.8163 2.56977C94.8667 2.51938 94.8919 2.41861 94.8919 2.26745C94.8919 1.86434 94.7659 1.53682 94.514 1.28489C94.2621 1.03295 93.9345 0.906979 93.5314 0.906979H85.7465C85.3434 0.906979 85.0159 1.03295 84.764 1.28489C84.5121 1.53682 84.3861 1.86434 84.3861 2.26745C84.3861 2.41861 84.4113 2.51938 84.4617 2.56977C84.6128 3.2752 85.0411 3.62791 85.7465 3.62791C86.0993 3.62791 86.326 3.82946 86.4268 4.23256V59.9361C86.326 60.3392 86.0993 60.5407 85.7465 60.5407H85.5198C84.764 60.6919 84.3861 61.1454 84.3861 61.9012C84.3861 62.0524 84.4113 62.1531 84.4617 62.2035C84.6128 62.909 85.0411 63.2617 85.7465 63.2617H93.3803C93.5314 63.2617 93.6322 63.2365 93.6826 63.1861C93.7834 63.2365 93.8841 63.2617 93.9849 63.2617H101.619C101.77 63.2617 101.896 63.2365 101.997 63.1861C102.047 63.2365 102.148 63.2617 102.299 63.2617H109.933C110.588 63.2617 111.016 62.909 111.218 62.2035ZM102.904 59.9361C102.904 60.3392 102.702 60.5407 102.299 60.5407H101.619C101.467 60.5407 101.342 60.4904 101.241 60.3896L102.904 47.9942V59.9361ZM94.4384 60.3896C94.3376 60.4904 94.1865 60.5407 93.9849 60.5407H93.3803C93.0275 60.5407 92.8008 60.3392 92.7 59.9361V47.9942L94.4384 60.3896ZM107.892 59.9361C107.942 60.4904 108.144 60.969 108.497 61.3721C108.9 61.7248 109.378 61.9012 109.933 61.9012H102.299C102.853 61.9012 103.307 61.7248 103.659 61.3721C104.062 60.969 104.264 60.4904 104.264 59.9361V28.4186L99.8047 60.6919C100.157 61.4981 100.762 61.9012 101.619 61.9012H93.9849C94.8919 61.9012 95.5218 61.4981 95.8745 60.6919L91.3396 28.4186V59.9361C91.39 60.4904 91.5915 60.969 91.9442 61.3721C92.3473 61.7248 92.826 61.9012 93.3803 61.9012H85.7465C86.3008 61.9012 86.7543 61.7248 87.107 61.3721C87.5101 60.969 87.7369 60.4904 87.7872 59.9361V4.23256C87.7369 3.6783 87.5101 3.22481 87.107 2.87209C86.7543 2.469 86.3008 2.26745 85.7465 2.26745H93.5314C92.5741 2.26745 91.919 2.74613 91.5663 3.70349L91.6419 3.77907L97.8396 48.5233L104.037 3.77907V3.70349C103.785 2.74613 103.155 2.26745 102.148 2.26745H109.933C109.378 2.26745 108.9 2.4438 108.497 2.79651C108.144 3.14923 107.942 3.60272 107.892 4.15698V59.9361ZM106.909 3.77907L106.078 3.40117L106.002 3.32559L104.264 2.56977L103.962 2.41861L104.188 2.56977L104.264 2.64535L106.002 3.62791L106.078 3.77907H106.154V4.00582L106.078 4.0814V4.15698L106.002 5.13954L105.851 5.74419L98.5198 58.4245L98.3686 59.6338L98.2175 58.4245L91.3396 9.3721L90.8861 5.74419V5.66861L90.5838 3.93023V3.77907L89.6768 3.40117L89.5256 3.32559L87.7872 2.49419L89.5256 3.62791L89.828 3.77907V60.314L87.7872 61.5989L90.357 60.314V6.19768L97.6128 58.4245L97.9151 60.0873V60.3896L96.0256 61.5233L95.7233 61.6745L96.0256 61.5989L98.8221 60.3896L98.8977 60.0873L99.1245 58.4245L104.264 21.1628L106.38 6.19768V60.3896L104.264 61.5989L106.909 60.3896V3.77907Z" fill="white"/>
<path d="M129.581 0C130.841 0 131.999 0.251938 133.058 0.755814C134.166 1.2093 135.123 1.83915 135.93 2.64535C136.736 3.45155 137.366 4.40892 137.819 5.51745C138.323 6.57559 138.575 7.70931 138.575 8.91861V35.0698C138.575 36.3295 138.323 37.5136 137.819 38.6221C137.366 39.6803 136.736 40.6124 135.93 41.4186C135.123 42.2248 134.166 42.8799 133.058 43.3837C131.999 43.8372 130.841 44.064 129.581 44.064H128.372V59.6338C128.926 59.7345 129.404 60.0117 129.808 60.4652C130.211 60.8683 130.412 61.3469 130.412 61.9012C130.412 62.3547 130.311 62.7074 130.11 62.9593C130.311 63.3121 130.412 63.69 130.412 64.0931C130.412 64.6977 130.185 65.2268 129.732 65.6803C129.329 66.1338 128.8 66.3605 128.145 66.3605H120.511C119.856 66.3605 119.302 66.1338 118.848 65.6803C118.445 65.2268 118.244 64.6977 118.244 64.0931C118.244 63.69 118.344 63.3121 118.546 62.9593C118.344 62.7074 118.244 62.3547 118.244 61.9012C118.244 61.3469 118.445 60.8683 118.848 60.4652C119.251 60.0117 119.73 59.7345 120.284 59.6338V6.65117C119.73 6.60078 119.251 6.37404 118.848 5.97093C118.445 5.51745 118.244 5.01357 118.244 4.45931C118.244 3.95543 118.344 3.57752 118.546 3.32559C118.344 3.07365 118.244 2.72093 118.244 2.26745C118.244 1.61241 118.445 1.08334 118.848 0.680233C119.302 0.226744 119.856 0 120.511 0H129.581ZM137.668 8.91861C137.668 8.1628 137.542 7.3566 137.29 6.50001C136.736 4.8876 135.753 3.55233 134.342 2.49419C132.982 1.43605 131.395 0.906979 129.581 0.906979H120.511C120.108 0.906979 119.78 1.03295 119.528 1.28489C119.277 1.53682 119.151 1.86434 119.151 2.26745C119.151 2.41861 119.176 2.51938 119.226 2.56977C119.377 3.2752 119.806 3.62791 120.511 3.62791C120.864 3.62791 121.091 3.82946 121.191 4.23256V59.9361C121.091 60.3392 120.864 60.5407 120.511 60.5407H120.284C119.529 60.6919 119.151 61.1454 119.151 61.9012C119.151 62.0524 119.176 62.1531 119.226 62.2035C119.377 62.909 119.806 63.2617 120.511 63.2617H128.145C128.8 63.2617 129.228 62.909 129.43 62.2035C129.48 62.1531 129.505 62.0524 129.505 61.9012C129.505 61.1454 129.127 60.6919 128.372 60.5407H128.145C127.792 60.5407 127.565 60.3392 127.465 59.9361V40.9651H129.581C130.689 40.9651 131.722 40.7636 132.68 40.3605C133.687 39.907 134.544 39.3275 135.249 38.6221C136.005 37.8663 136.585 37.0097 136.988 36.0523C137.441 35.095 137.668 34.062 137.668 32.9535V8.91861ZM129.581 7.25582C130.085 7.25582 130.488 7.43218 130.79 7.78489C131.143 8.08722 131.319 8.46512 131.319 8.91861V32.9535C131.319 33.6086 131.017 34.1124 130.412 34.4651C130.11 34.5659 129.833 34.6163 129.581 34.6163H127.465V7.25582H129.581ZM130.412 11.1105C130.412 10.5562 130.135 10.2791 129.581 10.2791H128.372V33.7093H129.581C130.135 33.7093 130.412 33.4574 130.412 32.9535V11.1105ZM129.581 2.26745C131.445 2.26745 133.032 2.92248 134.342 4.23256C135.653 5.49225 136.308 7.05427 136.308 8.91861V32.9535C136.308 33.8605 136.131 34.7171 135.778 35.5233C135.426 36.3295 134.947 37.0349 134.342 37.6396C133.738 38.2442 133.007 38.7229 132.151 39.0756C131.344 39.4283 130.488 39.6047 129.581 39.6047H126.104V59.9361C126.154 60.4904 126.356 60.969 126.709 61.3721C127.112 61.7248 127.591 61.9012 128.145 61.9012H120.511C121.065 61.9012 121.519 61.7248 121.872 61.3721C122.275 60.969 122.501 60.4904 122.552 59.9361V4.23256C122.501 3.6783 122.275 3.22481 121.872 2.87209C121.519 2.469 121.065 2.26745 120.511 2.26745H129.581ZM135.325 8.91861C135.325 7.50776 134.821 6.29846 133.813 5.2907C132.806 4.28295 131.571 3.77907 130.11 3.77907H125.122L124.29 3.40117L122.552 2.49419L124.29 3.62791L124.592 3.77907V60.3896L122.552 61.5989L125.122 60.3896V38.0931H130.11C131.571 38.0931 132.806 37.5892 133.813 36.5814C134.821 35.5737 135.325 34.3644 135.325 32.9535V8.91861ZM130.11 4.30815C131.42 4.30815 132.529 4.76163 133.436 5.66861C134.342 6.57558 134.796 7.65892 134.796 8.91861V32.9535C134.796 34.2132 134.342 35.2965 133.436 36.2035C132.529 37.1105 131.42 37.564 130.11 37.564H125.122V4.30815H130.11ZM132.68 8.91861C132.68 8.06202 132.377 7.3566 131.773 6.80233C131.168 6.19768 130.437 5.89535 129.581 5.89535H126.104V35.9768H129.581C130.437 35.9768 131.168 35.6996 131.773 35.1454C132.377 34.5407 132.68 33.8101 132.68 32.9535V8.91861Z" fill="white"/>
</svg>
